<svg width="267" height="407" viewBox="0 0 267 407" fill="none" xmlns="http://www.w3.org/2000/svg">
<path d="M250.403 307.482C241.684 284.276 215.804 272.533 192.598 281.252C169.393 289.971 157.649 315.851 166.369 339.057C175.088 362.262 200.968 374.006 224.173 365.287C247.379 356.568 259.122 330.688 250.403 307.482Z" fill="#9C4FFF"/>
<path d="M230.69 291.579C237.053 296.012 241.912 302.341 244.655 309.641" stroke="white" stroke-miterlimit="10" stroke-linecap="round" stroke-linejoin="round"/>
<path d="M214.372 284.948C216.168 285.248 217.917 285.654 219.694 286.139" stroke="white" stroke-miterlimit="10" stroke-linecap="round" stroke-linejoin="round"/>
<circle r="20.3396" transform="matrix(1 0 0 -1 54.7185 350.426)" stroke="#9C4FFF"/>
<path d="M204.993 269.261L204.512 269.125L204.993 269.261ZM50.0447 256.451L50.5232 256.596L50.0447 256.451ZM80.0381 157.443L79.5596 157.298L80.0381 157.443ZM153.423 150.463L152.948 150.306L153.423 150.463ZM85.038 67.9059L84.5602 67.7583L85.038 67.9059ZM93.4699 38.9191C93.3884 39.1829 93.5362 39.4629 93.8001 39.5444C94.0639 39.6259 94.3439 39.4781 94.4254 39.2143L93.4699 38.9191ZM91.8797 47.454C91.9613 47.1902 91.8134 46.9102 91.5496 46.8287C91.2858 46.7472 91.0058 46.895 90.9243 47.1589L91.8797 47.454ZM88.3787 55.3986C88.2972 55.6625 88.445 55.9424 88.7088 56.0239C88.9726 56.1055 89.2526 55.9576 89.3341 55.6938L88.3787 55.3986ZM86.7885 63.9336C86.87 63.6698 86.7222 63.3898 86.4584 63.3083C86.1945 63.2268 85.9146 63.3746 85.8331 63.6384L86.7885 63.9336ZM84.389 70.3023C84.4354 70.5745 84.6937 70.7576 84.9659 70.7112C85.2381 70.6648 85.4211 70.4065 85.3747 70.1343L84.389 70.3023ZM87.7855 73.4023C87.5391 73.2776 87.2383 73.3762 87.1136 73.6226C86.9889 73.869 87.0876 74.1698 87.3339 74.2945L87.7855 73.4023ZM93.9074 74.8818C94.1835 74.8818 94.4074 74.6579 94.4074 74.3818C94.4074 74.1056 94.1835 73.8818 93.9074 73.8818V74.8818ZM102.092 73.8818C101.816 73.8818 101.592 74.1056 101.592 74.3818C101.592 74.6579 101.816 74.8818 102.092 74.8818V73.8818ZM110.276 74.8818C110.552 74.8818 110.776 74.6579 110.776 74.3818C110.776 74.1056 110.552 73.8818 110.276 73.8818V74.8818ZM118.461 73.8818C118.185 73.8818 117.961 74.1056 117.961 74.3818C117.961 74.6579 118.185 74.8818 118.461 74.8818V73.8818ZM126.645 74.8818C126.921 74.8818 127.145 74.6579 127.145 74.3818C127.145 74.1056 126.921 73.8818 126.645 73.8818V74.8818ZM134.83 73.8818C134.553 73.8818 134.33 74.1056 134.33 74.3818C134.33 74.6579 134.553 74.8818 134.83 74.8818V73.8818ZM143.014 74.8818C143.29 74.8818 143.514 74.6579 143.514 74.3818C143.514 74.1056 143.29 73.8818 143.014 73.8818V74.8818ZM151.198 73.8818C150.922 73.8818 150.698 74.1056 150.698 74.3818C150.698 74.6579 150.922 74.8818 151.198 74.8818V73.8818ZM159.383 74.8818C159.659 74.8818 159.883 74.6579 159.883 74.3818C159.883 74.1056 159.659 73.8818 159.383 73.8818V74.8818ZM167.567 73.8818C167.291 73.8818 167.067 74.1056 167.067 74.3818C167.067 74.6579 167.291 74.8818 167.567 74.8818V73.8818ZM173.709 75.3711C173.955 75.497 174.256 75.3999 174.382 75.1541C174.508 74.9083 174.411 74.607 174.165 74.4811L173.709 75.3711ZM177.099 78.5414C177.057 78.2685 176.801 78.0817 176.528 78.1241C176.255 78.1665 176.068 78.4221 176.111 78.6949L177.099 78.5414ZM174.783 84.27C174.696 84.5322 174.838 84.815 175.101 84.9017C175.363 84.9884 175.646 84.8461 175.732 84.584L174.783 84.27ZM173.434 91.5351C173.521 91.2729 173.378 90.9901 173.116 90.9034C172.854 90.8167 172.571 90.959 172.485 91.2211L173.434 91.5351ZM170.186 98.1723C170.099 98.4345 170.242 98.7173 170.504 98.804C170.766 98.8906 171.049 98.7484 171.136 98.4862L170.186 98.1723ZM168.837 105.437C168.924 105.175 168.782 104.892 168.519 104.806C168.257 104.719 167.974 104.861 167.888 105.123L168.837 105.437ZM165.589 112.075C165.503 112.337 165.645 112.62 165.907 112.706C166.169 112.793 166.452 112.651 166.539 112.388L165.589 112.075ZM164.241 119.34C164.327 119.077 164.185 118.795 163.923 118.708C163.661 118.621 163.378 118.763 163.291 119.026L164.241 119.34ZM160.993 125.977C160.906 126.239 161.048 126.522 161.31 126.608C161.573 126.695 161.855 126.553 161.942 126.291L160.993 125.977ZM159.644 133.242C159.731 132.98 159.588 132.697 159.326 132.61C159.064 132.523 158.781 132.666 158.694 132.928L159.644 133.242ZM156.396 139.879C156.309 140.141 156.452 140.424 156.714 140.511C156.976 140.597 157.259 140.455 157.345 140.193L156.396 139.879ZM155.047 147.144C155.134 146.882 154.992 146.599 154.729 146.512C154.467 146.426 154.184 146.568 154.098 146.83L155.047 147.144ZM152.307 151.552C152.143 151.775 152.192 152.088 152.414 152.251C152.637 152.414 152.95 152.366 153.113 152.143L152.307 151.552ZM150.369 154.126C150.632 154.041 150.776 153.759 150.691 153.497C150.606 153.234 150.324 153.09 150.061 153.175L150.369 154.126ZM144.685 153.393C144.409 153.393 144.185 153.617 144.185 153.893C144.185 154.169 144.409 154.393 144.685 154.393V153.393ZM136.704 154.393C136.98 154.393 137.204 154.169 137.204 153.893C137.204 153.617 136.98 153.393 136.704 153.393V154.393ZM128.722 153.393C128.446 153.393 128.222 153.617 128.222 153.893C128.222 154.169 128.446 154.393 128.722 154.393V153.393ZM120.74 154.393C121.017 154.393 121.24 154.169 121.24 153.893C121.24 153.617 121.017 153.393 120.74 153.393V154.393ZM112.759 153.393C112.483 153.393 112.259 153.617 112.259 153.893C112.259 154.169 112.483 154.393 112.759 154.393V153.393ZM104.777 154.393C105.053 154.393 105.277 154.169 105.277 153.893C105.277 153.617 105.053 153.393 104.777 153.393V154.393ZM96.7957 153.393C96.5196 153.393 96.2957 153.617 96.2957 153.893C96.2957 154.169 96.5196 154.393 96.7957 154.393V153.393ZM88.8141 154.393C89.0903 154.393 89.3141 154.169 89.3141 153.893C89.3141 153.617 89.0903 153.393 88.8141 153.393V154.393ZM83.0974 153.67C82.8352 153.757 82.6929 154.04 82.7796 154.302C82.8663 154.564 83.1491 154.707 83.4113 154.62L83.0974 153.67ZM81.1431 156.303C81.3021 156.077 81.2479 155.765 81.0221 155.606C80.7964 155.447 80.4844 155.501 80.3255 155.727L81.1431 156.303ZM78.3098 161.424C78.2298 161.688 78.3791 161.967 78.6434 162.047C78.9077 162.127 79.1868 161.978 79.2669 161.714L78.3098 161.424ZM76.7674 169.964C76.8475 169.7 76.6981 169.421 76.4339 169.341C76.1696 169.261 75.8904 169.41 75.8104 169.674L76.7674 169.964ZM73.3109 177.925C73.2309 178.189 73.3802 178.468 73.6445 178.548C73.9088 178.628 74.1879 178.479 74.268 178.215L73.3109 177.925ZM71.7685 186.465C71.8486 186.201 71.6992 185.922 71.435 185.842C71.1707 185.762 70.8915 185.911 70.8115 186.176L71.7685 186.465ZM68.312 194.426C68.232 194.69 68.3813 194.97 68.6456 195.05C68.9099 195.13 69.189 194.98 69.2691 194.716L68.312 194.426ZM66.7696 202.967C66.8497 202.702 66.7003 202.423 66.4361 202.343C66.1718 202.263 65.8926 202.412 65.8126 202.677L66.7696 202.967ZM63.3131 210.927C63.2331 211.192 63.3824 211.471 63.6467 211.551C63.911 211.631 64.1901 211.482 64.2702 211.217L63.3131 210.927ZM61.7707 219.468C61.8508 219.204 61.7015 218.924 61.4372 218.844C61.1729 218.764 60.8937 218.914 60.8137 219.178L61.7707 219.468ZM58.3142 227.429C58.2342 227.693 58.3835 227.972 58.6478 228.052C58.9121 228.132 59.1912 227.983 59.2713 227.719L58.3142 227.429ZM56.7718 235.969C56.8519 235.705 56.7026 235.426 56.4383 235.346C56.174 235.266 55.8948 235.415 55.8148 235.679L56.7718 235.969ZM53.3153 243.93C53.2353 244.194 53.3846 244.473 53.6489 244.553C53.9132 244.633 54.1923 244.484 54.2724 244.22L53.3153 243.93ZM51.7729 252.47C51.853 252.206 51.7037 251.927 51.4394 251.847C51.1751 251.767 50.8959 251.916 50.8159 252.18L51.7729 252.47ZM49.4076 258.843C49.4551 259.115 49.7142 259.297 49.9862 259.25C50.2582 259.202 50.4402 258.943 50.3927 258.671L49.4076 258.843ZM52.8058 261.924C52.5592 261.799 52.2586 261.898 52.1342 262.145C52.0098 262.391 52.1089 262.692 52.3555 262.816L52.8058 261.924ZM58.8675 263.4C59.1436 263.4 59.3675 263.176 59.3675 262.9C59.3675 262.624 59.1436 262.4 58.8675 262.4V263.4ZM66.9426 262.4C66.6665 262.4 66.4426 262.624 66.4426 262.9C66.4426 263.176 66.6665 263.4 66.9426 263.4V262.4ZM75.0177 263.4C75.2938 263.4 75.5177 263.176 75.5177 262.9C75.5177 262.624 75.2938 262.4 75.0177 262.4V263.4ZM83.0928 262.4C82.8167 262.4 82.5928 262.624 82.5928 262.9C82.5928 263.176 82.8167 263.4 83.0928 263.4V262.4ZM91.1679 263.4C91.4441 263.4 91.6679 263.176 91.6679 262.9C91.6679 262.624 91.4441 262.4 91.1679 262.4V263.4ZM99.243 262.4C98.9669 262.4 98.743 262.624 98.743 262.9C98.743 263.176 98.9669 263.4 99.243 263.4V262.4ZM107.318 263.4C107.594 263.4 107.818 263.176 107.818 262.9C107.818 262.624 107.594 262.4 107.318 262.4V263.4ZM115.393 262.4C115.117 262.4 114.893 262.624 114.893 262.9C114.893 263.176 115.117 263.4 115.393 263.4V262.4ZM123.468 263.4C123.745 263.4 123.968 263.176 123.968 262.9C123.968 262.624 123.745 262.4 123.468 262.4V263.4ZM131.543 262.4C131.267 262.4 131.043 262.624 131.043 262.9C131.043 263.176 131.267 263.4 131.543 263.4V262.4ZM139.619 263.4C139.895 263.4 140.119 263.176 140.119 262.9C140.119 262.624 139.895 262.4 139.619 262.4V263.4ZM147.694 262.4C147.418 262.4 147.194 262.624 147.194 262.9C147.194 263.176 147.418 263.4 147.694 263.4V262.4ZM155.769 263.4C156.045 263.4 156.269 263.176 156.269 262.9C156.269 262.624 156.045 262.4 155.769 262.4V263.4ZM163.844 262.4C163.568 262.4 163.344 262.624 163.344 262.9C163.344 263.176 163.568 263.4 163.844 263.4V262.4ZM171.919 263.4C172.195 263.4 172.419 263.176 172.419 262.9C172.419 262.624 172.195 262.4 171.919 262.4V263.4ZM179.994 262.4C179.718 262.4 179.494 262.624 179.494 262.9C179.494 263.176 179.718 263.4 179.994 263.4V262.4ZM188.069 263.4C188.345 263.4 188.569 263.176 188.569 262.9C188.569 262.624 188.345 262.4 188.069 262.4V263.4ZM196.144 262.4C195.868 262.4 195.644 262.624 195.644 262.9C195.644 263.176 195.868 263.4 196.144 263.4V262.4ZM202.187 263.868C202.435 263.991 202.735 263.891 202.858 263.644C202.981 263.397 202.881 263.096 202.634 262.973L202.187 263.868ZM205.59 266.883C205.539 266.611 205.278 266.433 205.006 266.484C204.735 266.535 204.557 266.797 204.608 267.068L205.59 266.883ZM203.438 272.921C203.363 273.187 203.517 273.463 203.783 273.539C204.049 273.614 204.325 273.459 204.4 273.194L203.438 272.921ZM202.253 280.786C202.328 280.52 202.173 280.243 201.908 280.168C201.642 280.093 201.366 280.248 201.29 280.513L202.253 280.786ZM199.143 288.105C199.067 288.371 199.222 288.647 199.488 288.723C199.753 288.798 200.03 288.643 200.105 288.378L199.143 288.105ZM197.957 295.97C198.032 295.704 197.878 295.428 197.612 295.352C197.346 295.277 197.07 295.432 196.995 295.697L197.957 295.97ZM194.847 303.289C194.772 303.555 194.926 303.831 195.192 303.907C195.458 303.982 195.734 303.827 195.809 303.562L194.847 303.289ZM193.662 311.154C193.737 310.888 193.582 310.612 193.317 310.536C193.051 310.461 192.775 310.616 192.699 310.881L193.662 311.154ZM190.552 318.473C190.477 318.739 190.631 319.016 190.897 319.091C191.162 319.166 191.439 319.011 191.514 318.746L190.552 318.473ZM189.366 326.338C189.441 326.072 189.287 325.796 189.021 325.72C188.755 325.645 188.479 325.8 188.404 326.065L189.366 326.338ZM186.256 333.658C186.181 333.923 186.335 334.2 186.601 334.275C186.867 334.35 187.143 334.195 187.218 333.93L186.256 333.658ZM185.071 341.522C185.146 341.256 184.991 340.98 184.726 340.905C184.46 340.829 184.184 340.984 184.108 341.25L185.071 341.522ZM181.961 348.842C181.886 349.107 182.04 349.384 182.306 349.459C182.571 349.534 182.848 349.379 182.923 349.114L181.961 348.842ZM180.775 356.706C180.85 356.44 180.696 356.164 180.43 356.089C180.164 356.013 179.888 356.168 179.813 356.434L180.775 356.706ZM94.7427 34.7992L93.4699 38.9191L94.4254 39.2143L95.6982 35.0944L94.7427 34.7992ZM90.9243 47.1589L88.3787 55.3986L89.3341 55.6938L91.8797 47.454L90.9243 47.1589ZM85.8331 63.6384L84.5602 67.7583L85.5157 68.0535L86.7885 63.9336L85.8331 63.6384ZM84.5602 67.7583C84.2944 68.6188 84.2496 69.485 84.389 70.3023L85.3747 70.1343C85.2612 69.4687 85.297 68.7614 85.5157 68.0535L84.5602 67.7583ZM87.3339 74.2945C88.0737 74.6689 88.9145 74.8818 89.8152 74.8818V73.8818C89.0743 73.8818 88.3879 73.7071 87.7855 73.4023L87.3339 74.2945ZM89.8152 74.8818H93.9074V73.8818H89.8152V74.8818ZM102.092 74.8818H110.276V73.8818H102.092V74.8818ZM118.461 74.8818H126.645V73.8818H118.461V74.8818ZM134.83 74.8818H143.014V73.8818H134.83V74.8818ZM151.198 74.8818H159.383V73.8818H151.198V74.8818ZM167.567 74.8818H171.66V73.8818H167.567V74.8818ZM171.66 74.8818C172.409 74.8818 173.102 75.0603 173.709 75.3711L174.165 74.4811C173.42 74.0993 172.571 73.8818 171.66 73.8818V74.8818ZM176.111 78.6949C176.216 79.3685 176.167 80.0827 175.932 80.7945L176.881 81.1084C177.168 80.2433 177.228 79.3688 177.099 78.5414L176.111 78.6949ZM175.932 80.7945L174.783 84.27L175.732 84.584L176.881 81.1084L175.932 80.7945ZM172.485 91.2211L170.186 98.1723L171.136 98.4862L173.434 91.5351L172.485 91.2211ZM167.888 105.123L165.589 112.075L166.539 112.388L168.837 105.437L167.888 105.123ZM163.291 119.026L160.993 125.977L161.942 126.291L164.241 119.34L163.291 119.026ZM158.694 132.928L156.396 139.879L157.345 140.193L159.644 133.242L158.694 132.928ZM154.098 146.83L152.948 150.306L153.898 150.62L155.047 147.144L154.098 146.83ZM152.948 150.306C152.798 150.761 152.579 151.18 152.307 151.552L153.113 152.143C153.447 151.688 153.714 151.176 153.898 150.62L152.948 150.306ZM150.061 153.175C149.622 153.317 149.156 153.393 148.676 153.393V154.393C149.262 154.393 149.832 154.3 150.369 154.126L150.061 153.175ZM148.676 153.393H144.685V154.393H148.676V153.393ZM136.704 153.393H128.722V154.393H136.704V153.393ZM120.74 153.393H112.759V154.393H120.74V153.393ZM104.777 153.393H96.7957V154.393H104.777V153.393ZM88.8141 153.393H84.8233V154.393H88.8141V153.393ZM84.8233 153.393C84.2252 153.393 83.644 153.49 83.0974 153.67L83.4113 154.62C83.858 154.472 84.3333 154.393 84.8233 154.393V153.393ZM80.3255 155.727C79.994 156.198 79.733 156.726 79.5596 157.298L80.5166 157.588C80.6587 157.119 80.8722 156.687 81.1431 156.303L80.3255 155.727ZM79.5596 157.298L78.3098 161.424L79.2669 161.714L80.5166 157.588L79.5596 157.298ZM75.8104 169.674L73.3109 177.925L74.268 178.215L76.7674 169.964L75.8104 169.674ZM70.8115 186.176L68.312 194.426L69.2691 194.716L71.7685 186.465L70.8115 186.176ZM65.8126 202.677L63.3131 210.927L64.2702 211.217L66.7696 202.967L65.8126 202.677ZM60.8137 219.178L58.3142 227.429L59.2713 227.719L61.7707 219.468L60.8137 219.178ZM55.8148 235.679L53.3153 243.93L54.2724 244.22L56.7718 235.969L55.8148 235.679ZM50.8159 252.18L49.5662 256.306L50.5232 256.596L51.7729 252.47L50.8159 252.18ZM49.5662 256.306C49.3059 257.165 49.2653 258.029 49.4076 258.843L50.3927 258.671C50.2768 258.008 50.3091 257.302 50.5232 256.596L49.5662 256.306ZM52.3555 262.816C53.0937 263.189 53.9322 263.4 54.8299 263.4V262.4C54.0915 262.4 53.407 262.227 52.8058 261.924L52.3555 262.816ZM54.8299 263.4H58.8675V262.4H54.8299V263.4ZM66.9426 263.4H75.0177V262.4H66.9426V263.4ZM83.0928 263.4H91.1679V262.4H83.0928V263.4ZM99.243 263.4H107.318V262.4H99.243V263.4ZM115.393 263.4H123.468V262.4H115.393V263.4ZM131.543 263.4H139.619V262.4H131.543V263.4ZM147.694 263.4H155.769V262.4H147.694V263.4ZM163.844 263.4H171.919V262.4H163.844V263.4ZM179.994 263.4H188.069V262.4H179.994V263.4ZM196.144 263.4H200.182V262.4H196.144V263.4ZM200.182 263.4C200.912 263.4 201.59 263.57 202.187 263.868L202.634 262.973C201.9 262.608 201.07 262.4 200.182 262.4V263.4ZM204.608 267.068C204.732 267.724 204.711 268.423 204.512 269.125L205.474 269.397C205.716 268.543 205.743 267.687 205.59 266.883L204.608 267.068ZM204.512 269.125L203.438 272.921L204.4 273.194L205.474 269.397L204.512 269.125ZM201.29 280.513L199.143 288.105L200.105 288.378L202.253 280.786L201.29 280.513ZM196.995 295.697L194.847 303.289L195.809 303.562L197.957 295.97L196.995 295.697ZM192.699 310.881L190.552 318.473L191.514 318.746L193.662 311.154L192.699 310.881ZM188.404 326.065L186.256 333.658L187.218 333.93L189.366 326.338L188.404 326.065ZM184.108 341.25L181.961 348.842L182.923 349.114L185.071 341.522L184.108 341.25ZM179.813 356.434L178.739 360.23L179.701 360.502L180.775 356.706L179.813 356.434Z" fill="#86869A"/>
<path d="M221.102 69.614C219.031 64.1017 212.883 61.3122 207.371 63.3833C201.859 65.4545 199.069 71.6021 201.14 77.1144C203.212 82.6266 209.359 85.4162 214.871 83.345C220.384 81.2739 223.173 75.1263 221.102 69.614Z" fill="#89FFB8"/>
<path d="M216.419 65.8364C217.93 66.8896 219.085 68.3928 219.736 70.127" stroke="#272742" stroke-miterlimit="10" stroke-linecap="round" stroke-linejoin="round"/>
<path d="M212.544 64.2611C212.97 64.3324 213.386 64.429 213.808 64.544" stroke="#272742" stroke-miterlimit="10" stroke-linecap="round" stroke-linejoin="round"/>
<path d="M20.0678 377.103C20.0678 377.103 16.5407 370.948 15.5127 364.379C14.6209 358.72 15.4257 350.498 15.795 347.325C15.8707 346.673 16.5388 346.319 17.0671 346.655C19.6802 348.323 26.1856 353.343 28.1944 363.067C30.6798 375.115 26.3591 380.041 26.3591 380.041" fill="#89FFB8"/>
<path d="M20.0678 377.103C20.0678 377.103 16.5407 370.948 15.5127 364.379C14.6209 358.72 15.4257 350.498 15.795 347.325C15.8707 346.673 16.5388 346.319 17.0671 346.655C19.6802 348.323 26.1856 353.343 28.1944 363.067C30.6798 375.115 26.3591 380.041 26.3591 380.041" stroke="#272742" stroke-miterlimit="10" stroke-linecap="round"/>
<path d="M37.2529 375.807C37.2529 375.807 39.824 366.197 39.3132 356.964C39.3343 348.799 35.8326 338.256 34.4142 334.085C34.1229 333.227 33.1162 332.971 32.4983 333.6C29.4448 336.727 23.1925 345.868 23.2892 359.696C23.392 374.403 29.5887 381.875 29.5887 381.875" fill="white"/>
<path d="M37.2529 375.807C37.2529 375.807 39.824 366.197 39.3132 356.964C39.3343 348.799 35.8326 338.256 34.4142 334.085C34.1229 333.227 33.1162 332.971 32.4983 333.6C29.4448 336.727 23.1925 345.868 23.2892 359.696C23.392 374.403 29.5887 381.875 29.5887 381.875" stroke="#272742" stroke-miterlimit="10" stroke-linecap="round"/>
<path d="M41.8038 378.233C41.8038 378.233 44.8029 372.495 45.5141 366.479C46.1326 361.295 45.1202 353.847 44.6761 350.975C44.585 350.384 43.965 350.089 43.4959 350.414C41.1755 352.035 35.4282 356.856 33.9321 365.781C32.0816 376.839 36.1803 381.152 36.1803 381.152" fill="white"/>
<path d="M41.8038 378.233C41.8038 378.233 44.8029 372.495 45.5141 366.479C46.1326 361.295 45.1202 353.847 44.6761 350.975C44.585 350.384 43.965 350.089 43.4959 350.414C41.1755 352.035 35.4282 356.856 33.9321 365.781C32.0816 376.839 36.1803 381.152 36.1803 381.152" stroke="#272742" stroke-miterlimit="10" stroke-linecap="round"/>
<path d="M37.1248 405.892H25.5876C20.7543 405.892 16.8386 402.033 16.8386 397.268V377.272H45.8651V397.268C45.8738 402.033 41.9582 405.892 37.1248 405.892Z" fill="white" stroke="#272742" stroke-miterlimit="10" stroke-linecap="round"/>
<path d="M19.4429 382.483H42.9367" stroke="#272742" stroke-miterlimit="10" stroke-linecap="round"/>
<path d="M31.8564 338.341C29.7861 340.074 27.3746 344.495 27.075 349.583" stroke="#272742" stroke-miterlimit="10" stroke-linecap="round"/>
<path d="M18.614 368.198C17.0582 363.718 16.7348 358.825 17.6788 354.181" stroke="#272742" stroke-miterlimit="10" stroke-linecap="round"/>
<path d="M36.6235 363.106C37.1654 360.47 38.424 357.98 40.2333 355.964" stroke="#272742" stroke-miterlimit="10" stroke-linecap="round"/>
<path d="M115.556 42.3574H79.8502C78.2786 42.3574 77.21 40.8487 77.7129 39.4029L84.8791 17.4641C85.1934 16.5212 86.0735 15.8926 87.0164 15.8926H122.722C124.293 15.8926 125.362 17.4012 124.859 18.8471L117.693 40.7858C117.441 41.7287 116.561 42.3574 115.556 42.3574Z" fill="white" stroke="#272742" stroke-miterlimit="10" stroke-linecap="round" stroke-linejoin="round"/>
<path d="M85.3198 16.7725L99.5894 28.4647C100.155 28.9048 100.972 29.0305 101.601 28.6533L124.483 16.7725" stroke="#272742" stroke-miterlimit="10" stroke-linecap="round" stroke-linejoin="round"/>
<path d="M121.687 47.466C125.016 44.4181 125.643 39.6849 123.087 36.8941C120.532 34.1032 115.762 34.3115 112.433 37.3594C109.105 40.4072 108.478 45.1404 111.033 47.9312C113.589 50.7221 118.359 50.5138 121.687 47.466Z" fill="white" stroke="#272742" stroke-miterlimit="10" stroke-linecap="round" stroke-linejoin="round"/>
<path d="M124.634 39.1596C125.581 38.2922 125.76 36.9455 125.033 36.1518C124.306 35.3581 122.949 35.4178 122.002 36.2853C121.054 37.1527 120.876 38.4994 121.602 39.2931C122.329 40.0869 123.686 40.0271 124.634 39.1596Z" fill="#272742"/>
<path d="M114.864 46.1919L114.801 46.4434C114.675 46.8834 114.927 47.2606 115.367 47.2606H115.618C116.058 47.2606 116.498 46.8834 116.687 46.4434L116.75 46.1919H114.864Z" fill="#272742"/>
<path d="M120.207 43.7406C119.893 43.4892 119.704 43.0491 119.893 42.4834L120.521 40.5975C120.962 39.2774 120.27 38.2088 118.95 38.1459L119.139 37.5802C119.201 37.3287 119.076 37.1401 118.824 37.1401H118.698C118.447 37.1401 118.196 37.3287 118.133 37.5802L117.944 38.1459C116.624 38.2088 115.241 39.2774 114.801 40.5975L114.172 42.4834C113.984 42.9863 113.544 43.4263 113.041 43.7406C112.601 43.9921 112.224 44.3692 112.035 44.8721L111.784 45.5636H113.167H118.95H120.333L120.584 44.8721C120.647 44.3692 120.521 43.9292 120.207 43.7406Z" fill="#272742"/>
<path d="M79.4937 325.362L79.4937 325.362C79.8263 324.355 80.7672 323.674 81.8278 323.674H218.36C220.026 323.674 221.209 325.297 220.7 326.883L197.454 399.355C197.128 400.372 196.182 401.062 195.114 401.062H57.8984H56.5687C55.5467 401.062 54.8239 400.063 55.1444 399.092L79.4937 325.362Z" fill="white" stroke="#272742"/>
<rect x="30.137" y="398.604" width="143.465" height="7.39511" fill="#272742"/>
<path d="M174.101 405.416V399.038L198.78 395.513L196.877 401.857L174.101 405.416Z" fill="white" stroke="#272742" stroke-linejoin="round"/>
<path d="M198.006 395.646H56.7598" stroke="#272742"/>
<path d="M76.9456 333.434H218.655" stroke="#272742"/>
<circle cx="84.8601" cy="329.09" r="1.47902" fill="#272742"/>
<circle cx="92.2554" cy="329.09" r="1.47902" fill="#272742"/>
<circle cx="99.6514" cy="329.09" r="1.47902" fill="#272742"/>
<path d="M85.4638 344.646C85.7566 343.865 86.5028 343.348 87.3365 343.348L134.968 343.348C136.33 343.348 137.293 344.678 136.869 345.972L134.651 352.731C134.381 353.552 133.615 354.107 132.751 354.107C118.781 354.107 99.1428 354.107 84.8017 354.107C83.4053 354.107 82.4388 352.713 82.9291 351.405L85.4638 344.646Z" fill="#FFD94E"/>
<path d="M93.3634 380.401C93.599 379.847 94.1422 379.488 94.7436 379.488H122.747C123.793 379.488 124.518 380.532 124.153 381.512L122.637 385.581C122.418 386.168 121.856 386.558 121.229 386.558H121.165H121.102H121.038H120.975H120.911H120.848H120.785H120.722H120.659H120.596H120.533H120.471H120.408H120.346H120.283H120.221H120.159H120.096H120.034H119.972H119.91H119.849H119.787H119.725H119.664H119.602H119.541H119.479H119.418H119.357H119.296H119.235H119.174H119.113H119.052H118.992H118.931H118.871H118.81H118.75H118.689H118.629H118.569H118.509H118.449H118.389H118.329H118.27H118.21H118.15H118.091H118.031H117.972H117.913H117.854H117.794H117.735H117.676H117.617H117.559H117.5H117.441H117.382H117.324H117.265H117.207H117.149H117.09H117.032H116.974H116.916H116.858H116.8H116.742H116.684H116.626H116.569H116.511H116.453H116.396H116.339H116.281H116.224H116.167H116.11H116.052H115.995H115.938H115.881H115.825H115.768H115.711H115.654H115.598H115.541H115.485H115.428H115.372H115.316H115.259H115.203H115.147H115.091H115.035H114.979H114.923H114.867H114.811H114.756H114.7H114.644H114.589H114.533H114.478H114.422H114.367H114.311H114.256H114.201H114.146H114.091H114.036H113.981H113.926H113.871H113.816H113.761H113.706H113.652H113.597H113.542H113.488H113.433H113.379H113.324H113.27H113.215H113.161H113.107H113.053H112.999H112.944H112.89H112.836H112.782H112.728H112.674H112.621H112.567H112.513H112.459H112.406H112.352H112.298H112.245H112.191H112.138H112.084H112.031H111.977H111.924H111.871H111.817H111.764H111.711H111.658H111.605H111.551H111.498H111.445H111.392H111.339H111.286H111.234H111.181H111.128H111.075H111.022H110.97H110.917H110.864H110.811H110.759H110.706H110.654H110.601H110.549H110.496H110.444H110.391H110.339H110.287H110.234H110.182H110.13H110.077H110.025H109.973H109.921H109.869H109.816H109.764H109.712H109.66H109.608H109.556H109.504H109.452H109.4H109.348H109.296H109.244H109.192H109.141H109.089H109.037H108.985H108.933H108.881H108.83H108.778H108.726H108.675H108.623H108.571H108.52H108.468H108.416H108.365H108.313H108.261H108.21H108.158H108.107H108.055H108.004H107.952H107.901H107.849H107.798H107.746H107.695H107.643H107.592H107.54H107.489H107.437H107.386H107.335H107.283H107.232H107.18H107.129H107.078H107.026H106.975H106.924H106.872H106.821H106.77H106.718H106.667H106.615H106.564H106.513H106.461H106.41H106.359H106.307H106.256H106.205H106.153H106.102H106.051H105.999H105.948H105.897H105.845H105.794H105.743H105.691H105.64H105.589H105.537H105.486H105.434H105.383H105.332H105.28H105.229H105.177H105.126H105.075H105.023H104.972H104.92H104.869H104.817H104.766H104.714H104.663H104.611H104.56H104.508H104.457H104.405H104.353H104.302H104.25H104.199H104.147H104.095H104.044H103.992H103.94H103.889H103.837H103.785H103.733H103.682H103.63H103.578H103.526H103.474H103.423H103.371H103.319H103.267H103.215H103.163H103.111H103.059H103.007H102.955H102.903H102.851H102.799H102.746H102.694H102.642H102.59H102.538H102.485H102.433H102.381H102.328H102.276H102.224H102.171H102.119H102.066H102.014H101.961H101.909H101.856H101.804H101.751H101.698H101.646H101.593H101.54H101.487H101.434H101.382H101.329H101.276H101.223H101.17H101.117H101.064H101.011H100.957H100.904H100.851H100.798H100.745H100.691H100.638H100.584H100.531H100.478H100.424H100.371H100.317H100.263H100.21H100.156H100.102H100.048H99.9946H99.9408H99.8869H99.8329H99.7789H99.7249H99.6708H99.6167H99.5626H99.5084H99.4541H99.3998H99.3455H99.2911H99.2367H99.1822H99.1277H99.0731H99.0185H98.9638H98.9091H98.8543H98.7995H98.7447H98.6898H98.6348H98.5798H98.5247H98.4696H98.4145H98.3593H98.304H98.2487H98.1933H98.1379H98.0824H98.0269H97.9713H97.9157H97.86H97.8042H97.7484H97.6926H97.6367H97.5807H97.5247H97.4686H97.4125H97.3563H97.3H97.2437H97.1874H97.1309H97.0745H97.0179H96.9613H96.9046H96.8479H96.7911H96.7343H96.6774H96.6204H96.5634H96.5063H96.4491H96.3919H96.3346H96.2772H96.2198H96.1623H96.1048H96.0472H95.9895H95.9318H95.874H95.8161H95.7582H95.7001H95.6421H95.5839H95.5257H95.4674H95.4091H95.3507H95.2922H95.2336H95.175H95.1163H95.0575H94.9987H94.9397H94.8807H94.8217H94.7626H94.7033H94.6441H94.5847H94.5253H94.4658H94.4062H94.3465H94.2868H94.227H94.1671H94.1072H94.0471H93.987H93.9268H93.8666H93.8062H93.7458H93.6853H93.6247H93.564H93.5033H93.4425H93.3816H93.3206H93.2595H93.1984H93.1371H93.0758H93.0144C91.9378 386.558 91.2103 385.458 91.631 384.47L93.3634 380.401Z" stroke="#272742"/>
<path d="M172.521 349.059C172.662 348.658 173.04 348.389 173.465 348.389L196.9 348.389C197.588 348.389 198.071 349.069 197.843 349.72L196.19 354.444C196.049 354.845 195.671 355.114 195.246 355.114H171.812C171.123 355.114 170.64 354.434 170.868 353.783L172.521 349.059Z" fill="#272742"/>
<path d="M79.8987 360.832H116.884" stroke="#272742" stroke-linecap="round" stroke-linejoin="round"/>
<path d="M77.8816 366.884H129.661" stroke="#272742" stroke-linecap="round" stroke-linejoin="round"/>
<path d="M81.767 387.298C84.771 384.548 85.3353 380.275 83.0274 377.754C80.7194 375.233 76.4132 375.42 73.4091 378.171C70.405 380.921 69.8407 385.195 72.1487 387.715C74.4566 390.236 78.7629 390.049 81.767 387.298Z" fill="white" stroke="#272742" stroke-miterlimit="10" stroke-linecap="round" stroke-linejoin="round"/>
<path d="M78.7656 381.553C79.4652 380.912 79.597 379.918 79.0601 379.331C78.5231 378.745 77.5207 378.789 76.8211 379.429C76.1216 380.07 75.9897 381.065 76.5267 381.651C77.0636 382.238 78.066 382.194 78.7656 381.553Z" fill="#272742"/>
<path d="M80.4208 386.022C80.4966 384.228 79.36 382.89 77.5666 382.89C75.7733 382.89 73.9294 384.228 73.0454 386.022H80.4208Z" fill="#272742"/>
<path d="M115.403 38.5792C115.728 37.5653 116.671 36.8774 117.735 36.8774H204.662C206.322 36.8774 207.501 38.4937 206.995 40.0745L202.441 54.2811C202.116 55.295 201.173 55.9829 200.109 55.9829H113.182C111.522 55.9829 110.343 54.3666 110.849 52.7858L115.403 38.5792Z" fill="#272742"/>
<path d="M112.38 28.9394C112.637 28.1297 113.389 27.5796 114.238 27.5796H202.578C203.911 27.5796 204.85 28.8875 204.425 30.1508L197.501 50.7259C197.234 51.5192 196.49 52.0535 195.653 52.0535H107.71C106.391 52.0535 105.453 50.7714 105.852 49.5145L112.38 28.9394Z" fill="white" stroke="#272742"/>
<path fill-rule="evenodd" clip-rule="evenodd" d="M124.188 38.0066C124.38 37.1677 124.22 36.4883 123.834 36.0442C123.448 35.6002 122.798 35.3474 121.94 35.4211C121.084 35.4947 120.098 35.8968 119.225 36.6558C118.352 37.4148 117.816 38.3349 117.624 39.1727C117.432 40.0116 117.591 40.6911 117.977 41.1351C118.363 41.5792 119.014 41.8319 119.871 41.7582C120.728 41.6847 121.713 41.2825 122.587 40.5236C123.46 39.7646 123.995 38.8444 124.188 38.0066ZM123.229 41.263C125.255 39.5022 125.857 36.8779 124.574 35.4015C123.29 33.925 120.608 34.1555 118.582 35.9163C116.556 37.6771 115.954 40.3014 117.238 41.7779C118.521 43.2543 121.204 43.0238 123.229 41.263Z" fill="#272742"/>
<path fill-rule="evenodd" clip-rule="evenodd" d="M122.203 40.8872C122.424 40.7299 122.73 40.7809 122.887 41.0011L125.336 44.4303C125.494 44.6504 125.443 44.9564 125.222 45.1136C125.002 45.2709 124.696 45.2199 124.539 44.9997L122.09 41.5706C121.932 41.3504 121.983 41.0444 122.203 40.8872Z" fill="#272742"/>
<path d="M137.674 33.938L133.755 46.1851" stroke="#272742" stroke-linecap="round"/>
<path d="M150.672 352.101C150.957 351.211 151.785 350.607 152.72 350.607H229.049C230.506 350.607 231.542 352.026 231.097 353.414L227.099 365.889C226.813 366.779 225.985 367.383 225.05 367.383H148.722C147.264 367.383 146.229 365.964 146.674 364.576L150.672 352.101Z" fill="#272742"/>
<path d="M148.076 343.655C148.293 342.969 148.93 342.503 149.649 342.503H227.218C228.347 342.503 229.143 343.611 228.783 344.681L222.703 362.747C222.476 363.419 221.847 363.871 221.138 363.871H143.916C142.8 363.871 142.005 362.786 142.343 361.721L148.076 343.655Z" fill="white" stroke="#272742"/>
<path fill-rule="evenodd" clip-rule="evenodd" d="M158.385 351.598C158.554 350.861 158.414 350.265 158.075 349.875C157.736 349.485 157.165 349.263 156.412 349.328C155.66 349.392 154.794 349.745 154.027 350.412C153.261 351.078 152.79 351.886 152.622 352.622C152.453 353.359 152.593 353.955 152.932 354.345C153.271 354.735 153.842 354.957 154.595 354.892C155.347 354.828 156.213 354.475 156.979 353.808C157.746 353.142 158.216 352.334 158.385 351.598ZM157.544 354.457C159.322 352.911 159.851 350.607 158.724 349.31C157.597 348.014 155.242 348.216 153.463 349.763C151.684 351.309 151.156 353.613 152.283 354.909C153.409 356.206 155.765 356.003 157.544 354.457Z" fill="#272742"/>
<path fill-rule="evenodd" clip-rule="evenodd" d="M156.643 354.128C156.836 353.99 157.105 354.035 157.243 354.228L159.394 357.239C159.532 357.432 159.487 357.701 159.294 357.839C159.1 357.977 158.832 357.932 158.694 357.739L156.543 354.728C156.405 354.535 156.449 354.266 156.643 354.128Z" fill="#272742"/>
<path d="M170.228 348.026L166.787 358.78" stroke="#272742" stroke-linecap="round"/>
<mask id="path-52-inside-1_40_9751" fill="white">
<path d="M15.9999 232.419C16.6539 230.334 18.5858 228.916 20.7707 228.916H148.366C151.742 228.916 154.147 232.191 153.137 235.412L139.175 279.916C138.521 282.001 136.589 283.419 134.404 283.419H6.80888C3.43335 283.419 1.02773 280.143 2.03815 276.923L15.9999 232.419Z"/>
</mask>
<path d="M15.9999 232.419C16.6539 230.334 18.5858 228.916 20.7707 228.916H148.366C151.742 228.916 154.147 232.191 153.137 235.412L139.175 279.916C138.521 282.001 136.589 283.419 134.404 283.419H6.80888C3.43335 283.419 1.02773 280.143 2.03815 276.923L15.9999 232.419Z" fill="white"/>
<path d="M2.03815 276.923L1.084 276.623L2.03815 276.923ZM139.175 279.916L140.129 280.215L139.175 279.916ZM153.137 235.412L154.091 235.712L153.137 235.412ZM15.9999 232.419L15.0458 232.12L15.9999 232.419ZM20.7707 229.916H148.366V227.916H20.7707V229.916ZM152.183 235.113L138.221 279.617L140.129 280.215L154.091 235.712L152.183 235.113ZM134.404 282.419H6.80888V284.419H134.404V282.419ZM2.9923 277.222L16.9541 232.718L15.0458 232.12L1.084 276.623L2.9923 277.222ZM6.80888 282.419C4.10846 282.419 2.18396 279.798 2.9923 277.222L1.084 276.623C-0.1285 280.488 2.75824 284.419 6.80888 284.419V282.419ZM138.221 279.617C137.698 281.284 136.152 282.419 134.404 282.419V284.419C137.026 284.419 139.345 282.717 140.129 280.215L138.221 279.617ZM148.366 229.916C151.067 229.916 152.991 232.536 152.183 235.113L154.091 235.712C155.304 231.847 152.417 227.916 148.366 227.916V229.916ZM20.7707 227.916C18.1488 227.916 15.8306 229.618 15.0458 232.12L16.9541 232.718C17.4773 231.05 19.0228 229.916 20.7707 229.916V227.916Z" fill="#272742" mask="url(#path-52-inside-1_40_9751)"/>
<path d="M46.6912 265.291C54.0154 258.585 55.3913 248.166 49.7642 242.021C44.1371 235.875 33.638 236.33 26.3137 243.037C18.9895 249.743 17.6136 260.162 23.2407 266.307C28.8678 272.453 39.3669 271.998 46.6912 265.291Z" fill="white" stroke="#272742" stroke-miterlimit="10" stroke-linecap="round" stroke-linejoin="round"/>
<path d="M39.3736 251.284C41.0793 249.722 41.4007 247.297 40.0916 245.867C38.7824 244.437 36.3384 244.544 34.6328 246.106C32.9271 247.668 32.6057 250.093 33.9148 251.523C35.224 252.953 37.668 252.846 39.3736 251.284Z" fill="#272742"/>
<path d="M43.4088 262.179C43.5935 257.807 40.8224 254.543 36.45 254.543C32.0777 254.543 27.5821 257.807 25.4268 262.179H43.4088Z" fill="#272742"/>
<path d="M64.7632 249.435H121.832" stroke="#272742"/>
<path d="M60.9158 257.129H118.626" stroke="#272742"/>
<path d="M91.4897 264.848C91.7799 264.063 92.5285 263.542 93.3658 263.542H121.526C122.918 263.542 123.885 264.929 123.402 266.235L122.037 269.929C121.747 270.715 120.998 271.236 120.161 271.236H92.0009C90.6086 271.236 89.6423 269.849 90.1248 268.543L91.4897 264.848Z" fill="#89FFB8"/>
<mask id="path-60-inside-2_40_9751" fill="white">
<path d="M110.198 124.74C110.855 122.66 112.785 121.245 114.967 121.245H228.24C231.619 121.245 234.025 124.527 233.008 127.749L218.824 172.712C218.168 174.792 216.238 176.207 214.056 176.207H100.782C97.4035 176.207 94.9975 172.925 96.014 169.703L110.198 124.74Z"/>
</mask>
<path d="M110.198 124.74C110.855 122.66 112.785 121.245 114.967 121.245H228.24C231.619 121.245 234.025 124.527 233.008 127.749L218.824 172.712C218.168 174.792 216.238 176.207 214.056 176.207H100.782C97.4035 176.207 94.9975 172.925 96.014 169.703L110.198 124.74Z" fill="white"/>
<path d="M218.824 172.712L217.871 172.411L218.824 172.712ZM233.008 127.749L232.055 127.448L233.008 127.749ZM114.967 122.245H228.24V120.245H114.967V122.245ZM232.055 127.448L217.871 172.411L219.778 173.012L233.962 128.05L232.055 127.448ZM214.056 175.207H100.782V177.207H214.056V175.207ZM96.9677 170.004L111.152 125.041L109.245 124.44L95.0604 169.402L96.9677 170.004ZM100.782 175.207C98.0793 175.207 96.1545 172.582 96.9677 170.004L95.0604 169.402C93.8405 173.269 96.7278 177.207 100.782 177.207V175.207ZM217.871 172.411C217.345 174.075 215.801 175.207 214.056 175.207V177.207C216.674 177.207 218.99 175.509 219.778 173.012L217.871 172.411ZM228.24 122.245C230.943 122.245 232.868 124.87 232.055 127.448L233.962 128.05C235.182 124.183 232.295 120.245 228.24 120.245V122.245ZM114.967 120.245C112.348 120.245 110.032 121.942 109.245 124.44L111.152 125.041C111.677 123.377 113.221 122.245 114.967 122.245V120.245Z" fill="#272742" mask="url(#path-60-inside-2_40_9751)"/>
<path d="M122.637 139.48C130.492 132.288 131.967 121.116 125.933 114.526C119.899 107.936 108.64 108.424 100.786 115.616C92.9319 122.808 91.4566 133.98 97.4907 140.57C103.525 147.16 114.783 146.672 122.637 139.48Z" fill="white" stroke="#272742" stroke-miterlimit="10" stroke-linecap="round" stroke-linejoin="round"/>
<path d="M114.791 124.459C116.62 122.784 116.965 120.184 115.561 118.651C114.157 117.117 111.537 117.232 109.708 118.907C107.878 120.582 107.534 123.182 108.938 124.715C110.341 126.249 112.962 126.134 114.791 124.459Z" fill="#272742"/>
<path d="M119.118 136.143C119.316 131.454 116.344 127.954 111.656 127.954C106.967 127.954 102.146 131.454 99.835 136.143H119.118Z" fill="#272742"/>
<path d="M133.338 146.675H185.019" stroke="#272742" stroke-linecap="round"/>
<path d="M137.748 131.753C137.964 131.161 138.527 130.768 139.157 130.768H210.05C211.092 130.768 211.817 131.805 211.459 132.783L209.322 138.627C209.105 139.219 208.543 139.612 207.913 139.612H137.02C135.978 139.612 135.253 138.576 135.611 137.597L137.748 131.753Z" stroke="black"/>
<path d="M137.748 131.753C137.964 131.161 138.527 130.768 139.157 130.768H210.05C211.092 130.768 211.817 131.805 211.459 132.783L209.322 138.627C209.105 139.219 208.543 139.612 207.913 139.612H137.02C135.978 139.612 135.253 138.576 135.611 137.597L137.748 131.753Z" stroke="#272742"/>
<path d="M141.198 160.765C141.697 159.374 143.015 158.446 144.493 158.446H245.033C247.456 158.446 249.145 160.847 248.328 163.127L240.837 184.023C240.339 185.414 239.02 186.342 237.543 186.342H137.002C134.58 186.342 132.89 183.941 133.708 181.66L141.198 160.765Z" fill="white" stroke="#272742"/>
<path fill-rule="evenodd" clip-rule="evenodd" d="M160.531 165.034L157.753 169.301H154.751L154.335 170.518V170.581H156.919L154.558 174.208H151.514L151.077 175.488H153.724L150.946 179.754H152.51L155.289 175.488H159.24L156.462 179.754H158.026L160.805 175.488H163.875L164.313 174.208H161.638L164 170.581H167.409L167.847 169.301H164.833L167.604 165.047L167.583 165.034H166.048L163.269 169.301H159.317L162.088 165.047L162.067 165.034H160.531ZM158.484 170.581L156.122 174.208H160.074L162.436 170.581H158.484Z" fill="#272742"/>
<path d="M178.102 166.144C178.327 165.481 178.95 165.034 179.651 165.034H228.535C229.655 165.034 230.444 166.135 230.084 167.195L226.015 179.19C225.789 179.853 225.167 180.3 224.466 180.3H175.581C174.461 180.3 173.673 179.199 174.033 178.139L178.102 166.144Z" fill="#FFD94E"/>
<path d="M182.295 172.394H221.276" stroke="#272742" stroke-linecap="round"/>
<path d="M109.448 222.318C110.033 220.437 111.774 219.156 113.745 219.156H163.13C166.164 219.156 168.329 222.096 167.427 224.993L164.353 234.871C163.767 236.752 162.026 238.034 160.056 238.034H110.67C107.637 238.034 105.472 235.093 106.374 232.196L109.448 222.318Z" fill="white" stroke="#272742"/>
<path d="M131.971 227.477L134.376 231.538L144.083 224.06" stroke="#272742" stroke-miterlimit="10" stroke-linecap="round" stroke-linejoin="round"/>
<mask id="path-73-inside-3_40_9751" fill="white">
<path d="M12.6895 100.141C13.3518 98.0699 15.2772 96.6641 17.4521 96.6641H61.7625C65.1494 96.6641 67.5564 99.9606 66.525 103.187L61.0505 120.31C60.3882 122.382 58.4628 123.788 56.288 123.788H11.9775C8.59057 123.788 6.18357 120.491 7.21497 117.265L12.6895 100.141Z"/>
</mask>
<path d="M12.6895 100.141C13.3518 98.0699 15.2772 96.6641 17.4521 96.6641H61.7625C65.1494 96.6641 67.5564 99.9606 66.525 103.187L61.0505 120.31C60.3882 122.382 58.4628 123.788 56.288 123.788H11.9775C8.59057 123.788 6.18357 120.491 7.21497 117.265L12.6895 100.141Z" fill="white"/>
<path d="M7.21497 117.265L6.26247 116.961L7.21497 117.265ZM61.0505 120.31L60.098 120.006L61.0505 120.31ZM66.525 103.187L67.4775 103.491L66.525 103.187ZM17.4521 97.6641H61.7625V95.6641H17.4521V97.6641ZM65.5725 102.882L60.098 120.006L62.003 120.615L67.4775 103.491L65.5725 102.882ZM56.288 122.788H11.9775V124.788H56.288V122.788ZM8.16748 117.57L13.642 100.446L11.737 99.8369L6.26247 116.961L8.16748 117.57ZM11.9775 122.788C9.26795 122.788 7.34236 120.15 8.16748 117.57L6.26247 116.961C5.02479 120.832 7.91318 124.788 11.9775 124.788V122.788ZM60.098 120.006C59.5682 121.663 58.0278 122.788 56.288 122.788V124.788C58.8978 124.788 61.2082 123.101 62.003 120.615L60.098 120.006ZM61.7625 97.6641C64.4721 97.6641 66.3977 100.301 65.5725 102.882L67.4775 103.491C68.7152 99.6199 65.8268 95.6641 61.7625 95.6641V97.6641ZM17.4521 95.6641C14.8423 95.6641 12.5318 97.3511 11.737 99.8369L13.642 100.446C14.1719 98.7887 15.7122 97.6641 17.4521 97.6641V95.6641Z" fill="#272742" mask="url(#path-73-inside-3_40_9751)"/>
<path d="M53.2657 93.2702C53.9107 91.1713 55.8495 89.7388 58.0452 89.7388H73.3853C76.7485 89.7388 79.1526 92.9925 78.1648 96.2074L74.1445 109.291C73.4995 111.39 71.5607 112.823 69.365 112.823H54.0249C50.6617 112.823 48.2576 109.569 49.2454 106.354L53.2657 93.2702Z" fill="#9C4FFF"/>
<path d="M17.1206 107.052H43.6671" stroke="#272742" stroke-linecap="round"/>
<path d="M15.3892 112.951H28.0853" stroke="#272742" stroke-linecap="round"/>
<path d="M60.8611 107.393C58.8292 107.393 57.4048 106.792 56.5881 105.589C55.7841 104.386 55.6965 102.88 56.3253 101.07C56.7937 99.7217 57.5693 98.5069 58.6522 97.4257C59.735 96.3446 60.9436 95.5124 62.2778 94.9293C63.6249 94.3462 64.9607 94.0547 66.2853 94.0547C68.1628 94.0547 69.5332 94.5892 70.3964 95.6582C71.2767 96.7151 71.4194 98.0999 70.8244 99.8128C70.3138 101.283 69.5912 102.4 68.6566 103.166C67.7221 103.931 66.7918 104.314 65.8659 104.314C64.7985 104.314 64.2584 103.925 64.2456 103.147C63.9002 103.475 63.4451 103.749 62.8805 103.967C62.3287 104.186 61.8149 104.295 61.3391 104.295C60.5161 104.295 59.9123 104.016 59.5277 103.457C59.1602 102.886 59.1452 102.115 59.4828 101.143C59.8795 100.001 60.588 99.0535 61.6083 98.3004C62.6416 97.5472 63.6983 97.1706 64.7785 97.1706C65.3572 97.1706 65.7995 97.3043 66.1053 97.5715C66.424 97.8388 66.5843 98.1546 66.5863 98.519L67.2292 97.3346H68.5602L66.0576 101.763C65.8026 102.163 65.6781 102.504 65.6839 102.783C65.6897 103.062 65.8984 103.202 66.3099 103.202C66.94 103.202 67.5343 102.917 68.0927 102.346C68.6682 101.763 69.1522 100.906 69.5446 99.7763C70.0214 98.4036 69.9124 97.2921 69.2176 96.4418C68.5356 95.5914 67.4231 95.1662 65.8799 95.1662C64.1824 95.1662 62.5308 95.719 60.9251 96.8244C59.3236 97.9177 58.2211 99.3329 57.6177 101.07C57.0776 102.625 57.1295 103.882 57.7735 104.842C58.4303 105.802 59.5882 106.282 61.2472 106.282C62.5975 106.282 63.8778 106.039 65.0883 105.553L64.6642 106.774C63.4019 107.187 62.1342 107.393 60.8611 107.393ZM61.8988 103.184C62.529 103.184 63.1537 102.977 63.773 102.564C64.4051 102.151 64.8952 101.629 65.2432 100.997C65.6634 100.232 65.7906 99.5881 65.6248 99.0657C65.4591 98.5433 65.0418 98.2822 64.3731 98.2822C63.7558 98.2822 63.1226 98.4947 62.4734 98.9199C61.8283 99.333 61.3468 99.8492 61.0287 100.469C60.6085 101.234 60.4813 101.878 60.6471 102.4C60.8129 102.923 61.2301 103.184 61.8988 103.184Z" fill="white"/>
<circle r="11.3626" transform="matrix(1 0 0 -1 48.3067 170.244)" stroke="#9C4FFF"/>
<circle r="3.34732" transform="matrix(1 0 0 -1 29.3905 151.328)" fill="#9C4FFF" stroke="#9C4FFF"/>
<circle r="2.38549" transform="matrix(1 0 0 -1 132.948 2.88551)" stroke="#9C4FFF"/>
</svg>
