<svg width="161" height="101" viewBox="0 0 161 101" fill="none" xmlns="http://www.w3.org/2000/svg">
<path d="M130.119 84.967C129.605 86.6488 128.053 87.7974 126.294 87.7974H30.7155C28.0272 87.7974 26.1042 85.1986 26.8903 82.6278L39.4319 41.6116C39.9461 39.9299 41.4984 38.7812 43.257 38.7812H138.836C141.524 38.7812 143.447 41.3801 142.661 43.9509L130.119 84.967Z" fill="#272742"/>
<path d="M114.035 71.4713H10.0913L25.0791 22.4551H129.023L114.035 71.4713Z" stroke="#272742" stroke-linecap="round" stroke-dasharray="8 5"/>
<path d="M121.309 70.7822L120.503 73.4128H117.771" stroke="#E5E8F0" stroke-miterlimit="10" stroke-linecap="round"/>
<path d="M127.05 79.5759C126.407 81.6781 124.467 83.1139 122.268 83.1139H28.7813C25.421 83.1139 23.0172 79.8653 23.9998 76.6518L35.9299 37.6356C36.5727 35.5334 38.5131 34.0977 40.7113 34.0977H134.198C137.559 34.0977 139.963 37.3462 138.98 40.5597L127.05 79.5759Z" fill="white" stroke="#27273C" stroke-miterlimit="10" stroke-linecap="round"/>
<path d="M94.462 56.1704H42.6129C42.4896 56.1698 42.3681 56.1399 42.2584 56.0832C42.1486 56.0265 42.0536 55.9446 41.9811 55.844C41.9086 55.7434 41.8606 55.627 41.841 55.5043C41.8214 55.3815 41.8308 55.2559 41.8683 55.1374L44.3412 47.5626C44.3929 47.4045 44.4927 47.2669 44.6263 47.1693C44.76 47.0716 44.9208 47.0189 45.0858 47.0186H96.9349C97.0583 47.0191 97.1797 47.049 97.2895 47.1057C97.3993 47.1624 97.4942 47.2444 97.5667 47.3449C97.6392 47.4455 97.6872 47.5619 97.7068 47.6846C97.7264 47.8074 97.7171 47.9331 97.6795 48.0515L95.1998 55.6264C95.1503 55.7844 95.0521 55.9224 94.9194 56.0203C94.7867 56.1181 94.6264 56.1707 94.462 56.1704Z" fill="#9C4FFF"/>
<path d="M39.436 64.0957H121.561" stroke="#27273C" stroke-miterlimit="10" stroke-linecap="round"/>
<path d="M53.5407 56.5257C52.8677 58.58 50.9508 59.9692 48.7891 59.9692H28.8486L37.334 34.0664H60.898L53.5407 56.5257Z" fill="#272742"/>
<path d="M50.8158 52.861C50.1723 54.9622 48.2324 56.3969 46.0349 56.3969H7.02653C3.66528 56.3969 1.26146 53.1467 2.2457 49.9328L13.1336 14.3797C13.7771 12.2785 15.717 10.8438 17.9144 10.8438H56.9228C60.2841 10.8438 62.6879 14.0939 61.7037 17.3078L50.8158 52.861Z" fill="white" stroke="#27273C" stroke-miterlimit="10" stroke-linecap="round"/>
<path d="M136.455 79.8024L122.792 99.8551C122.688 100.011 122.539 100.13 122.366 100.199C122.193 100.267 122.003 100.28 121.822 100.237C121.641 100.193 121.477 100.095 121.353 99.9558C121.228 99.8162 121.149 99.6418 121.125 99.4557L114.923 52.4572C114.901 52.2963 114.921 52.1325 114.982 51.9822C115.043 51.832 115.143 51.7006 115.27 51.6014C115.398 51.5022 115.549 51.4387 115.709 51.4173C115.868 51.3958 116.031 51.4172 116.179 51.4793L159.681 69.5281C159.854 69.5981 160.002 69.7197 160.105 69.8768C160.207 70.0338 160.26 70.2187 160.255 70.4067C160.251 70.5947 160.19 70.7768 160.08 70.9287C159.97 71.0806 159.816 71.195 159.64 71.2566L136.919 79.4305C136.727 79.4981 136.563 79.6292 136.455 79.8024Z" fill="white" stroke="#272740" stroke-miterlimit="10"/>
<path d="M37.019 71.2646H91.3206" stroke="#27273C" stroke-miterlimit="10" stroke-linecap="round"/>
<path d="M65.1499 21.3451C70.9982 16.1079 72.7825 8.23518 69.1353 3.76086C65.4881 -0.713455 57.7905 -0.0950063 51.9423 5.1422C46.094 10.3794 44.3097 18.2521 47.9569 22.7265C51.6041 27.2008 59.3017 26.5823 65.1499 21.3451Z" fill="#89FFB8" stroke="#272742" stroke-miterlimit="10"/>
<path d="M53.2939 10.1415L56.0344 17.5912L68.181 8.09375" stroke="#272742" stroke-linecap="round" stroke-linejoin="round"/>
<path d="M20.3632 21.5088C20.087 21.5088 19.8632 21.7326 19.8632 22.0088C19.8632 22.2849 20.087 22.5088 20.3632 22.5088V21.5088ZM40.0136 22.5088C40.2897 22.5088 40.5136 22.2849 40.5136 22.0088C40.5136 21.7326 40.2897 21.5088 40.0136 21.5088V22.5088ZM16.7904 32.6738C16.5143 32.6738 16.2904 32.8976 16.2904 33.1738C16.2904 33.4499 16.5143 33.6738 16.7904 33.6738V32.6738ZM36.4408 33.6738C36.7169 33.6738 36.9408 33.4499 36.9408 33.1738C36.9408 32.8976 36.7169 32.6738 36.4408 32.6738V33.6738ZM12.771 43.8388C12.4949 43.8388 12.271 44.0626 12.271 44.3388C12.271 44.6149 12.4949 44.8388 12.771 44.8388V43.8388ZM32.4214 44.8388C32.6975 44.8388 32.9214 44.6149 32.9214 44.3388C32.9214 44.0626 32.6975 43.8388 32.4214 43.8388V44.8388ZM20.3632 22.5088H40.0136V21.5088H20.3632V22.5088ZM16.7904 33.6738H36.4408V32.6738H16.7904V33.6738ZM12.771 44.8388H32.4214V43.8388H12.771V44.8388Z" fill="#272742"/>
</svg>
