<svg width="453" height="319" viewBox="0 0 453 319" fill="none" xmlns="http://www.w3.org/2000/svg">
<path d="M295.201 202.656H380.268C382.337 202.656 384.193 201.381 384.935 199.449L404.533 148.427C405.791 145.152 403.374 141.634 399.866 141.634H371.984" stroke="#272742"/>
<path d="M77.8534 102.839H48.3967C46.7978 102.839 45.3218 103.884 44.8299 105.422L1.16739 245.142C0.429428 247.541 2.21285 249.939 4.91869 249.939H89.9068" stroke="#272742" stroke-miterlimit="10"/>
<path d="M24.4389 176.389C27.5636 176.389 30.0967 173.856 30.0967 170.731C30.0967 167.606 27.5636 165.073 24.4389 165.073C21.3143 165.073 18.7812 167.606 18.7812 170.731C18.7812 173.856 21.3143 176.389 24.4389 176.389Z" fill="#272740"/>
<path d="M351.96 137.592C351.96 137.592 387.59 89.8757 357.458 74.0045C312.181 50.1461 255.39 129.399 255.598 88.8966C255.753 53.3925 309.276 19.5889 309.276 19.5889" stroke="#C4C4C4" stroke-linecap="round" stroke-linejoin="round" stroke-dasharray="7.96 7.96"/>
<path d="M101.618 318.33H325.865C327.77 318.33 329.491 317.1 330.106 315.256L354.203 241.06C355.125 238.171 353.035 235.282 349.961 235.282H125.714C123.809 235.282 122.088 236.512 121.473 238.356L97.3763 312.551C96.4542 315.379 98.6057 318.33 101.618 318.33Z" fill="#272740"/>
<path d="M81.7007 309.355H311.91C315.476 309.355 318.672 307.081 319.779 303.639L378.422 124.942C380.205 119.594 376.209 114.062 370.554 114.062H140.283C136.717 114.062 133.521 116.336 132.414 119.778L73.7709 298.475C72.0497 303.823 76.0453 309.355 81.7007 309.355Z" fill="white" stroke="#272740" stroke-miterlimit="10" stroke-linecap="round" stroke-linejoin="round"/>
<path d="M128.849 130.72H376.516C376.516 130.72 381.311 121.13 376.639 116.889C373.443 114.061 372.398 114.123 360.534 114.123C348.67 114.123 140.221 114.123 140.221 114.123C140.221 114.123 136.779 114 134.996 115.967C131.923 117.442 128.849 130.72 128.849 130.72Z" fill="#272740"/>
<path d="M175.198 238.725H127.25C124.792 238.725 123.009 236.266 123.808 233.931L144.093 173.197C144.585 171.722 145.999 170.677 147.536 170.677H195.483C197.942 170.677 199.725 173.136 198.926 175.472L178.64 236.205C178.149 237.742 176.735 238.725 175.198 238.725Z" fill="white" stroke="#282742" stroke-miterlimit="10" stroke-linecap="round"/>
<path d="M245.46 237.864H197.512C195.053 237.864 193.271 235.405 194.07 233.069L214.355 172.336C214.847 170.86 216.261 169.815 217.798 169.815H265.745C268.204 169.815 269.987 172.274 269.187 174.61L248.902 235.344C248.41 236.819 246.996 237.864 245.46 237.864Z" fill="#282742" stroke="#282742" stroke-miterlimit="10" stroke-linecap="round"/>
<path d="M241.77 233.992H193.822C191.363 233.992 189.581 231.533 190.38 229.197L210.665 168.464C211.157 166.988 212.571 165.943 214.108 165.943H262.055C264.514 165.943 266.297 168.402 265.498 170.738L245.212 231.472C244.72 233.008 243.306 233.992 241.77 233.992Z" fill="white" stroke="#282742" stroke-miterlimit="10" stroke-linecap="round"/>
<path d="M314.307 238.356H266.359C263.9 238.356 262.118 235.897 262.917 233.561L283.202 172.828C283.694 171.353 285.108 170.308 286.645 170.308H334.592C337.051 170.308 338.834 172.766 338.035 175.102L317.749 235.836C317.257 237.373 315.844 238.356 314.307 238.356Z" fill="white" stroke="#282742" stroke-miterlimit="10" stroke-linecap="round"/>
<path d="M129.773 267.618H207.903C209.193 267.618 210.423 266.573 210.915 265.466L213.066 258.766C213.374 257.598 212.759 256.614 211.591 256.614H133.461C132.17 256.614 130.941 257.659 130.449 258.766L128.297 265.466C127.99 266.573 128.666 267.618 129.773 267.618Z" fill="#FED852"/>
<path d="M276.75 277.514H124.67" stroke="#272742" stroke-miterlimit="10" stroke-linecap="round"/>
<path d="M273.368 288.394H120.367" stroke="#272742" stroke-miterlimit="10" stroke-linecap="round"/>
<path d="M213.188 185.306H229.416" stroke="#282742" stroke-miterlimit="10" stroke-linecap="round"/>
<path d="M53.9779 202.213H138.685C142.865 202.213 147.353 198.832 148.705 194.59L193.948 49.8255C195.239 45.6455 192.903 42.2031 188.723 42.2031H104.015C99.8354 42.2031 95.348 45.584 93.9956 49.8255L48.7528 194.59C47.4619 198.832 49.7978 202.213 53.9779 202.213Z" fill="white" stroke="#272742" stroke-miterlimit="10"/>
<path d="M129.465 49.7637H156.451" stroke="#272742" stroke-miterlimit="10" stroke-linecap="round"/>
<path d="M188.907 102.875H91.1681C88.7708 102.875 87.111 100.539 87.8487 98.2647L98.4832 66.2997C98.975 64.8859 100.266 63.9023 101.803 63.9023H199.542C201.939 63.9023 203.599 66.2382 202.861 68.5127L192.227 100.478C191.735 101.953 190.444 102.875 188.907 102.875Z" fill="white" stroke="#282742" stroke-miterlimit="10" stroke-linecap="round"/>
<path d="M51.8262 184.14H151.778" stroke="#272742" stroke-miterlimit="10" stroke-linecap="round"/>
<path d="M103.953 197.234H92.9501C90.3068 197.234 88.4627 194.713 89.2003 192.193C89.6921 190.533 91.2289 189.427 92.9501 189.427H103.953C106.597 189.427 108.441 191.947 107.703 194.467C107.15 196.066 105.675 197.234 103.953 197.234Z" fill="white" stroke="#272742" stroke-miterlimit="10" stroke-linecap="round"/>
<path d="M134.997 126.05H151.164C152.455 126.05 153.685 125.005 154.176 123.899L156.328 117.198C156.635 116.03 156.02 115.047 154.852 115.047H138.686C137.395 115.047 136.165 116.092 135.673 117.198L133.522 123.899C133.215 125.005 133.829 126.05 134.997 126.05Z" fill="#9C4FFF"/>
<path d="M146.614 84.8637H186.14C187.431 84.8637 188.66 83.8187 189.152 82.7122L191.303 76.0118C191.611 74.8439 190.996 73.8604 189.828 73.8604H150.302C149.011 73.8604 147.782 74.9054 147.29 76.0118L145.139 82.7122C144.77 83.8187 145.446 84.8637 146.614 84.8637Z" fill="#9C4FFF"/>
<path d="M128.727 145.598H144.894C146.185 145.598 147.414 144.553 147.906 143.447L150.057 136.746C150.365 135.578 149.75 134.595 148.582 134.595H132.415C131.124 134.595 129.895 135.64 129.403 136.746L127.251 143.447C126.944 144.553 127.559 145.598 128.727 145.598Z" fill="#9C4FFF"/>
<path d="M121.658 168.218H137.825C139.116 168.218 140.346 167.173 140.837 166.067L142.989 159.366C143.296 158.198 142.682 157.215 141.514 157.215H125.347C124.056 157.215 122.826 158.26 122.335 159.366L120.183 166.067C119.876 167.235 120.49 168.218 121.658 168.218Z" fill="#89FFB8"/>
<path d="M135.796 162.687H127.374" stroke="#272742" stroke-miterlimit="10" stroke-linecap="round"/>
<path d="M73.3404 168.219H109.424C111.022 168.219 112.436 167.174 112.928 165.638L126.943 119.719C127.681 117.383 125.898 114.985 123.439 114.985H87.3558C85.7576 114.985 84.3437 116.03 83.852 117.567L69.8365 163.486C69.1604 165.883 70.8816 168.219 73.3404 168.219Z" fill="white" stroke="#9C4FFF" stroke-miterlimit="10"/>
<path d="M448.311 84.6212H332.447C329.663 84.6212 326.734 86.8184 325.782 89.6747L304.982 144.97C304.103 147.68 305.568 150.024 308.424 150.024H424.288C427.071 150.024 430.001 147.826 430.953 144.97L451.753 89.6747C452.632 86.8184 451.094 84.6212 448.311 84.6212Z" fill="white" stroke="#272742" stroke-miterlimit="10" stroke-linecap="round" stroke-linejoin="round"/>
<path d="M414.841 114.137L388.328 114.21L367.968 128.858L358.08 124.83L341.895 133.545" stroke="#272742" stroke-miterlimit="10" stroke-linecap="round" stroke-linejoin="round"/>
<path d="M343.946 127.906L358.081 119.264L368.188 123.585L376.538 117.433L390.746 121.095L410.594 120.802" stroke="#FED852" stroke-linecap="round" stroke-linejoin="round"/>
<path d="M366.796 96.4122H430.074" stroke="#272742" stroke-miterlimit="10" stroke-linecap="round" stroke-linejoin="round"/>
<path d="M335.228 98.9755H359.251C359.69 98.9755 360.056 98.6825 360.203 98.3163L361.301 95.3867C361.594 94.7276 361.082 93.922 360.349 93.922H336.327C335.887 93.922 335.521 94.2149 335.375 94.5811L334.276 97.5107C333.983 98.1698 334.496 98.9755 335.228 98.9755Z" fill="#FED852"/>
<path d="M327.979 138.671H402.683" stroke="#272742" stroke-miterlimit="10" stroke-linecap="round"/>
<path d="M335.962 115.675H341.235" stroke="#272742" stroke-miterlimit="10" stroke-linecap="round"/>
<path d="M331.641 127.246H336.914" stroke="#272742" stroke-miterlimit="10" stroke-linecap="round"/>
<path d="M295.784 28.4165L302.853 14.0322L306.234 22.2079L295.784 31.9818V28.4165Z" fill="white" stroke="#272740" stroke-miterlimit="10" stroke-linecap="round" stroke-linejoin="round"/>
<path d="M284.226 15.7531L328.916 1L293.201 18.8881V18.9496L284.288 16.6751C283.796 16.5522 283.734 15.876 284.226 15.7531Z" fill="white" stroke="#272740" stroke-miterlimit="10" stroke-linecap="round" stroke-linejoin="round"/>
<path d="M328.855 1L301.07 20.9167L301.009 20.9781L295.784 31.9815L293.202 18.8881V18.8266L328.855 1Z" fill="white" stroke="#272740" stroke-miterlimit="10" stroke-linecap="round" stroke-linejoin="round"/>
<path d="M328.854 1L314.409 22.8837C313.917 23.6214 312.995 23.9902 312.134 23.7443L306.11 22.269L301.008 20.9167L328.854 1Z" fill="white" stroke="#272740" stroke-miterlimit="10" stroke-linecap="round" stroke-linejoin="round"/>
<path d="M120.275 90.2223C125.968 85.3869 127.75 78.1317 124.255 74.0174C120.76 69.903 113.313 70.4875 107.62 75.3229C101.927 80.1583 100.145 87.4135 103.64 91.5278C107.134 95.6421 114.582 95.0576 120.275 90.2223Z" stroke="#282742" stroke-miterlimit="10" stroke-linecap="round" stroke-linejoin="round"/>
<path d="M117.57 71.3174C124.191 71.3174 127.791 76.525 125.669 82.9106C124.191 87.1883 120.399 91.1561 115.771 93.14" stroke="#89FFB8" stroke-width="3" stroke-miterlimit="10" stroke-linecap="round" stroke-linejoin="round"/>
<path d="M108.497 82.6328H119.812" stroke="black" stroke-miterlimit="10" stroke-linecap="round" stroke-linejoin="round"/>
<path d="M393.806 182.45C396.931 182.45 399.464 179.917 399.464 176.792C399.464 173.668 396.931 171.135 393.806 171.135C390.681 171.135 388.148 173.668 388.148 176.792C388.148 179.917 390.681 182.45 393.806 182.45Z" fill="#272740"/>
<path d="M327.53 220.842C335.119 220.842 341.27 214.69 341.27 207.101C341.27 199.513 335.119 193.361 327.53 193.361C319.942 193.361 313.79 199.513 313.79 207.101C313.79 214.69 319.942 220.842 327.53 220.842Z" fill="#FFD94E"/>
<path d="M333.188 201.444L321.873 212.76" stroke="#282742" stroke-miterlimit="10" stroke-linecap="round"/>
<path d="M333.188 212.76L321.873 201.444" stroke="#282742" stroke-miterlimit="10" stroke-linecap="round"/>
</svg>
