<svg width="781" height="518" viewBox="0 0 781 518" fill="none" xmlns="http://www.w3.org/2000/svg">
<circle cx="729.109" cy="231.28" r="10.424" transform="rotate(66.6931 729.109 231.28)" fill="#9C4FFF"/>
<circle cx="308.737" cy="340.385" r="62.3353" transform="rotate(66.6931 308.737 340.385)" fill="#9C4FFF"/>
<circle cx="40.0978" cy="149.179" r="18.5925" transform="rotate(66.6931 40.0978 149.179)" fill="#FFD94E"/>
<circle cx="538.507" cy="29.3984" r="18.0925" transform="rotate(66.6931 538.507 29.3984)" stroke="#9C4FFF"/>
<circle cx="390.841" cy="381.508" r="6.68694" transform="rotate(66.6931 390.841 381.508)" fill="#272742"/>
<circle cx="561.609" cy="5.17947" r="3.44159" transform="rotate(66.6931 561.609 5.17947)" stroke="#9C4FFF"/>
<circle cx="6.39088" cy="177.632" r="4.36325" transform="rotate(66.6931 6.39088 177.632)" stroke="#272742"/>
<path d="M742.309 80.7667C781.3 172.752 617.189 194.734 641.314 231.899C655.416 253.623 672.006 244.06 705.875 259.01C739.743 273.96 729.743 304.558 701.46 330.35C659.896 368.253 621.037 382.586 599.215 388.114" stroke="#86869A" stroke-linecap="round" stroke-dasharray="8 8"/>
<path d="M492.734 110.444C493.313 108.552 495.059 107.26 497.038 107.26H609.314C612.339 107.26 614.502 110.184 613.618 113.076L596.095 170.382C595.516 172.274 593.77 173.566 591.791 173.566H479.515C476.49 173.566 474.327 170.642 475.211 167.75L492.734 110.444Z" fill="white" stroke="#272742"/>
<path d="M521.157 151.3C521.505 150.292 522.454 149.617 523.519 149.617H543.974C545.693 149.617 546.899 151.31 546.337 152.934L546.777 153.086L546.337 152.934L546.205 153.316C545.857 154.323 544.908 154.999 543.842 154.999H523.387C521.669 154.999 520.463 153.306 521.024 151.682L521.157 151.3Z" fill="#FFD94E" stroke="#272742"/>
<path d="M553.661 151.295C554.011 150.29 554.958 149.617 556.022 149.617H564.273C565.993 149.617 567.199 151.314 566.634 152.939L566.501 153.321C566.151 154.326 565.203 154.999 564.14 154.999H555.889C554.168 154.999 552.962 153.302 553.528 151.677L553.661 151.295Z" fill="white" stroke="#272742"/>
<path d="M430.96 308.719H397.465L381.134 256.172H414.629L430.96 308.719Z" stroke="#272742" stroke-miterlimit="10" stroke-linecap="round" stroke-linejoin="round"/>
<path d="M425.478 308.719H391.982L375.533 256.172H409.028L425.478 308.719Z" fill="white" stroke="#272742" stroke-miterlimit="10" stroke-linecap="round" stroke-linejoin="round"/>
<path d="M476.852 264.156H309.972C307.945 264.156 306.634 262.249 307.23 260.343L338.103 164.902C338.46 163.71 339.652 162.876 340.844 162.876H509.513L476.852 264.156Z" fill="white" stroke="#272742" stroke-miterlimit="10" stroke-linecap="round" stroke-linejoin="round"/>
<path d="M481.501 264.156H476.614L509.394 162.876H512.374C514.4 162.876 515.711 164.782 515.115 166.689L484.243 262.13C483.885 263.321 482.812 264.156 481.501 264.156Z" fill="#272742" stroke="#272742" stroke-miterlimit="10" stroke-linecap="round" stroke-linejoin="round"/>
<path d="M479.475 256.172H308.899" stroke="#272742" stroke-miterlimit="10" stroke-linecap="round" stroke-linejoin="round"/>
<path d="M459.211 192.306C459.803 192.306 460.283 191.826 460.283 191.234C460.283 190.642 459.803 190.162 459.211 190.162C458.618 190.162 458.138 190.642 458.138 191.234C458.138 191.826 458.618 192.306 459.211 192.306Z" fill="white"/>
<path d="M459.211 199.217C459.803 199.217 460.283 198.737 460.283 198.145C460.283 197.552 459.803 197.072 459.211 197.072C458.618 197.072 458.138 197.552 458.138 198.145C458.138 198.737 458.618 199.217 459.211 199.217Z" fill="white"/>
<path d="M451.462 199.217C452.054 199.217 452.535 198.737 452.535 198.145C452.535 197.552 452.054 197.072 451.462 197.072C450.869 197.072 450.389 197.552 450.389 198.145C450.389 198.737 450.869 199.217 451.462 199.217Z" fill="white"/>
<path d="M618.811 448.337C620.608 452.497 622.886 472.279 623.396 476.783C623.913 483.255 622.487 504.224 622.745 508.748C623.003 513.273 624.811 514.894 628.302 515.062C631.794 515.231 652.441 515.062 652.441 515.062C652.441 515.062 658.38 514.826 657.605 509.649C656.83 504.471 647.276 483.255 645.85 476.783C644.941 472.466 644.255 459.774 643.796 455.386L618.811 448.337Z" fill="white" stroke="#272742" stroke-miterlimit="10"/>
<path d="M652.441 515.052C652.441 515.052 631.783 515.22 628.302 515.052C624.822 514.883 623.003 513.285 622.745 508.749C623.257 509.468 623.946 510.042 624.744 510.417C625.543 510.791 626.424 510.953 627.303 510.887C630.739 510.887 635.162 506.205 640.08 506.385C644.997 506.565 647.018 508.827 650.094 510.403C653.406 512.091 657.28 510.538 657.369 508.569C657.471 508.938 657.55 509.314 657.605 509.694C658.38 514.827 652.441 515.052 652.441 515.052Z" fill="#272742" stroke="#272742" stroke-linecap="round" stroke-linejoin="round"/>
<path d="M622.745 504.531C623.258 505.25 623.947 505.824 624.745 506.199C625.543 506.573 626.425 506.735 627.304 506.669C630.739 506.669 635.163 501.987 640.08 502.167C644.998 502.347 647.018 504.61 650.095 506.185C653.407 507.874 655.883 505.366 655.883 505.366" stroke="#272742" stroke-linecap="round" stroke-linejoin="round"/>
<path d="M623.924 484.862C623.924 484.862 625.203 486.784 626.481 486.784C631.595 486.784 631.328 481.483 636.245 481.663C641.163 481.843 643.1 484.52 645.017 485.502C646.935 486.484 648.213 484.862 648.213 484.862" stroke="#272742" stroke-linecap="round" stroke-linejoin="round"/>
<path d="M575.901 455.385C574.197 463.074 575.901 478.395 564.396 486.783C552.891 495.171 581.654 502.162 581.654 502.162L600.19 487.424C600.19 487.424 596.966 477.718 596.44 471.404C595.858 464.422 597.633 453.463 597.633 453.463L575.901 455.385Z" fill="white" stroke="black"/>
<path d="M605.303 506.647C605.303 500.88 600.211 500.239 600.211 486.783V481.016C599.075 482.604 596.235 489.057 588.046 488.705C580.818 488.395 572.066 473.967 565.675 484.861C561.84 488.919 557.237 492.806 546.499 496.395C540.746 498.317 532.437 497.035 529.241 502.162C527.643 504.725 529.241 513.696 537.551 514.977C537.551 514.977 543.756 516.748 547.778 516.899C549.524 516.965 551.144 516.899 552.891 516.899C556.386 516.899 556.087 517.047 561.2 516.259C566.314 515.47 575.262 509.851 580.375 509.851C585.488 509.851 588.045 514.336 601.468 513.055C603.386 512.872 605.303 510.748 605.303 506.647Z" fill="white" stroke="#272742" stroke-linejoin="round"/>
<path d="M580.376 509.85C585.489 509.85 588.046 514.336 601.469 513.054C597.634 511.986 586.768 511.563 583.572 505.365C582.912 504.083 582.422 503.571 580.376 504.083C570.789 508.569 563.758 518.18 537.552 514.977C537.552 514.977 543.757 516.747 547.779 516.899C549.525 516.965 551.145 516.899 552.892 516.899C556.387 516.899 556.088 517.047 561.201 516.258C566.315 515.469 575.262 509.85 580.376 509.85Z" fill="#272742" stroke="#272742" stroke-linejoin="round"/>
<path d="M529.881 509.21C545.861 511.773 554.809 513.696 573.345 502.162C581.015 497.035 582.675 498.188 584.211 498.958C589.324 501.521 587.407 507.929 604.664 509.21" stroke="#272742"/>
<path d="M569.018 290.752C569.018 290.752 568.771 351.182 567.491 391.094C566.211 431.005 568.254 465.379 568.254 465.379H604.114C604.114 465.379 614.622 383.057 616.856 346.207C619.091 309.357 620.034 290.741 620.034 290.741L569.018 290.752Z" fill="white" stroke="#272742" stroke-linecap="round" stroke-linejoin="round"/>
<path d="M600.565 314.974C600.565 314.974 609.21 423.464 614.621 465.39H649.335V290.752L611.466 281.253L600.565 314.974Z" fill="white"/>
<path d="M600.565 314.974C600.565 314.974 609.21 423.464 614.621 465.39H649.335V290.752" stroke="#272742" stroke-linecap="round" stroke-linejoin="round"/>
<path d="M592.484 297.291C592.686 301.129 593.057 304.955 593.607 308.771C593.742 309.716 594.157 310.921 595.111 310.921" stroke="#272742" stroke-linecap="round" stroke-linejoin="round"/>
<path d="M649.683 350.855L649.335 465.39" stroke="#272742" stroke-linecap="round" stroke-linejoin="round"/>
<path d="M620.729 306.085C624.564 317.619 638.199 320.182 640.543 318.259" stroke="#272742" stroke-linecap="round" stroke-linejoin="round"/>
<path d="M645.179 321.593H645.291C644.85 316.271 645.065 310.914 645.931 305.645C647.054 300.017 663.019 307.355 663.019 307.355C663.019 307.355 662.805 317.091 662.143 322.224C662.146 322.276 662.146 322.329 662.143 322.381C662.279 324.01 662.189 325.651 661.873 327.255C661.368 328.999 661.189 336.158 660.571 337.914C659.954 339.669 658.079 339.456 657.719 337.126C657.71 337.808 657.658 338.488 657.562 339.163C657.057 342.213 655.878 342.191 655.137 342.461C655.097 342.469 655.054 342.465 655.016 342.449C654.978 342.433 654.946 342.406 654.924 342.371C654.924 342.697 654.834 343.035 654.767 343.395C654.43 345.173 651.87 346.265 651.163 343.125C651.163 342.911 651.039 342.551 650.949 342.078C650.949 343.744 650.534 344.712 649.4 344.329C647.761 343.778 646.47 339.017 645.549 333.198C645 329.355 644.875 325.463 645.179 321.593Z" fill="white"/>
<path d="M645.179 321.593H645.291C644.85 316.271 645.065 310.914 645.931 305.645C647.054 300.017 663.019 307.355 663.019 307.355C663.019 307.355 662.805 317.091 662.143 322.224C662.146 322.276 662.146 322.329 662.143 322.381C662.279 324.01 662.189 325.651 661.873 327.255C661.368 328.999 661.189 336.158 660.571 337.914C659.954 339.669 658.079 339.456 657.719 337.126C657.71 337.808 657.658 338.488 657.562 339.163C657.057 342.213 655.878 342.191 655.137 342.461C655.097 342.469 655.054 342.465 655.016 342.449C654.978 342.433 654.946 342.406 654.924 342.371C654.924 342.697 654.834 343.035 654.767 343.395C654.43 345.173 651.87 346.265 651.163 343.125C651.163 342.911 651.039 342.551 650.949 342.078C650.949 343.744 650.534 344.712 649.4 344.329C647.761 343.778 646.47 339.017 645.549 333.198C645 329.355 644.875 325.463 645.179 321.593Z" stroke="#272742" stroke-linecap="round" stroke-linejoin="round"/>
<path d="M651.059 342.979C650.666 341.2 648.454 329.743 649.105 323.44" stroke="#272742" stroke-linecap="round" stroke-linejoin="round"/>
<path d="M655.037 342.303C654.296 342.585 653.78 337.34 653.117 329.708C652.878 327.513 652.878 325.297 653.117 323.102" stroke="#272742" stroke-linecap="round" stroke-linejoin="round"/>
<path d="M657.285 323.09C657.285 323.09 657.97 335.752 657.656 338.847" stroke="#272742" stroke-linecap="round" stroke-linejoin="round"/>
<path d="M598.074 151.786V160.017C598.264 161.751 599.083 163.354 600.374 164.522C601.666 165.69 603.341 166.342 605.08 166.354C611.603 166.736 616.229 160.951 616.846 157.35V135.48L598.074 151.786Z" fill="white" stroke="#272742" stroke-linecap="round" stroke-linejoin="round"/>
<path d="M598.074 154.753C598.074 154.753 609.302 154.438 613.422 141.449L600.14 146.064L598.074 150.566V154.753Z" fill="#272742" stroke="#272742" stroke-linecap="round" stroke-linejoin="round"/>
<path d="M589.375 123.431C589.375 123.431 588.651 134.422 590.625 141.602C592.598 148.781 596.25 153.607 602.071 152.434C609.19 151 614.53 144.305 616.211 140.156C618.75 134.709 619.732 122.67 618.706 118.468C617.68 114.265 612.865 108.791 603.843 109.958C594.821 111.124 590.604 116.542 589.375 123.431Z" fill="white" stroke="#272742" stroke-linecap="round" stroke-linejoin="round"/>
<path d="M604.925 136.141C604.423 136.114 604.073 135.021 604.143 133.698C604.213 132.376 604.676 131.326 605.178 131.353C605.679 131.379 606.029 132.473 605.959 133.795C605.89 135.117 605.426 136.167 604.925 136.141Z" fill="#272742" stroke="#272742" stroke-linecap="round" stroke-linejoin="round"/>
<path d="M594.784 135.658C594.283 135.632 593.933 134.538 594.003 133.216C594.072 131.894 594.536 130.844 595.037 130.87C595.539 130.897 595.889 131.99 595.819 133.313C595.749 134.635 595.286 135.685 594.784 135.658Z" fill="#272742" stroke="#272742" stroke-linecap="round" stroke-linejoin="round"/>
<path d="M599.064 134.69C598.923 135.793 598.512 136.844 597.868 137.749C596.993 138.773 597.765 139.705 599.761 139.371" stroke="#272742" stroke-linecap="round" stroke-linejoin="round"/>
<path d="M600.437 142.968C601.254 142.918 602.051 142.693 602.773 142.307C603.496 141.921 604.127 141.385 604.625 140.733" stroke="#272742" stroke-linecap="round" stroke-linejoin="round"/>
<path d="M613.842 130.977C613.842 130.977 615.148 125.411 619.139 125.848C622.489 126.263 623.636 129.885 622.577 133.12C621.518 136.355 618.212 139.121 615.909 138.244" fill="white"/>
<path d="M613.842 130.977C613.842 130.977 615.148 125.411 619.139 125.848C622.489 126.263 623.636 129.885 622.577 133.12C621.518 136.355 618.212 139.121 615.909 138.244" stroke="#272742" stroke-linecap="round" stroke-linejoin="round"/>
<path d="M619.767 130.312L615.975 134.202" stroke="#272742" stroke-linecap="round" stroke-linejoin="round"/>
<path d="M595.593 117.131C599.457 116.694 604.326 121.444 609.77 115.317C608.122 122.288 610.942 129.496 613.393 131.551C615.008 125.22 617.561 125.356 618.838 125.423C620.137 125.065 622.795 125.634 623.035 130.78C625.23 129.613 629.312 125.851 627.942 122.699C627.406 120.745 623.55 118.615 624.519 114.817C625.326 111.651 626.268 105.926 620.524 105.621C618.822 105.531 614.712 106.596 613 102.655C612.407 101.768 611.859 100.027 609.339 99.252C607.436 98.937 603.629 98.307 600.906 101.371C598.865 103.669 597.246 105.629 593.683 104.837C589.887 103.994 585.519 106.714 586.188 113.423C586.333 114.714 587.329 116.05 585.884 119.182C584.898 121.696 586.21 127.541 589.274 127.703C589.129 126.412 589.631 123.359 590.25 121.339C590.25 121.339 591.73 117.567 595.593 117.131Z" fill="#272742" stroke="#272742" stroke-linejoin="round"/>
<path d="M564.375 179.199C572.741 172.043 597.72 167.677 597.72 159.347C597.72 159.347 603.611 159.358 607.307 158.706C610.887 158.075 617.502 156.016 617.502 156.016C620.058 164.346 636.041 168.318 644.99 172.803C651.382 176.007 660.021 177.289 662.247 188.823C666.082 208.687 672.503 247.133 672.503 255.463C671.224 267.211 669.946 292.628 662.915 312.493H645.018L642.461 293.91H567.678C567.678 286.706 567.622 276.215 568.035 264.329C566.008 264.381 563.908 264.414 561.876 264.414C553.125 264.414 539.375 262.535 535.625 256.895C531.875 251.256 535 238.725 538.125 228.699C541.25 218.674 553.125 188.823 564.375 179.199Z" fill="#272742" stroke="#272742" stroke-linejoin="round"/>
<path d="M597.719 159.346C597.719 167.677 576.627 172.803 567.678 179.211M662.915 312.492C669.946 292.628 671.224 267.211 672.502 255.463C672.502 247.133 664.832 208.686 660.997 188.822C658.77 177.288 650.131 176.007 643.74 172.803C634.791 168.317 618.812 164.473 616.255 156.143" stroke="#272742" stroke-linejoin="round"/>
<path d="M642.462 293.91C641.183 281.094 643.101 236.881 636.709 210.609" stroke="white" stroke-linecap="round" stroke-linejoin="round"/>
<path d="M619.476 272.578L624.689 221.873C624.745 221.323 624.346 220.832 623.796 220.775L586.411 216.897C585.862 216.84 585.371 217.239 585.314 217.788L580.102 268.494C580.045 269.043 580.445 269.535 580.994 269.591L618.379 273.469C618.929 273.526 619.42 273.127 619.476 272.578Z" fill="white"/>
<path d="M626.232 223.272L588.41 219.35C587.86 219.293 587.369 219.693 587.313 220.242L586.444 228.69" stroke="#272742" stroke-linecap="round"/>
<path d="M596.285 231.098L596.68 227.253C596.824 225.853 595.69 224.599 594.166 224.441C592.629 224.282 591.276 225.291 591.134 226.677L590.738 230.522C590.594 231.921 591.729 233.176 593.252 233.334C594.775 233.492 596.141 232.497 596.285 231.098Z" fill="#272742"/>
<path d="M593.709 228.887C594.628 228.982 595.45 228.313 595.545 227.392C595.639 226.472 594.971 225.648 594.052 225.552C593.133 225.457 592.311 226.126 592.217 227.047C592.122 227.968 592.79 228.792 593.709 228.887Z" fill="white"/>
<path d="M603.617 244.168L603.61 244.284C598.138 243.468 596.753 244.678 596.753 244.678L589.668 261.947C589.668 261.947 597.783 262.168 603.132 261.826C603.186 261.833 603.241 261.836 603.295 261.837C604.97 262.088 606.672 262.104 608.351 261.885C610.188 261.478 617.598 261.773 619.455 261.25C621.311 260.727 621.215 258.765 618.831 258.235C619.537 258.272 620.243 258.263 620.947 258.209C624.134 257.89 624.19 256.664 624.518 255.913C624.53 255.872 624.529 255.828 624.515 255.787C624.501 255.746 624.474 255.711 624.44 255.686C624.777 255.707 625.132 255.637 625.509 255.591C627.369 255.361 628.669 252.776 625.471 251.831C625.25 251.816 624.886 251.664 624.403 251.539C626.125 251.651 627.153 251.285 626.834 250.081C626.374 248.342 621.539 246.681 615.586 245.333C611.652 244.504 607.638 244.113 603.617 244.168Z" fill="white"/>
<path d="M603.617 244.167L603.61 244.284C598.138 243.467 598.861 243.809 593.356 244.354C587.465 245.141 589.668 261.946 589.668 261.946C589.668 261.946 597.783 262.167 603.132 261.825C603.186 261.832 603.241 261.835 603.295 261.836C604.97 262.087 606.671 262.103 608.35 261.884C610.187 261.477 617.598 261.772 619.454 261.249C621.31 260.726 621.215 258.764 618.831 258.234C619.536 258.271 620.243 258.262 620.947 258.208C624.134 257.889 624.189 256.663 624.518 255.912C624.53 255.871 624.529 255.827 624.514 255.786C624.5 255.745 624.474 255.71 624.439 255.685C624.777 255.707 625.132 255.636 625.508 255.59C627.369 255.36 628.669 252.776 625.471 251.83C625.25 251.815 624.886 251.663 624.403 251.538C626.125 251.65 627.153 251.284 626.834 250.08C626.373 248.341 621.539 246.68 615.586 245.333C611.651 244.503 607.637 244.112 603.617 244.167Z" stroke="#272742" stroke-linecap="round" stroke-linejoin="round"/>
<path d="M625.327 251.71C623.515 251.182 611.822 248.116 605.264 248.368" stroke="#272742" stroke-linecap="round" stroke-linejoin="round"/>
<path d="M624.361 255.796C624.702 255.046 619.316 254.157 611.473 252.956C609.22 252.56 606.93 252.411 604.645 252.512" stroke="#272742" stroke-linecap="round" stroke-linejoin="round"/>
<path d="M604.353 256.842C604.353 256.842 617.394 258.403 620.614 258.285" stroke="#272742" stroke-linecap="round" stroke-linejoin="round"/>
<path d="M590.625 264.413L595 243.109L567.5 238.097L563.125 265.666L590.625 264.413Z" fill="#272742"/>
<path d="M572.5 209.9C568.749 220.553 563.75 238.097 563.75 238.097C563.75 238.097 577.5 240.211 595 243.11L590.625 264.413C590.625 264.413 587.5 264.413 578.125 265.04C568.749 265.666 559.999 265.666 559.999 265.666" stroke="white" stroke-linecap="round" stroke-linejoin="round"/>
<path d="M531.162 312.198L567.782 516.924M448.116 312.198L485.227 516.818" stroke="black"/>
<path d="M195.308 312.198L158.689 516.924M307.23 312.198L270.61 516.924" stroke="black"/>
<rect x="167.058" y="306.945" width="416.67" height="7.22185" fill="white" stroke="#272742"/>
<rect x="282.416" y="306.988" width="301.351" height="7.41535" fill="#272742" stroke="#272742"/>
<ellipse cx="245.311" cy="164.492" rx="0.58022" ry="0.29011" fill="#272742"/>
<path d="M734.984 70.8624L727.353 55.314L723.68 64.1374L734.984 74.7256V70.8624Z" fill="white" stroke="#272742" stroke-miterlimit="10" stroke-linecap="round" stroke-linejoin="round"/>
<path d="M747.479 57.1257L699.165 41.1958L737.797 60.5121V60.5597L747.431 58.1273C747.956 57.9843 748.004 57.2688 747.479 57.1257Z" fill="white" stroke="#272742" stroke-miterlimit="10" stroke-linecap="round" stroke-linejoin="round"/>
<path d="M699.212 41.1958L729.26 62.7537L729.307 62.8014L734.983 74.725L737.797 60.5598V60.5121L699.212 41.1958Z" fill="white" stroke="#272742" stroke-miterlimit="10" stroke-linecap="round" stroke-linejoin="round"/>
<path d="M699.212 41.1958L714.808 64.8522C715.333 65.6631 716.335 66.0446 717.289 65.8061L723.775 64.1845L729.308 62.7537L699.212 41.1958Z" fill="white" stroke="#272742" stroke-miterlimit="10" stroke-linecap="round" stroke-linejoin="round"/>
<path d="M578.564 67.6624H535.474C533.637 67.6624 532.309 65.8244 532.82 64.0886L541.397 37.6427C541.805 36.5195 542.826 35.7026 544.052 35.7026H587.141C588.979 35.7026 590.306 37.5406 589.796 39.2764L581.219 65.7223C580.81 66.8455 579.789 67.6624 578.564 67.6624Z" fill="white" stroke="#272742" stroke-miterlimit="10" stroke-linecap="round" stroke-linejoin="round"/>
<path d="M542.111 36.8257L559.265 50.9166C559.98 51.5292 560.899 51.5292 561.716 51.1208L589.285 36.8257" stroke="#272742" stroke-miterlimit="10" stroke-linecap="round" stroke-linejoin="round"/>
<path d="M255.871 288.699V276.208" stroke="#272742" stroke-miterlimit="10" stroke-linecap="round"/>
<path d="M259.176 280.616V268.126" stroke="#272742" stroke-miterlimit="10" stroke-linecap="round"/>
<path d="M247.019 286.127H243.149C242.757 286.127 242.37 286.211 242.015 286.372C241.659 286.534 241.343 286.77 241.089 287.064C240.834 287.358 240.647 287.703 240.541 288.075C240.434 288.447 240.411 288.838 240.472 289.22L242.119 299.719H247.051" fill="white"/>
<path d="M247.019 286.127H243.149C242.757 286.127 242.37 286.211 242.015 286.372C241.659 286.534 241.343 286.77 241.089 287.064C240.834 287.358 240.647 287.703 240.541 288.075C240.434 288.447 240.411 288.838 240.472 289.22L242.119 299.719H247.051" stroke="#272742" stroke-linecap="round" stroke-linejoin="round"/>
<path d="M243.589 283.321L246.926 306.567H264.803L268.15 283.321H243.589Z" fill="white" stroke="#272742"/>
<path d="M358.454 239.891C366.115 233.327 368.478 223.469 363.731 217.874C358.984 212.278 348.926 213.064 341.264 219.628C333.603 226.192 331.241 236.05 335.988 241.645C340.734 247.241 350.793 246.455 358.454 239.891Z" fill="#E5E8F0"/>
<path d="M355.788 237.208C363.449 230.643 365.812 220.786 361.065 215.19C356.318 209.595 346.26 210.38 338.598 216.944C330.937 223.509 328.575 233.366 333.322 238.962C338.068 244.557 348.127 243.772 355.788 237.208Z" fill="white" stroke="#27273E" stroke-linecap="round" stroke-linejoin="round"/>
<path d="M342.319 233.639L341.003 235.943L342.319 233.639Z" fill="#272740"/>
<path d="M342.319 233.639L341.003 235.943" stroke="#272740" stroke-linecap="round" stroke-linejoin="round"/>
<path d="M351.5 217.68L350.429 219.49L351.5 217.68Z" fill="#272740"/>
<path d="M351.5 217.68L350.429 219.49" stroke="#272740" stroke-linecap="round" stroke-linejoin="round"/>
<path d="M352.298 223.475C352.298 223.475 354.206 219.798 350.664 219.551C346.871 219.299 345.198 221.547 344.606 222.668C343.803 224.165 343.569 225.594 346.196 226.284C348.823 226.974 349.543 227.842 348.918 229.838C348.271 231.957 345.571 233.824 342.587 233.577C339.045 233.325 339.659 230.584 340.651 229.093" stroke="#272740" stroke-linecap="round" stroke-linejoin="round"/>
<path d="M328.51 214.538C332.743 210.911 334.048 205.465 331.426 202.374C328.803 199.282 323.246 199.716 319.013 203.343C314.78 206.97 313.475 212.416 316.098 215.507C318.72 218.599 324.278 218.165 328.51 214.538Z" fill="white" stroke="#27273E" stroke-linecap="round" stroke-linejoin="round"/>
<path d="M321.069 212.566L320.342 213.839L321.069 212.566Z" fill="#272740"/>
<path d="M321.069 212.566L320.342 213.839" stroke="#272740" stroke-linecap="round" stroke-linejoin="round"/>
<path d="M326.141 203.75L325.549 204.75L326.141 203.75Z" fill="#272740"/>
<path d="M326.141 203.75L325.549 204.75" stroke="#272740" stroke-linecap="round" stroke-linejoin="round"/>
<path d="M326.582 206.951C326.582 206.951 327.636 204.92 325.679 204.783C323.584 204.644 322.659 205.886 322.332 206.505C321.889 207.332 321.759 208.122 323.211 208.503C324.662 208.884 325.06 209.364 324.715 210.467C324.357 211.637 322.866 212.669 321.217 212.532C319.26 212.393 319.599 210.879 320.147 210.055" stroke="#272740" stroke-linecap="round" stroke-linejoin="round"/>
<path d="M397.911 227.287H393.907L392.614 231.007H390.766L392.059 227.287H388.055L388.625 225.646H392.629L393.928 221.905H395.776L394.477 225.646H398.481L397.911 227.287Z" fill="#86869A"/>
<path d="M408.304 219.182L403.251 233.73H401.073L405.498 220.99H402.022L402.65 219.182H408.304Z" fill="#86869A"/>
<path d="M413.514 233.896C412.296 233.896 411.312 233.605 410.561 233.023C409.829 232.427 409.387 231.568 409.234 230.446C409.081 229.324 409.272 227.994 409.806 226.456C410.34 224.918 411.074 223.588 412.006 222.466C412.939 221.344 413.975 220.492 415.116 219.91C416.276 219.314 417.465 219.016 418.682 219.016C419.885 219.016 420.852 219.314 421.584 219.91C422.335 220.492 422.787 221.344 422.94 222.466C423.093 223.588 422.902 224.918 422.368 226.456C421.834 227.994 421.1 229.324 420.168 230.446C419.235 231.568 418.189 232.427 417.029 233.023C415.888 233.605 414.716 233.896 413.514 233.896ZM414.156 232.046C415.388 232.046 416.537 231.568 417.602 230.612C418.682 229.656 419.538 228.271 420.168 226.456C420.798 224.641 420.906 223.256 420.49 222.3C420.089 221.344 419.272 220.866 418.04 220.866C416.793 220.866 415.63 221.344 414.55 222.3C413.484 223.256 412.636 224.641 412.006 226.456C411.376 228.271 411.261 229.656 411.662 230.612C412.078 231.568 412.909 232.046 414.156 232.046Z" fill="#86869A"/>
<path d="M428.847 233.896C427.63 233.896 426.646 233.605 425.895 233.023C425.163 232.427 424.721 231.568 424.568 230.446C424.415 229.324 424.606 227.994 425.14 226.456C425.674 224.918 426.407 223.588 427.34 222.466C428.272 221.344 429.309 220.492 430.45 219.91C431.61 219.314 432.799 219.016 434.016 219.016C435.219 219.016 436.186 219.314 436.918 219.91C437.669 220.492 438.121 221.344 438.274 222.466C438.427 223.588 438.236 224.918 437.702 226.456C437.168 227.994 436.434 229.324 435.502 230.446C434.569 231.568 433.523 232.427 432.363 233.023C431.222 233.605 430.05 233.896 428.847 233.896ZM429.49 232.046C430.722 232.046 431.871 231.568 432.936 230.612C434.016 229.656 434.871 228.271 435.502 226.456C436.132 224.641 436.24 223.256 435.824 222.3C435.422 221.344 434.606 220.866 433.374 220.866C432.127 220.866 430.964 221.344 429.884 222.3C428.818 223.256 427.97 224.641 427.34 226.456C426.709 228.271 426.595 229.656 426.996 230.612C427.412 231.568 428.243 232.046 429.49 232.046Z" fill="#86869A"/>
<path d="M365.997 243.112L454.771 243.112" stroke="black" stroke-linecap="round"/>
<path d="M231.739 193.848C230.374 195.489 224.977 198.967 219.966 202.892L229.575 211.958C232.823 208.909 242.5 201.176 243.303 200.383C244.408 199.291 249.395 197.793 250.005 195.978C251.108 195.548 248.795 190.559 249.194 190.289C249.843 189.851 254.668 191.885 253.363 191.148C253.981 190.865 252.855 187.864 252.853 187.541C253.594 187.04 255.38 187.14 253.619 186.927C254.052 186.769 254.578 186.549 255.101 185.926C255.408 185.561 255.3 183.612 253.94 183.094C254.366 182.733 254.678 182.131 253.488 182.671C254.128 181.515 256.862 179.016 255.691 179.316C254.404 179.646 256.165 176.302 238.127 187.544C236.325 188.667 234.441 189.216 231.739 193.848Z" fill="white"/>
<path d="M220.262 203.699C220.041 203.864 219.728 203.819 219.563 203.598C219.397 203.377 219.442 203.064 219.663 202.898L220.262 203.699ZM231.736 193.847L232.168 194.099L232.147 194.135L232.12 194.167L231.736 193.847ZM238.124 187.543L238.388 187.968L238.124 187.543ZM257.718 180.129L257.227 180.033L257.718 180.129ZM252.851 182.991L252.916 183.487L252.612 182.552L252.851 182.991ZM255.098 185.925L254.716 185.603L255.098 185.925ZM253.616 186.926L253.556 187.423L253.445 186.456L253.616 186.926ZM253.616 187.54L253.116 187.543L253.115 187.275L253.336 187.125L253.616 187.54ZM252.849 190.695L252.604 191.131L251.749 190.648L252.642 190.24L252.849 190.695ZM250.408 195.165L249.935 195.006L250.009 194.784L250.227 194.699L250.408 195.165ZM243.037 200.89L242.744 200.485L243.037 200.89ZM230.078 212.567C229.895 212.774 229.579 212.794 229.372 212.611C229.165 212.428 229.146 212.112 229.329 211.905L230.078 212.567ZM219.663 202.898C222.236 200.97 224.833 199.022 226.958 197.35C229.1 195.664 230.711 194.299 231.352 193.527L232.12 194.167C231.397 195.037 229.693 196.47 227.575 198.136C225.44 199.817 222.833 201.773 220.262 203.699L219.663 202.898ZM231.305 193.595C232.678 191.242 233.86 189.897 234.949 188.994C236.016 188.11 237.021 187.642 237.86 187.119L238.388 187.968C237.425 188.568 236.587 188.936 235.586 189.765C234.608 190.575 233.497 191.82 232.168 194.099L231.305 193.595ZM237.86 187.119C246.882 181.496 251.406 179.388 253.857 178.655C255.096 178.285 255.833 178.257 256.367 178.32C256.603 178.348 256.84 178.404 256.943 178.421C257.065 178.442 257.124 178.442 257.188 178.425L257.436 179.394C257.178 179.46 256.961 179.44 256.773 179.407C256.566 179.372 256.462 179.339 256.249 179.314C255.882 179.27 255.285 179.272 254.142 179.614C251.831 180.305 247.405 182.349 238.388 187.968L237.86 187.119ZM257.188 178.425C257.36 178.381 257.512 178.349 257.645 178.333C257.771 178.317 257.917 178.31 258.057 178.342C258.212 178.378 258.395 178.473 258.499 178.677C258.589 178.853 258.575 179.028 258.559 179.125C258.53 179.308 258.434 179.533 258.378 179.679C258.308 179.858 258.244 180.037 258.208 180.224L257.227 180.033C257.281 179.754 257.373 179.506 257.446 179.318C257.484 179.218 257.514 179.146 257.538 179.077C257.563 179.008 257.571 178.976 257.572 178.967C257.575 178.949 257.556 179.029 257.609 179.132C257.676 179.263 257.788 179.307 257.832 179.317C257.859 179.324 257.849 179.315 257.768 179.325C257.694 179.335 257.587 179.356 257.436 179.394L257.188 178.425ZM258.208 180.224C258.123 180.663 257.927 181.003 257.617 181.276C257.327 181.531 256.954 181.713 256.551 181.883C255.722 182.234 254.621 182.594 253.09 183.43L252.612 182.552C254.202 181.684 255.404 181.282 256.163 180.962C256.554 180.796 256.797 180.666 256.956 180.525C257.095 180.403 257.183 180.263 257.227 180.033L258.208 180.224ZM252.786 182.495C253.484 182.403 254.066 182.538 254.528 182.834C254.983 183.126 255.28 183.55 255.465 183.974C255.649 184.398 255.73 184.845 255.739 185.223C255.743 185.413 255.729 185.596 255.696 185.759C255.665 185.909 255.606 186.097 255.481 186.247L254.716 185.603C254.683 185.641 254.699 185.645 254.717 185.557C254.732 185.483 254.743 185.377 254.74 185.246C254.734 184.984 254.676 184.667 254.548 184.374C254.422 184.082 254.236 183.836 253.988 183.676C253.747 183.521 253.407 183.422 252.916 183.487L252.786 182.495ZM255.481 186.247C254.876 186.967 254.255 187.226 253.786 187.396L253.445 186.456C253.843 186.312 254.274 186.13 254.716 185.603L255.481 186.247ZM253.676 186.43C254.106 186.482 254.397 186.518 254.562 186.551C254.605 186.56 254.655 186.571 254.703 186.587C254.728 186.596 254.843 186.632 254.941 186.73C255 186.791 255.08 186.902 255.089 187.063C255.099 187.222 255.033 187.341 254.984 187.406C254.903 187.512 254.798 187.562 254.779 187.572C254.71 187.607 254.622 187.637 254.568 187.655C254.499 187.679 254.429 187.702 254.351 187.732C254.194 187.79 254.033 187.861 253.895 187.955L253.336 187.125C253.569 186.968 253.813 186.864 254.002 186.794C254.096 186.759 254.183 186.73 254.244 186.709C254.276 186.698 254.299 186.69 254.317 186.683C254.337 186.675 254.338 186.674 254.33 186.678C254.325 186.681 254.31 186.688 254.29 186.702C254.274 186.714 254.231 186.745 254.189 186.8C254.145 186.857 254.083 186.969 254.092 187.122C254.101 187.275 254.177 187.38 254.23 187.434C254.28 187.485 254.328 187.51 254.346 187.519C254.368 187.53 254.384 187.536 254.388 187.537C254.396 187.54 254.391 187.538 254.364 187.532C254.311 187.521 254.224 187.508 254.085 187.489C253.95 187.471 253.776 187.45 253.556 187.423L253.676 186.43ZM254.115 187.537C254.116 187.729 254.077 188.474 253.958 189.212C253.899 189.58 253.817 189.97 253.701 190.296C253.643 190.458 253.571 190.622 253.479 190.764C253.39 190.901 253.256 191.059 253.057 191.15L252.642 190.24C252.598 190.26 252.603 190.277 252.641 190.219C252.675 190.166 252.716 190.081 252.759 189.96C252.846 189.718 252.916 189.397 252.972 189.053C253.082 188.365 253.117 187.674 253.116 187.543L254.115 187.537ZM253.095 190.259C253.194 190.315 253.306 190.389 253.394 190.486C253.48 190.583 253.613 190.787 253.541 191.053C253.479 191.286 253.298 191.401 253.215 191.446C253.116 191.499 253.008 191.533 252.914 191.557C252.549 191.648 251.956 191.686 251.37 191.713C250.756 191.742 250.114 191.76 249.57 191.799C249.3 191.818 249.07 191.842 248.894 191.871C248.69 191.905 248.64 191.936 248.659 191.923L248.1 191.094C248.281 190.971 248.533 190.917 248.729 190.884C248.952 190.847 249.219 190.821 249.5 190.801C250.059 190.761 250.739 190.742 251.324 190.714C251.938 190.685 252.423 190.648 252.672 190.586C252.732 190.571 252.748 190.562 252.74 190.566C252.734 190.569 252.709 190.583 252.678 190.614C252.646 190.646 252.6 190.705 252.576 190.794C252.521 190.998 252.631 191.134 252.649 191.155C252.669 191.177 252.668 191.167 252.604 191.131L253.095 190.259ZM248.659 191.923C248.835 191.804 248.854 191.619 248.846 191.539C248.84 191.48 248.822 191.458 248.84 191.493C248.872 191.554 248.946 191.661 249.073 191.82C249.33 192.14 249.671 192.515 250.04 192.954C250.385 193.365 250.748 193.825 250.948 194.227C251.044 194.421 251.14 194.674 251.12 194.935C251.108 195.078 251.061 195.228 250.959 195.361C250.858 195.493 250.725 195.578 250.59 195.631L250.227 194.699C250.229 194.698 250.198 194.71 250.167 194.751C250.134 194.794 250.125 194.836 250.123 194.856C250.122 194.872 250.126 194.821 250.053 194.673C249.913 194.391 249.625 194.015 249.275 193.599C248.95 193.211 248.552 192.769 248.293 192.446C248.163 192.283 248.035 192.111 247.955 191.957C247.917 191.885 247.865 191.772 247.851 191.639C247.836 191.486 247.874 191.246 248.1 191.094L248.659 191.923ZM250.882 195.324C250.683 195.915 250.131 196.519 249.507 197.072C248.862 197.644 248.057 198.231 247.245 198.781C246.432 199.332 245.6 199.853 244.897 200.291C244.184 200.735 243.626 201.081 243.33 201.295L242.744 200.485C243.077 200.244 243.678 199.873 244.369 199.442C245.072 199.004 245.889 198.492 246.685 197.952C247.483 197.412 248.247 196.852 248.845 196.323C249.464 195.774 249.828 195.323 249.935 195.006L250.882 195.324ZM243.33 201.295C240.96 203.011 233.158 209.076 230.078 212.567L229.329 211.905C232.492 208.32 240.379 202.198 242.744 200.485L243.33 201.295Z" fill="#272742"/>
<path d="M258.065 183.367C257.76 183.599 256.793 185.395 256.22 186.744L254.599 189.116C255.746 188.625 257.699 186.988 258.614 186.293C259.337 185.743 260.065 185.223 259.885 184.264C259.772 183.658 258.788 182.817 258.065 183.367Z" fill="white" stroke="#272742"/>
<path d="M249.825 175.792C250.16 175.382 250.726 175.238 251.219 175.438L260.525 179.219C261.276 179.524 261.513 180.459 261.004 181.081L246.934 198.285C246.599 198.695 246.033 198.84 245.54 198.639L236.234 194.858L236.055 195.298L236.234 194.858C235.483 194.553 235.246 193.618 235.755 192.996L249.825 175.792Z" fill="white" stroke="#272742"/>
<path d="M240.795 183.4C239.703 184.125 237.769 184.446 234.572 188.038C234.066 188.808 233.611 190.161 233.253 191.51L234.571 193.948C236.391 192.575 238.229 193.541 241.986 187.609C243.051 186.861 244.678 185.425 246.641 183.22C247.09 182.772 248.954 180.789 247.12 179.152C246.676 178.306 242.625 182.185 240.795 183.4Z" fill="white"/>
<path d="M235.388 193.541C237.209 192.168 238.23 191.509 241.884 187.038C242.949 186.289 244.678 185.425 246.641 183.22C247.09 182.772 248.954 180.789 247.12 179.152C246.676 178.306 242.625 182.185 240.795 183.4C239.703 184.125 237.769 184.446 234.572 188.038C234.066 188.808 233.611 190.161 233.253 191.51" stroke="#272742" stroke-linecap="round" stroke-linejoin="round"/>
<path d="M155.416 174.845C163.129 176.507 169.945 181.545 174.865 188.544C180.966 197.192 189.707 214.925 193.04 221.845L226.049 198.823L228.786 204.172L231.733 210.203C231.733 210.203 201.884 246.535 195.82 248.527C195.82 248.527 190.549 251.319 187.301 250.316C184.456 249.437 181.32 244.944 180.888 244.31L180.831 244.393L160.417 212.352L143.905 174.845C147.859 176.786 151.376 173.974 155.416 174.845Z" fill="white"/>
<path d="M226.455 198.417L193.04 221.845C189.707 214.925 180.966 197.192 174.865 188.544C169.945 181.545 163.129 176.507 155.416 174.845C151.376 173.974 147.859 176.786 143.905 174.845L160.417 212.352L180.831 244.393L180.888 244.31C181.32 244.944 184.456 249.437 187.301 250.316C190.549 251.319 195.82 248.527 195.82 248.527C201.884 246.535 231.733 210.203 231.733 210.203" stroke="#272742" stroke-linecap="round" stroke-linejoin="round"/>
<path d="M181.62 470.49L184.326 512.476L245.396 512.863C245.396 512.863 247.328 511.508 246.169 509.96C245.106 508.606 235.733 507.155 226.263 502.318C217.47 497.868 202.395 485.195 200.27 470.393H181.62V470.49Z" fill="white"/>
<path d="M184.326 512.379L183.456 514.991C183.167 515.862 183.843 516.829 184.809 516.829H240.178C241.434 516.829 242.594 516.345 243.56 515.475C244.526 514.507 245.686 513.25 245.976 512.379H184.326Z" fill="white"/>
<path d="M168.002 243.123L125.048 241.498L120.507 282.129L152.491 292.094L170.843 254.503L168.002 243.123Z" fill="white" stroke="#272742" stroke-miterlimit="10" stroke-linecap="round" stroke-linejoin="round"/>
<path d="M181.62 470.49L184.326 512.476L245.396 512.863C245.396 512.863 247.328 511.508 246.169 509.96C245.106 508.606 235.733 507.155 226.263 502.318C217.47 497.868 202.395 485.195 200.27 470.393H181.62V470.49Z" stroke="#272742" stroke-miterlimit="10" stroke-linecap="round" stroke-linejoin="round"/>
<path d="M203.169 510.444C212.058 511.121 218.822 506.187 225.973 502.221C226.07 502.317 226.166 502.317 226.263 502.414C235.733 507.251 245.106 508.606 246.169 510.057C247.328 511.605 245.396 512.959 245.396 512.959L184.326 512.572L183.649 502.704C189.351 504.252 196.791 510.057 203.169 510.444Z" fill="#272742" stroke="#272742" stroke-miterlimit="10" stroke-linecap="round" stroke-linejoin="round"/>
<path d="M184.326 512.379L183.456 514.991C183.167 515.862 183.843 516.829 184.809 516.829H240.178C241.434 516.829 242.594 516.345 243.56 515.475C244.526 514.507 245.686 513.25 245.976 512.379H184.326Z" stroke="#272742" stroke-miterlimit="10" stroke-linecap="round" stroke-linejoin="round"/>
<path d="M168.81 245.155C190.455 326.128 201.137 402.383 215.342 472.618L173.115 472.521C171.859 474.94 146.349 336.212 138.908 290.646L153.859 267.901L168.81 245.155Z" fill="white"/>
<path d="M167.999 243.529C189.643 324.502 201.137 402.383 215.342 472.618L173.115 472.521C171.859 474.939 146.349 336.212 138.908 290.646" stroke="#272742" stroke-miterlimit="10" stroke-linecap="round" stroke-linejoin="round"/>
<path d="M213.059 461.774H170.436" stroke="#272742"/>
<path d="M117.747 512.378C117.554 506.38 122.675 477.938 122.579 468.554L143.064 468.457C143.064 468.457 143.064 480.646 143.837 487.515C144.513 493.997 147.026 506.186 146.349 512.378H117.747Z" fill="white"/>
<path d="M142.193 516.926H122.094C119.775 516.926 117.842 514.894 117.842 512.379H146.444C146.444 514.894 144.512 516.926 142.193 516.926Z" fill="white"/>
<path d="M125.376 241.091C125.376 241.091 108.374 263.85 108.374 332.051C111.66 407.8 114.849 472.617 114.849 472.617H153.404C155.143 451.915 153.114 315.992 152.824 294.129C152.651 284.819 149.089 275.382 144.585 267.101C136.499 252.234 125.376 241.091 125.376 241.091Z" fill="white"/>
<path d="M125.376 241.091C125.376 241.091 108.374 263.85 108.374 332.051C111.66 407.8 114.849 472.617 114.849 472.617H153.404C155.143 451.915 153.114 315.992 152.824 294.129" stroke="#272742" stroke-miterlimit="10" stroke-linecap="round" stroke-linejoin="round"/>
<path d="M153.307 472.617C155.046 451.914 153.017 315.992 152.727 294.128" stroke="#272742" stroke-miterlimit="10" stroke-linecap="round" stroke-linejoin="round"/>
<path d="M142.193 516.926H122.094C119.775 516.926 117.842 514.894 117.842 512.379H146.444C146.444 514.894 144.512 516.926 142.193 516.926Z" stroke="#272742" stroke-miterlimit="10" stroke-linecap="round" stroke-linejoin="round"/>
<path d="M118.325 508.219C119.775 504.059 124.316 500.189 129.921 500.092C138.424 499.899 145.478 506.284 146.444 508.509V512.185L117.842 511.991L118.325 508.219Z" fill="#272742" stroke="#272742" stroke-miterlimit="10" stroke-linecap="round" stroke-linejoin="round"/>
<path d="M146.446 512.378C147.122 506.186 144.61 493.9 143.933 487.515C143.453 483.246 143.271 476.922 143.202 472.747" stroke="#272742" stroke-miterlimit="10" stroke-linecap="round" stroke-linejoin="round"/>
<path d="M117.842 512.378C117.673 507.109 121.604 484.521 122.497 472.747" stroke="#272742" stroke-miterlimit="10" stroke-linecap="round" stroke-linejoin="round"/>
<path d="M153.791 461.773L114.009 461.773" stroke="#272742"/>
<path d="M121.098 114.563C126.651 111.855 139.434 113.259 138.647 124.526L139.537 151.639C138.966 155.947 138.491 165.329 131.494 168.267C129.69 169.025 119.962 170.691 113.493 163.079C116.844 162.253 119.246 160.963 119.324 157.875C119.441 153.243 107.749 146.5 109.096 129.847C109.394 126.162 113.163 118.432 121.098 114.563Z" fill="#272742"/>
<path d="M132.58 149.901L135.135 173.278C135.135 173.278 139.781 189.765 149.378 187.499C157.943 185.488 153.801 171.866 153.801 171.866C153.824 171.96 152.711 157.292 152.711 157.292L132.58 149.901Z" fill="white" stroke="#272742" stroke-miterlimit="10" stroke-linecap="round" stroke-linejoin="round"/>
<path d="M141.204 161.028C143.865 163.759 149.954 165.249 153.399 165.495C153.135 161.178 152.739 154.701 152.739 154.701L137.146 150.464C137.618 155.627 138.146 157.897 141.204 161.028Z" fill="#272742"/>
<path d="M153.825 129.023C158.495 139.527 159.684 152.88 156.592 158.125C153.407 163.392 144.038 167.394 132.167 152.29C120.296 137.186 128.172 125.483 136.457 122.744C143.077 120.515 150.457 121.386 153.825 129.023Z" fill="white" stroke="#272742" stroke-miterlimit="10" stroke-linecap="round" stroke-linejoin="round"/>
<path d="M147.308 128.833C145.004 136.473 134.688 143.099 128.743 146.854C121.061 133.808 128.806 125.226 136.363 122.766C142.982 120.537 150.361 121.408 153.729 129.044C154.426 130.665 155.029 132.309 155.632 133.953C153.244 133.147 149.6 130.061 147.308 128.833Z" fill="#272742" stroke="#272742" stroke-miterlimit="10" stroke-linecap="round" stroke-linejoin="round"/>
<path d="M133.206 124.16C130.287 125.82 127.689 128.421 126.41 131.857M125.788 134.134C125.598 135.192 125.527 136.314 125.598 137.497" stroke="white" stroke-miterlimit="10" stroke-linecap="round" stroke-linejoin="round"/>
<path d="M144.778 146.493C144.052 146.671 143.165 145.597 142.795 144.092C142.426 142.588 142.715 141.223 143.44 141.045C144.166 140.866 145.054 141.94 145.423 143.445C145.793 144.949 145.504 146.314 144.778 146.493Z" fill="#272742"/>
<path d="M155.283 145.101C154.557 145.28 153.669 144.206 153.3 142.701C152.93 141.197 153.219 139.832 153.945 139.653C154.67 139.474 155.558 140.549 155.928 142.053C156.297 143.558 156.008 144.922 155.283 145.101Z" fill="#272742"/>
<path d="M145.63 150.767C146.819 152.366 149.819 152.424 149.819 152.424L145.63 150.767Z" fill="white"/>
<path d="M145.63 150.767C146.819 152.366 149.819 152.424 149.819 152.424" stroke="#272742" stroke-miterlimit="10" stroke-linecap="round" stroke-linejoin="round"/>
<path d="M133.001 144.312C131.278 141.35 129.037 139.113 125.983 140.862C122.928 142.611 123.094 148.148 126.554 150.483C130.014 152.818 132.714 151.654 132.714 151.654" fill="white"/>
<path d="M133.001 144.312C131.278 141.35 129.037 139.113 125.983 140.862C122.928 142.611 123.094 148.148 126.554 150.483C130.014 152.818 132.714 151.654 132.714 151.654" stroke="#272742" stroke-miterlimit="10" stroke-linecap="round" stroke-linejoin="round"/>
<path d="M133.001 144.312C131.278 141.35 129.037 139.113 125.983 140.862C122.928 142.611 123.094 148.148 126.554 150.483C130.014 152.818 132.714 151.654 132.714 151.654" fill="white"/>
<path d="M133.001 144.312C131.278 141.35 129.037 139.113 125.983 140.862C122.928 142.611 123.094 148.148 126.554 150.483C130.014 152.818 132.714 151.654 132.714 151.654" stroke="#272742" stroke-miterlimit="10" stroke-linecap="round" stroke-linejoin="round"/>
<path d="M151.048 143.655C151.553 146.12 152.867 145.797 153.097 147.135C153.233 148.097 151.03 148.043 151.03 148.043" fill="white"/>
<path d="M151.048 143.655C151.553 146.12 152.867 145.797 153.097 147.135C153.233 148.097 151.03 148.043 151.03 148.043" stroke="#272742" stroke-miterlimit="10" stroke-linecap="round" stroke-linejoin="round"/>
<path d="M127.323 145.114L131.859 147.781" stroke="#272742" stroke-miterlimit="10" stroke-linecap="round" stroke-linejoin="round"/>
<path d="M134.306 163.872C143.236 168.342 150.137 167.529 153.385 165.904L154.197 172C155.379 173.577 160.001 176.303 160.273 176.463C160.277 176.465 160.282 176.468 160.286 176.47C160.286 176.47 160.282 176.468 160.273 176.463C159.49 176.066 165.988 191.949 169.623 198.823C174.494 208.035 172.08 216.705 171.246 224.427C170.575 230.645 169.623 237.839 169.623 246.374H118.068L115.226 214.673C122.046 212.397 114.956 188.392 114.415 182.16C119.286 179.722 131.058 175.251 134.306 172V163.872Z" fill="#272742"/>
<path d="M124.16 208.578C131.061 197.198 128.706 182.242 124.16 177.69L112.793 183.38L107.516 204.514L124.16 208.578Z" fill="white"/>
<path d="M116.538 244.201H169.986L171.095 254.409H116.538L116.538 244.201Z" fill="white" stroke="#272742"/>
<path d="M148.297 242.298C148.298 242.298 148.297 242.299 148.297 242.301L148.297 242.298ZM148.296 255.128V242.498H156.851V255.128H148.296ZM156.85 242.298C156.85 242.298 156.85 242.299 156.85 242.301L156.85 242.298ZM156.85 255.328C156.85 255.328 156.85 255.327 156.85 255.325L156.85 255.328ZM148.297 255.328C148.297 255.328 148.297 255.327 148.297 255.325L148.297 255.328Z" stroke="#272742" stroke-width="2"/>
<path d="M121.718 181.291C123.736 181.172 130.194 185.656 126.921 200.853C126.406 203.246 124.668 206.25 124.155 208.985C123.749 228.086 117.741 250.31 118.299 259.787C119.323 277.163 122.738 308.56 126.158 318.497L119.653 321.517L113.148 324.536C112.261 320.939 110.125 314.172 107.803 309.442C103.354 300.378 94.5145 270.488 95.1152 259.097C95.8804 244.589 98.583 212.097 103.272 198.194C106.761 187.851 114.31 179.295 121.718 181.291Z" fill="white"/>
<path d="M113.15 324.536C112.263 320.938 110.128 314.172 107.805 309.442C103.356 300.378 94.5168 270.488 95.1176 259.097C95.8827 244.589 98.5853 212.096 103.275 198.194C105.666 191.103 109.966 184.852 114.821 182.265C116.445 181.532 124.158 178.097 125.375 177.691M126.161 318.497C122.74 308.56 119.325 276.474 118.301 259.097C117.743 249.62 125.375 218.332 124.158 208.172" stroke="#272742"/>
<path d="M126.329 318.754C127.869 322.989 129.05 327.648 129.512 332.131L129.605 332.114C130.46 335.276 130.963 338.523 131.105 341.796C131.246 346.766 130.915 350.917 129.639 351.631C128.757 352.126 128.261 351.388 128.002 350.007C128.001 350.413 127.954 350.731 127.987 350.908C127.889 353.624 125.592 353.119 125.035 351.697C124.923 351.409 124.796 351.143 124.745 350.872C124.732 350.905 124.71 350.932 124.68 350.952C124.651 350.971 124.617 350.981 124.582 350.98C123.924 350.872 122.948 351.075 122.053 348.625C121.869 348.08 121.719 347.524 121.606 346.96C121.67 348.948 120.146 349.419 119.359 348.06C118.573 346.7 117.308 340.791 116.617 339.424C116.105 338.143 115.774 336.796 115.634 335.424C115.623 335.381 115.615 335.337 115.609 335.293C114.26 331.14 113.385 324.424 113.385 324.424" stroke="#272742" stroke-linecap="round" stroke-linejoin="round"/>
<path d="M128.048 350.772C128.098 349.236 128.151 339.386 126.628 334.26" stroke="#272742" stroke-linecap="round" stroke-linejoin="round"/>
<path d="M124.644 350.834C125.303 350.951 124.915 346.52 124.277 340.087C124.134 338.228 123.789 336.391 123.248 334.607" stroke="#272742" stroke-linecap="round" stroke-linejoin="round"/>
<path d="M119.783 335.25C119.783 335.25 121.187 345.86 121.931 348.378" stroke="#272742" stroke-linecap="round" stroke-linejoin="round"/>
<path d="M256.089 187.444C256.089 187.986 256.9 192.321 252.435 192.321L253.653 190.289V188.663C253.518 187.986 253.572 186.55 254.871 186.225C255.277 186.225 256.089 186.143 256.089 187.444Z" fill="white" stroke="#272742"/>
<path d="M254.058 190.697C254.058 191.239 254.464 196.386 248.375 196.792L251.623 193.542V191.916C251.487 191.239 251.541 189.803 252.84 189.478C253.246 189.478 254.058 189.396 254.058 190.697Z" fill="white" stroke="#272742" stroke-linecap="round" stroke-linejoin="round"/>
<path d="M44.0708 348.957L44.0708 441.921" stroke="#272742" stroke-linecap="round"/>
<path d="M32.2872 388.415C39.5801 383.604 45.7877 386.477 46.9643 390.267C47.7504 392.8 47.3725 399.439 40.1779 401.593C33.057 403.725 30.7475 402.175 24.3311 404.353C24.3311 401.03 25.6859 392.77 32.2872 388.415Z" fill="white" stroke="#272742" stroke-linecap="round"/>
<path d="M47.254 390C47.254 390 45.602 389.09 41.0045 390.487C36.4069 391.884 32.6089 396.076 32.6089 396.076" stroke="#272742" stroke-linecap="round"/>
<path d="M42.0222 342.51C36.6258 346.639 37.5662 351.279 39.356 353.205C41.0021 354.433 44.7674 355.381 49.1659 351.477C52.9112 348.152 54.8438 342.373 55.4859 340.175C53.0592 339.323 46.9068 338.773 42.0222 342.51Z" fill="#89FFB8" stroke="#272742" stroke-linecap="round"/>
<path d="M39.3723 353.084C39.3723 353.084 39.305 350.481 41.4497 348.162C43.5945 345.844 46.5296 345.103 46.5296 345.103" stroke="#272742" stroke-linecap="round"/>
<path d="M72.7251 282.734L72.7251 441.92" stroke="#272742" stroke-linecap="round"/>
<path d="M96.9206 271.224C82.1481 261.545 70.1784 269.95 66.9946 275.999C65.4023 281.093 65.4015 287.779 81.0018 297.649C92.002 304.608 106.897 304.653 112.84 304.334C112.84 297.649 110.292 279.985 96.9206 271.224Z" fill="#89FFB8" stroke="#272742" stroke-linecap="round"/>
<path d="M66.9935 276C66.9935 276 70.4956 274.726 78.1366 278.229C85.7775 281.731 93.1001 287.462 93.1001 287.462" stroke="#272742" stroke-linecap="round"/>
<path d="M57.4434 309.478L57.4434 441.921" stroke="#272742" stroke-linecap="round"/>
<path d="M34.2006 300.833C46.2649 292.929 56.5338 297.649 58.4802 303.876C59.7806 308.036 59.1556 318.944 47.2538 322.482C35.474 325.984 31.6536 323.437 21.0391 327.016C21.0392 321.556 23.2803 307.987 34.2006 300.833Z" fill="white" stroke="#272742" stroke-linecap="round"/>
<path d="M58.4812 303.876C58.4812 303.876 55.85 302.425 48.5274 304.653C41.2049 306.882 35.1558 313.568 35.1558 313.568" stroke="#272742" stroke-linecap="round"/>
<path d="M65.7197 372.149V442.191" stroke="#272742" stroke-linecap="round"/>
<path d="M85.452 371.476C73.4982 363.632 64.946 368.74 62.3698 373.643C61.0813 377.771 61.8228 385.917 72.6362 391.934C81.8435 397.058 94.6585 396.865 99.4678 396.607C99.4677 391.189 96.2722 378.576 85.452 371.476Z" fill="#89FFB8" stroke="#272742" stroke-linecap="round"/>
<path d="M63.8108 372.284C63.8108 372.284 67.881 370.735 72.7265 372.834C77.572 374.933 80.3662 379.153 80.3662 379.153" stroke="#272742" stroke-linecap="round"/>
<path d="M72.7246 354.687C72.7247 349.753 73.4379 339.215 78.6299 332.98C83.3542 327.307 87.3698 327.307 87.3698 327.307" stroke="#272742" stroke-linecap="round"/>
<path d="M72.7246 428.549C72.7246 426.484 73.0657 422.073 75.5489 419.463C77.8083 417.088 79.7288 417.088 79.7288 417.088" stroke="#272742" stroke-linecap="round"/>
<path d="M57.4424 385.888C57.4424 383.249 57.0703 377.612 54.3613 374.277C51.8965 371.243 49.8014 371.243 49.8014 371.243" stroke="#272742" stroke-linecap="round"/>
<path d="M44.0713 433.643C44.0713 431.004 43.6992 425.368 40.9903 422.033C38.5254 418.998 36.4303 418.998 36.4303 418.998" stroke="#272742" stroke-linecap="round"/>
<path d="M84.6905 442.499C85.0976 439.498 82.7644 436.827 79.7359 436.827H35.7871C32.7586 436.827 30.4254 439.498 30.8325 442.499L40.4456 513.366C40.7819 515.844 42.8986 517.693 45.4003 517.693H70.1227C72.6244 517.693 74.7411 515.844 75.0774 513.366L84.6905 442.499Z" fill="#E5E8F0"/>
<path d="M16.5985 457.321L95.5744 441.734L93.373 473.453L23.478 465.797L25.129 496.696L89.2453 458.414L84.8425 495.329L10.8198 506.54L82.9163 511.462" stroke="white" stroke-linecap="round"/>
<path d="M328.544 75.8503C328.96 74.515 330.191 73.6079 331.581 73.6079H403.049C405.194 73.6079 406.729 75.6995 406.086 77.7622L372.943 184.089C372.526 185.424 371.295 186.331 369.905 186.331H298.438C296.292 186.331 294.757 184.239 295.4 182.177L328.544 75.8503Z" fill="#272742" stroke="#272742"/>
<path d="M322.788 65.389C323.234 63.9573 324.553 62.9849 326.043 62.9849H401.934C404.232 62.9849 405.878 65.2273 405.189 67.4389L369.994 180.401C369.548 181.833 368.228 182.805 366.739 182.805H290.848C288.549 182.805 286.904 180.563 287.593 178.351L322.788 65.389Z" fill="white" stroke="#272742"/>
<path d="M322.47 90.179C322.652 89.5923 323.192 89.1929 323.804 89.1929H389.187C390.13 89.1929 390.802 90.1135 390.521 91.0191L377.943 131.448C377.76 132.034 377.22 132.434 376.609 132.434H311.225C310.282 132.434 309.61 131.513 309.891 130.608L322.47 90.179Z" fill="#E5E8F0"/>
<path d="M320.001 124.166C323.344 118.804 327.473 108.344 337.221 104.922C347.806 101.207 352.541 103.756 360.897 100.958C374.645 96.355 376.265 83.5962 387.407 82.1973" stroke="black" stroke-linecap="round"/>
<circle cx="359.546" cy="101.348" r="3.95128" fill="#E5E8F0" stroke="#272742"/>
<circle cx="359.546" cy="101.349" r="2.54359" fill="#272742"/>
<circle cx="386.77" cy="82.1979" r="2.54359" fill="#272742"/>
<circle cx="320.001" cy="124.167" r="2.54359" fill="#272742"/>
<path d="M307.919 142.608H340.35M304.421 150.875H348.934M302.196 159.46H320.001M344.801 142.608H364.196" stroke="black" stroke-linecap="round"/>
<path d="M398.829 147.45H353.697C351.61 147.45 350.461 145.773 351.137 143.701L358.455 121.277C358.828 120.235 359.502 119.324 360.393 118.658C361.285 117.991 362.354 117.598 363.469 117.528H408.602C410.695 117.528 411.844 119.211 411.168 121.277L403.844 143.701C403.473 144.744 402.799 145.657 401.907 146.324C401.016 146.99 399.945 147.382 398.829 147.45Z" fill="#272742"/>
<path d="M395.573 144.689H380.444L367.59 152.629L361.575 144.689H347.002C344.753 144.689 343.517 142.837 344.25 140.561L352.128 115.903C352.527 114.754 353.251 113.75 354.21 113.016C355.169 112.282 356.321 111.85 357.522 111.774H406.093C408.342 111.774 409.578 113.62 408.852 115.903L400.967 140.561C400.569 141.709 399.844 142.713 398.885 143.448C397.926 144.182 396.774 144.614 395.573 144.689Z" fill="#9C4FFF"/>
<path d="M394.72 120.852H385.302L381.86 132.955L387.656 128.904L391.46 132.955L394.72 120.852Z" fill="white" stroke="white" stroke-linecap="round" stroke-linejoin="round"/>
<path d="M365.223 127.281C365.8 125.401 367.796 123.876 369.671 123.876C371.546 123.876 372.595 125.401 372.016 127.281C371.437 129.161 369.441 130.683 367.565 130.683C365.69 130.683 364.644 129.161 365.223 127.281ZM363.389 127.281C362.493 130.169 364.109 132.523 366.998 132.523C369.887 132.523 372.955 130.175 373.851 127.281C374.747 124.387 373.128 122.037 370.241 122.037C367.355 122.037 364.284 124.385 363.389 127.281ZM374.519 121.829C374.309 122.505 374.686 123.053 375.363 123.053C375.721 123.032 376.065 122.905 376.351 122.687C376.636 122.468 376.85 122.17 376.965 121.829C377.175 121.153 376.798 120.604 376.121 120.604C375.763 120.626 375.419 120.754 375.134 120.972C374.849 121.19 374.635 121.488 374.519 121.829ZM361.934 135.593C361.322 135.593 360.716 135.474 360.151 135.241C359.77 135.086 359.443 134.82 359.215 134.478C358.974 134.132 358.836 133.724 358.817 133.303C358.783 132.662 358.863 132.021 359.053 131.408C359.341 130.331 359.425 130.008 360.269 127.281C361.113 124.555 361.222 124.232 361.605 123.154C361.826 122.481 362.141 121.842 362.542 121.257C362.849 120.806 363.228 120.408 363.665 120.082C364.087 119.748 364.564 119.49 365.074 119.319C365.718 119.1 366.392 118.981 367.073 118.967C368.162 118.918 368.487 118.909 371.206 118.909C373.926 118.909 374.245 118.909 375.306 118.967C375.917 118.968 376.522 119.087 377.089 119.319C377.469 119.475 377.795 119.74 378.025 120.082C378.266 120.428 378.404 120.835 378.422 121.257C378.456 121.898 378.376 122.541 378.186 123.154C377.898 124.232 377.814 124.552 376.97 127.281C376.126 130.01 376.017 130.331 375.634 131.408C375.414 132.081 375.099 132.719 374.698 133.303C374.391 133.755 374.012 134.152 373.574 134.478C373.151 134.81 372.675 135.068 372.166 135.241C371.521 135.46 370.847 135.579 370.167 135.593C369.078 135.642 368.752 135.654 366.03 135.654C363.308 135.654 362.991 135.654 361.934 135.593ZM367.557 117.13C366.665 117.155 365.782 117.315 364.938 117.604C364.155 117.874 363.423 118.272 362.769 118.782C362.101 119.288 361.517 119.899 361.041 120.59C360.515 121.355 360.098 122.19 359.802 123.071C359.416 124.159 359.295 124.515 358.44 127.281C357.584 130.048 357.486 130.4 357.198 131.492C356.959 132.295 356.862 133.133 356.91 133.97C356.942 134.618 357.155 135.244 357.524 135.778C357.878 136.304 358.379 136.713 358.964 136.956C359.702 137.263 360.492 137.423 361.291 137.43C362.363 137.479 362.706 137.493 365.471 137.493C368.237 137.493 368.588 137.493 369.688 137.43C370.581 137.406 371.465 137.246 372.31 136.956C373.092 136.687 373.825 136.289 374.476 135.778C375.146 135.273 375.73 134.662 376.204 133.97C376.732 133.206 377.15 132.372 377.446 131.492C377.832 130.4 377.95 130.048 378.808 127.281C379.667 124.515 379.762 124.159 380.047 123.071C380.287 122.267 380.385 121.427 380.335 120.59C380.301 119.941 380.088 119.315 379.719 118.782C379.364 118.256 378.863 117.846 378.278 117.604C377.54 117.298 376.75 117.138 375.951 117.13C374.882 117.081 374.536 117.069 371.771 117.069C369.006 117.069 368.654 117.069 367.551 117.13" fill="white"/>
<path d="M203.238 27.2423C203.086 27.2423 202.951 27.3403 202.905 27.4849L201.63 31.4422C201.57 31.6262 201.671 31.8234 201.855 31.8827L199.52 39.1309C199.336 39.0716 199.139 39.1727 199.079 39.3567L196.529 47.2712C196.47 47.4552 196.571 47.6524 196.755 47.7116L194.419 54.9599C194.235 54.9006 194.038 55.0017 193.979 55.1857L191.429 63.1002C191.369 63.2841 191.471 63.4813 191.655 63.5406L189.319 70.7889C189.135 70.7296 188.938 70.8307 188.879 71.0146L187.603 74.9719C187.569 75.0784 187.588 75.1949 187.654 75.2853C187.719 75.3757 187.825 75.4292 187.937 75.4292H191.997C192.19 75.4292 192.347 75.2725 192.347 75.0792H199.767C199.767 75.2725 199.924 75.4292 200.117 75.4292H208.237C208.43 75.4292 208.587 75.2725 208.587 75.0792H216.007C216.007 75.2725 216.164 75.4292 216.357 75.4292H224.478C224.671 75.4292 224.828 75.2725 224.828 75.0792H232.248C232.248 75.2725 232.405 75.4292 232.598 75.4292H240.718C240.911 75.4292 241.068 75.2725 241.068 75.0792H248.488C248.488 75.2725 248.645 75.4292 248.838 75.4292H256.959C257.152 75.4292 257.309 75.2725 257.309 75.0792H264.729C264.729 75.2725 264.886 75.4292 265.079 75.4292H273.199C273.392 75.4292 273.549 75.2725 273.549 75.0792H280.969C280.969 75.2725 281.126 75.4292 281.319 75.4292H289.44C289.633 75.4292 289.79 75.2725 289.79 75.0792H297.21C297.21 75.2725 297.367 75.4292 297.56 75.4292H305.68C305.873 75.4292 306.03 75.2725 306.03 75.0792H313.45C313.45 75.2725 313.607 75.4292 313.8 75.4292H321.921C322.114 75.4292 322.271 75.2725 322.271 75.0792H329.691C329.691 75.2725 329.848 75.4292 330.041 75.4292H334.101C334.253 75.4292 334.387 75.3312 334.434 75.1866L335.709 71.2293C335.768 71.0453 335.667 70.8481 335.483 70.7889L337.819 63.5406C338.003 63.5999 338.2 63.4988 338.259 63.3148L340.81 55.4003C340.869 55.2164 340.768 55.0192 340.584 54.9599L342.919 47.7116C343.103 47.7709 343.301 47.6698 343.36 47.4859L345.91 39.5714C345.969 39.3874 345.868 39.1902 345.684 39.1309L348.02 31.8827C348.204 31.9419 348.401 31.8409 348.46 31.6569L349.735 27.6996C349.77 27.5931 349.751 27.4767 349.685 27.3862C349.619 27.2958 349.514 27.2423 349.402 27.2423H345.342C345.149 27.2423 344.992 27.399 344.992 27.5923H337.572C337.572 27.399 337.415 27.2423 337.222 27.2423H329.102C328.908 27.2423 328.752 27.399 328.752 27.5923H321.331C321.331 27.399 321.175 27.2423 320.981 27.2423H312.861C312.668 27.2423 312.511 27.399 312.511 27.5923H305.091C305.091 27.399 304.934 27.2423 304.741 27.2423H296.621C296.427 27.2423 296.271 27.399 296.271 27.5923H288.85C288.85 27.399 288.694 27.2423 288.5 27.2423H280.38C280.187 27.2423 280.03 27.399 280.03 27.5923H272.61C272.61 27.399 272.453 27.2423 272.26 27.2423H264.14C263.946 27.2423 263.79 27.399 263.79 27.5923H256.369C256.369 27.399 256.213 27.2423 256.019 27.2423H247.899C247.706 27.2423 247.549 27.399 247.549 27.5923H240.129C240.129 27.399 239.972 27.2423 239.779 27.2423H231.659C231.465 27.2423 231.309 27.399 231.309 27.5923H223.888C223.888 27.399 223.732 27.2423 223.538 27.2423H215.418C215.225 27.2423 215.068 27.399 215.068 27.5923H207.648C207.648 27.399 207.491 27.2423 207.298 27.2423H203.238Z" stroke="#272742" stroke-width="0.7" stroke-linecap="round" stroke-linejoin="round" stroke-dasharray="8 8"/>
<path d="M345.489 23.0216C345.339 23.0216 345.205 23.1177 345.157 23.2604L342.328 31.7025C342.293 31.8093 342.31 31.9267 342.376 32.0181C342.442 32.1095 342.548 32.1637 342.66 32.1637H351.439C351.59 32.1637 351.723 32.0676 351.771 31.9249L354.6 23.4828C354.636 23.376 354.618 23.2586 354.552 23.1672C354.486 23.0758 354.381 23.0216 354.268 23.0216H345.489Z" fill="white" stroke="#272742" stroke-width="0.7" stroke-linecap="round" stroke-linejoin="round"/>
<path d="M330.716 70.5084C330.565 70.5084 330.431 70.6045 330.384 70.7472L327.555 79.1893C327.519 79.2961 327.537 79.4135 327.603 79.5049C327.668 79.5963 327.774 79.6505 327.887 79.6505H336.666C336.816 79.6505 336.95 79.5544 336.998 79.4117L339.826 70.9696C339.862 70.8628 339.844 70.7454 339.779 70.654C339.713 70.5626 339.607 70.5084 339.495 70.5084H330.716Z" fill="white" stroke="#272742" stroke-width="0.7" stroke-linecap="round" stroke-linejoin="round"/>
<path d="M199.735 23.0216C199.584 23.0216 199.451 23.1177 199.403 23.2604L196.574 31.7025C196.538 31.8093 196.556 31.9267 196.622 32.0181C196.687 32.1095 196.793 32.1637 196.906 32.1637H205.685C205.835 32.1637 205.969 32.0676 206.017 31.9249L208.846 23.4828C208.881 23.376 208.864 23.2586 208.798 23.1672C208.732 23.0758 208.626 23.0216 208.514 23.0216H199.735Z" fill="white" stroke="#272742" stroke-width="0.7" stroke-linecap="round" stroke-linejoin="round"/>
<path d="M184.961 70.5084C184.811 70.5084 184.677 70.6045 184.629 70.7472L181.8 79.1893C181.765 79.2961 181.782 79.4135 181.848 79.5049C181.914 79.5963 182.02 79.6505 182.132 79.6505H190.911C191.062 79.6505 191.195 79.5544 191.243 79.4117L194.072 70.9696C194.108 70.8628 194.09 70.7454 194.024 70.654C193.959 70.5626 193.853 70.5084 193.74 70.5084H184.961Z" fill="white" stroke="#272742" stroke-width="0.7" stroke-linecap="round" stroke-linejoin="round"/>
<path d="M515.075 141.661C520.296 136.88 521.276 129.453 517.265 125.073C513.254 120.692 505.77 121.016 500.549 125.797C495.328 130.578 494.347 138.004 498.359 142.385C502.37 146.766 509.854 146.441 515.075 141.661Z" fill="white" stroke="#272742" stroke-miterlimit="10" stroke-linecap="round" stroke-linejoin="round"/>
<path d="M509.859 131.676C511.075 130.563 511.304 128.834 510.37 127.815C509.437 126.796 507.695 126.872 506.479 127.985C505.263 129.098 505.034 130.827 505.968 131.846C506.901 132.865 508.643 132.789 509.859 131.676Z" fill="#272742"/>
<path d="M512.735 139.442C512.866 136.326 510.891 133.999 507.774 133.999C504.657 133.999 501.453 136.326 499.917 139.442H512.735Z" fill="#272742"/>
<path d="M527.879 131.71H568.494" stroke="#272742" stroke-linecap="round"/>
<path d="M526.718 136.932H551.668" stroke="#272742" stroke-linecap="round"/>
<path d="M450.506 94.7456C451.095 92.8704 452.833 91.5947 454.799 91.5947H533.372C536.411 91.5947 538.576 94.5448 537.665 97.4439L532.967 112.393C532.378 114.268 530.64 115.544 528.674 115.544H450.101C447.062 115.544 444.896 112.594 445.808 109.695L450.506 94.7456Z" fill="white" stroke="#272742"/>
<path d="M462.849 107.38C466.385 104.35 467.476 99.7992 465.285 97.2162C463.093 94.6331 458.45 94.9957 454.913 98.0259C451.377 101.056 450.286 105.607 452.477 108.19C454.669 110.773 459.312 110.41 462.849 107.38Z" fill="#FFD94E"/>
<path d="M483.157 107.38C486.693 104.35 487.784 99.7992 485.593 97.2162C483.401 94.6331 478.758 94.9957 475.221 98.0259C471.685 101.056 470.594 105.607 472.786 108.19C474.977 110.773 479.62 110.41 483.157 107.38Z" fill="#FFD94E"/>
<path d="M527.833 107.38C531.37 104.35 532.461 99.7992 530.269 97.2162C528.078 94.6331 523.435 94.9957 519.898 98.0259C516.362 101.056 515.271 105.607 517.462 108.19C519.654 110.773 524.297 110.41 527.833 107.38Z" fill="#FFD94E"/>
<path d="M526.929 99.2426C526.765 99.7347 526.458 100.166 526.046 100.482C525.635 100.797 525.138 100.981 524.621 101.011C523.645 101.011 523.097 100.219 523.397 99.2426C523.561 98.7514 523.868 98.3205 524.279 98.0058C524.69 97.6911 525.185 97.5069 525.702 97.4771C526.678 97.4771 527.226 98.2666 526.929 99.2426ZM527.291 106.18C528.01 103.83 526.69 101.924 524.341 101.924C521.992 101.924 519.503 103.83 518.784 106.18H527.291Z" fill="white"/>
<path d="M481.994 99.8132C481.518 99.8197 481.05 99.9229 480.622 100.115C480.195 100.308 479.819 100.585 479.522 100.927C479.469 100.836 479.207 99.7983 477.633 99.7983C475.862 99.7983 474.745 101.418 475.044 103.102C475.519 105.77 477.212 106.702 477.424 106.761H477.442C477.702 106.695 480.451 106.126 482.835 103.46C484.339 101.785 483.765 99.8132 481.994 99.8132Z" fill="white"/>
<path d="M457.426 101.98L457.894 101.717C457.915 101.705 457.935 101.692 457.953 101.678C458.17 101.511 459.573 100.419 460.051 99.7234C460.068 99.7 460.08 99.6748 460.09 99.6484L460.498 98.5261C460.548 98.4006 460.645 98.2948 460.772 98.2271C461.007 98.0957 461.395 97.9557 461.745 98.1614C461.783 98.1834 461.81 98.2173 461.823 98.2567C461.93 98.6096 461.965 98.9771 461.928 99.3416C461.912 99.4898 461.865 99.6338 461.79 99.7661L461.066 101.08C461.05 101.109 461.066 101.135 461.097 101.135H463.608C463.903 101.135 464.098 101.319 464.066 101.581C464.042 101.75 463.971 101.911 463.859 102.048C463.747 102.185 463.599 102.293 463.427 102.363C463.364 102.388 463.328 102.455 463.355 102.494C463.399 102.555 463.426 102.624 463.433 102.696C463.441 102.768 463.43 102.841 463.4 102.908C463.307 103.165 463.025 103.349 462.893 103.424C462.878 103.43 462.865 103.442 462.859 103.457C462.852 103.472 462.851 103.488 462.857 103.503C462.893 103.565 462.941 103.696 462.867 103.897C462.778 104.141 462.506 104.347 462.323 104.437C462.299 104.447 462.279 104.464 462.266 104.485C462.253 104.507 462.247 104.531 462.251 104.556C462.288 104.7 462.277 104.851 462.219 104.989C462.095 105.329 461.622 105.599 461.263 105.599H456.905C456.862 105.599 456.82 105.589 456.782 105.57L456.27 105.291C456.228 105.265 456.197 105.227 456.183 105.182C456.169 105.138 456.172 105.09 456.193 105.048L457.231 102.194C457.267 102.104 457.336 102.029 457.426 101.98Z" fill="white"/>
<path d="M455.255 105.6H453.861C453.68 105.6 453.582 105.469 453.644 105.303L454.96 101.683C454.993 101.6 455.052 101.528 455.129 101.476C455.206 101.423 455.298 101.392 455.394 101.386H456.788C456.968 101.386 457.067 101.517 457.005 101.683L455.691 105.304C455.658 105.386 455.599 105.458 455.522 105.511C455.444 105.563 455.352 105.594 455.255 105.6Z" fill="white"/>
<path d="M591.348 27.2967C591.619 27.4527 591.947 27.473 592.235 27.3518L594.212 26.5195C594.74 26.2971 595.347 26.5632 595.541 27.1024L595.909 28.1238C596.046 28.5037 596.397 28.764 596.8 28.7839L598.158 28.8507C598.794 28.8821 599.239 29.4925 599.075 30.108L598.728 31.4028C598.623 31.7947 598.766 32.2111 599.088 32.4569L599.95 33.113C600.408 33.4617 600.478 34.124 600.103 34.5605L598.717 36.1734C598.512 36.4115 598.431 36.7319 598.498 37.0387L598.84 38.6008C598.936 39.0441 598.723 39.4971 598.319 39.7042L596.025 40.8811C595.803 40.9949 595.631 41.1875 595.544 41.421L594.738 43.5795C594.598 43.9541 594.248 44.2094 593.849 44.2285L591.54 44.3391C591.292 44.3509 591.057 44.4549 590.881 44.6306L589.054 46.4566C588.734 46.7762 588.24 46.8415 587.848 46.6159L586.452 45.8119C586.181 45.656 585.853 45.6356 585.565 45.7569L583.586 46.59C583.058 46.812 582.452 46.5469 582.257 46.0089L581.886 44.983C581.749 44.6041 581.397 44.3446 580.995 44.3247L579.64 44.2579C579.004 44.2265 578.559 43.6173 578.722 43.0023L579.067 41.704C579.171 41.313 579.029 40.8979 578.708 40.6524L577.847 39.9952C577.39 39.6465 577.32 38.9855 577.695 38.5493L579.083 36.9307C579.288 36.692 579.368 36.3709 579.3 36.0638L578.957 34.5098C578.859 34.0656 579.072 33.6112 579.477 33.4038L581.774 32.2279C581.997 32.1139 582.168 31.9206 582.256 31.6861L583.056 29.5307C583.196 29.1552 583.546 28.8992 583.946 28.8801L586.26 28.7695C586.508 28.7577 586.743 28.6537 586.919 28.4779L588.746 26.652C589.066 26.3324 589.56 26.2671 589.952 26.4927L591.348 27.2967Z" fill="#89FFB8"/>
<path d="M585.128 35.8096L587.543 38.8748L594.992 33.6528" stroke="#272742" stroke-miterlimit="10" stroke-linecap="round"/>
<path d="M495.763 85.7891C496.086 84.7327 497.063 84.013 498.167 84.0185L514.234 84.0993C515.908 84.1077 517.101 85.7273 516.612 87.3287L511.628 103.668C511.306 104.724 510.329 105.444 509.225 105.438L493.158 105.357C491.484 105.349 490.291 103.729 490.78 102.128L495.763 85.7891Z" fill="white" stroke="#272742"/>
<path d="M460.696 204.42C460.561 204.831 460.178 205.109 459.746 205.109H441.381C440.701 205.109 440.219 204.444 440.431 203.798L445.155 189.363C445.29 188.952 445.673 188.674 446.105 188.674H464.47C465.15 188.674 465.632 189.339 465.42 189.985L460.696 204.42Z" fill="white" stroke="#272742" stroke-miterlimit="10" stroke-linejoin="round"/>
<path d="M436.555 203.042C436.152 204.275 435.002 205.109 433.704 205.109H398.688C396.647 205.109 395.202 203.115 395.837 201.176L399.252 190.741C399.655 189.508 400.806 188.674 402.103 188.674H437.119C439.16 188.674 440.605 190.668 439.97 192.607L436.555 203.042Z" fill="#89FFB8"/>
<path d="M446.726 199.631C446.726 199.631 450.959 199.432 454.295 197.141C457.383 195.049 459.126 192.659 459.774 191.613" stroke="#272742" stroke-linejoin="round"/>
<path d="M460.122 195.747C459.972 195.747 459.873 195.647 459.873 195.498L459.773 191.713L456.387 193.456C456.287 193.505 456.138 193.456 456.038 193.356C455.988 193.256 456.038 193.107 456.138 193.007L459.873 191.115C459.972 191.065 460.022 191.065 460.122 191.115C460.221 191.165 460.221 191.215 460.221 191.314L460.371 195.498C460.371 195.547 460.371 195.597 460.321 195.647C460.271 195.697 460.221 195.747 460.122 195.747Z" fill="#272742"/>
<path d="M446.625 200.726C447.313 200.726 447.87 200.169 447.87 199.481C447.87 198.793 447.313 198.236 446.625 198.236C445.938 198.236 445.38 198.793 445.38 199.481C445.38 200.169 445.938 200.726 446.625 200.726Z" fill="white" stroke="#272742" stroke-miterlimit="10" stroke-linejoin="round"/>
<path d="M506.783 95.9186L505.844 100.958L501.582 98.5829L495.502 100.958L498.414 95.9186L495.592 92.3553L501.657 91.6203L505.995 87.0332L506.828 91.6203L512.329 92.3553L506.783 95.9186Z" fill="#FFD94E"/>
<path d="M404.123 196.405H431.684" stroke="black" stroke-linecap="round"/>
</svg>
