<svg width="20" height="21" viewBox="0 0 20 21" fill="none" xmlns="http://www.w3.org/2000/svg">
<path opacity="0.4" d="M18.4705 0.293109H1.53055C1.34013 0.290464 1.15105 0.325356 0.974113 0.395792C0.797177 0.466229 0.63585 0.570829 0.499344 0.703621C0.362839 0.836412 0.253828 0.994793 0.178539 1.16972C0.103249 1.34464 0.0631553 1.53269 0.0605469 1.72311V18.8631C0.0631553 19.0535 0.103249 19.2416 0.178539 19.4165C0.253828 19.5914 0.362839 19.7498 0.499344 19.8826C0.63585 20.0154 0.797177 20.12 0.974113 20.1904C1.15105 20.2609 1.34013 20.2958 1.53055 20.2931H18.4705C18.661 20.2958 18.85 20.2609 19.027 20.1904C19.2039 20.12 19.3652 20.0154 19.5017 19.8826C19.6383 19.7498 19.7473 19.5914 19.8226 19.4165C19.8978 19.2416 19.9379 19.0535 19.9405 18.8631V1.72311C19.9379 1.53269 19.8978 1.34464 19.8226 1.16972C19.7473 0.994793 19.6383 0.836412 19.5017 0.703621C19.3652 0.570829 19.2039 0.466229 19.027 0.395792C18.85 0.325356 18.661 0.290464 18.4705 0.293109ZM6.09055 17.0331H3.09055V8.03311H6.09055V17.0331ZM4.59055 6.77311C4.17681 6.77311 3.78002 6.60875 3.48746 6.3162C3.1949 6.02364 3.03055 5.62685 3.03055 5.21311C3.03055 4.79937 3.1949 4.40258 3.48746 4.11002C3.78002 3.81747 4.17681 3.65311 4.59055 3.65311C4.81024 3.62819 5.03272 3.64996 5.24342 3.71699C5.45412 3.78402 5.64829 3.8948 5.8132 4.04207C5.97812 4.18934 6.11007 4.36979 6.20042 4.57159C6.29076 4.77339 6.33746 4.992 6.33746 5.21311C6.33746 5.43421 6.29076 5.65282 6.20042 5.85463C6.11007 6.05643 5.97812 6.23688 5.8132 6.38415C5.64829 6.53142 5.45412 6.6422 5.24342 6.70923C5.03272 6.77625 4.81024 6.79802 4.59055 6.77311ZM16.9105 17.0331H13.9105V12.2031C13.9105 10.9931 13.4805 10.2031 12.3905 10.2031C12.0532 10.2056 11.7247 10.3114 11.4494 10.5063C11.174 10.7012 10.965 10.9758 10.8505 11.2931C10.7723 11.5281 10.7384 11.7757 10.7505 12.0231V17.0231H7.75055C7.75055 17.0231 7.75055 8.84311 7.75055 8.02311H10.7505V9.29311C11.0231 8.82021 11.4195 8.43063 11.897 8.16631C12.3745 7.90199 12.9151 7.77296 13.4605 7.79311C15.4605 7.79311 16.9105 9.08311 16.9105 11.8531V17.0331Z" fill="white"/>
</svg>
