<svg width="20" height="21" viewBox="0 0 20 21" fill="none" xmlns="http://www.w3.org/2000/svg">
<path opacity="0.4" d="M15.34 3.75297C15.1027 3.75297 14.8707 3.82335 14.6733 3.95521C14.476 4.08706 14.3222 4.27448 14.2313 4.49375C14.1405 4.71302 14.1168 4.9543 14.1631 5.18708C14.2094 5.41985 14.3236 5.63367 14.4915 5.8015C14.6593 5.96932 14.8731 6.08361 15.1059 6.12991C15.3387 6.17621 15.5799 6.15245 15.7992 6.06162C16.0185 5.9708 16.2059 5.81699 16.3378 5.61965C16.4696 5.42231 16.54 5.19031 16.54 4.95297C16.54 4.63471 16.4136 4.32948 16.1885 4.10444C15.9635 3.8794 15.6583 3.75297 15.34 3.75297ZM19.94 6.17297C19.9206 5.34327 19.7652 4.52237 19.48 3.74297C19.2257 3.0761 18.83 2.47225 18.32 1.97297C17.8248 1.46039 17.2196 1.06715 16.55 0.822969C15.7727 0.52913 14.9508 0.370179 14.12 0.352969C13.06 0.292969 12.72 0.292969 10 0.292969C7.28 0.292969 6.94 0.292969 5.88 0.352969C5.04915 0.370179 4.22734 0.52913 3.45 0.822969C2.78168 1.06962 2.17693 1.46253 1.68 1.97297C1.16743 2.46815 0.774176 3.07341 0.53 3.74297C0.236161 4.52031 0.07721 5.34212 0.0599999 6.17297C-5.58794e-08 7.23297 0 7.57297 0 10.293C0 13.013 -5.58794e-08 13.353 0.0599999 14.413C0.07721 15.2438 0.236161 16.0656 0.53 16.843C0.774176 17.5125 1.16743 18.1178 1.68 18.613C2.17693 19.1234 2.78168 19.5163 3.45 19.763C4.22734 20.0568 5.04915 20.2158 5.88 20.233C6.94 20.293 7.28 20.293 10 20.293C12.72 20.293 13.06 20.293 14.12 20.233C14.9508 20.2158 15.7727 20.0568 16.55 19.763C17.2196 19.5188 17.8248 19.1255 18.32 18.613C18.8322 18.1155 19.2283 17.5112 19.48 16.843C19.7652 16.0636 19.9206 15.2427 19.94 14.413C19.94 13.353 20 13.013 20 10.293C20 7.57297 20 7.23297 19.94 6.17297ZM18.14 14.293C18.1327 14.9277 18.0178 15.5567 17.8 16.153C17.6403 16.5882 17.3839 16.9814 17.05 17.303C16.7256 17.6335 16.3332 17.8894 15.9 18.053C15.3037 18.2707 14.6748 18.3857 14.04 18.393C13.04 18.443 12.67 18.453 10.04 18.453C7.41 18.453 7.04 18.453 6.04 18.393C5.38089 18.4053 4.72459 18.3038 4.1 18.093C3.68578 17.921 3.31136 17.6658 3 17.343C2.66809 17.0217 2.41484 16.6282 2.26 16.193C2.01586 15.5881 1.88044 14.9449 1.86 14.293C1.86 13.293 1.8 12.923 1.8 10.293C1.8 7.66297 1.8 7.29297 1.86 6.29297C1.86448 5.64402 1.98295 5.00091 2.21 4.39297C2.38605 3.97088 2.65627 3.59463 3 3.29297C3.30381 2.94914 3.67929 2.67606 4.1 2.49297C4.70955 2.27301 5.352 2.15805 6 2.15297C7 2.15297 7.37 2.09297 10 2.09297C12.63 2.09297 13 2.09297 14 2.15297C14.6348 2.16025 15.2637 2.27522 15.86 2.49297C16.3144 2.66162 16.7223 2.93582 17.05 3.29297C17.3777 3.60015 17.6338 3.9757 17.8 4.39297C18.0223 5.0019 18.1373 5.64475 18.14 6.29297C18.19 7.29297 18.2 7.66297 18.2 10.293C18.2 12.923 18.19 13.293 18.14 14.293ZM10 5.16297C8.98581 5.16495 7.99496 5.46749 7.15265 6.03239C6.31035 6.59728 5.65438 7.39917 5.26763 8.33672C4.88089 9.27428 4.78072 10.3054 4.97979 11.2999C5.17886 12.2944 5.66824 13.2075 6.38608 13.9239C7.10392 14.6404 8.01801 15.128 9.01286 15.3251C10.0077 15.5223 11.0387 15.4201 11.9755 15.0315C12.9123 14.6429 13.7129 13.9854 14.2761 13.142C14.8394 12.2986 15.14 11.3072 15.14 10.293C15.1413 9.61807 15.0092 8.94958 14.7512 8.32592C14.4933 7.70227 14.1146 7.13578 13.6369 6.65902C13.1592 6.18226 12.5919 5.80465 11.9678 5.5479C11.3436 5.29115 10.6749 5.16033 10 5.16297ZM10 13.623C9.34139 13.623 8.69757 13.4277 8.14995 13.0618C7.60234 12.6959 7.17552 12.1758 6.92348 11.5673C6.67144 10.9588 6.6055 10.2893 6.73398 9.64332C6.86247 8.99736 7.17963 8.40401 7.64533 7.9383C8.11104 7.47259 8.70439 7.15544 9.35035 7.02695C9.99631 6.89847 10.6659 6.96441 11.2743 7.21645C11.8828 7.46849 12.4029 7.8953 12.7688 8.44292C13.1347 8.99054 13.33 9.63436 13.33 10.293C13.33 10.7303 13.2439 11.1633 13.0765 11.5673C12.9092 11.9713 12.6639 12.3384 12.3547 12.6476C12.0454 12.9569 11.6784 13.2021 11.2743 13.3695C10.8703 13.5368 10.4373 13.623 10 13.623Z" fill="white"/>
</svg>
