<svg width="186" height="124" viewBox="0 0 186 124" fill="none" xmlns="http://www.w3.org/2000/svg">
<path d="M47.7014 45.1933H14.8245C14.142 45.1933 13.8007 44.6821 14.0282 44.0004L26.8263 2.64699C27.0538 1.96534 27.7364 1.4541 28.3621 1.4541H61.239C61.9216 1.4541 62.2628 1.96534 62.0353 2.64699L49.2372 44.0004C49.0666 44.6821 48.384 45.1933 47.7014 45.1933Z" fill="white" stroke="#272742" stroke-miterlimit="10" stroke-linecap="round"/>
<path d="M34.8333 48.5751H26.6743L27.9031 45.041H36.1112L34.8333 48.5751Z" fill="white" stroke="#272742" stroke-miterlimit="10" stroke-linecap="round"/>
<path d="M26.4859 63.9958H24.3813L25.8602 59.3379H27.9648L26.4859 63.9958Z" fill="#272742" stroke="#272742" stroke-miterlimit="10" stroke-linecap="round"/>
<path d="M16.6453 35.4229L13.9719 44.0003C13.7444 44.6819 14.1425 45.1932 14.7682 45.1932H47.6451C48.3277 45.1932 49.0103 44.6819 49.1809 44.0003L51.8543 35.4229H16.6453Z" fill="#272742" stroke="#272742" stroke-miterlimit="10" stroke-linecap="round"/>
<path d="M21.4153 39.1593C21.8684 38.7713 22.0037 38.1865 21.7174 37.853C21.4311 37.5196 20.8317 37.5638 20.3786 37.9518C19.9254 38.3398 19.7902 38.9246 20.0764 39.2581C20.3627 39.5915 20.9621 39.5473 21.4153 39.1593Z" fill="#89FFB8"/>
<path d="M26.3153 37.752L24.2676 39.3425" stroke="white" stroke-miterlimit="10" stroke-linecap="round"/>
<path d="M25.8598 39.3425L24.7222 37.752" stroke="white" stroke-miterlimit="10" stroke-linecap="round"/>
<path d="M27.1269 60.3555C24.1202 60.3555 22.4499 57.9032 23.4044 54.9221L25.2656 48.8637C25.3133 48.7194 25.4565 48.5752 25.5997 48.5752H35.9082C36.0513 48.5752 36.1468 48.6714 36.099 48.8637L34.2378 54.9221C33.2833 57.9513 30.1335 60.3555 27.1269 60.3555Z" fill="#272742" stroke="#272742" stroke-miterlimit="10" stroke-linecap="round"/>
<path d="M87.5748 36.3887C89.3381 36.3887 90.3619 37.8088 89.7931 39.6265L88.7124 43.2052C88.7124 43.3188 88.5986 43.3756 88.4849 43.3756H82.3418C82.228 43.3756 82.228 43.3188 82.228 43.2052L83.3088 39.6265C83.8776 37.8656 85.7546 36.3887 87.5748 36.3887Z" fill="#272742" stroke="#272742" stroke-miterlimit="10" stroke-linecap="round"/>
<path d="M26.1449 61.6664L20.4568 80.0141C17.499 89.614 22.9027 97.453 32.5155 97.453C42.1283 97.453 52.3668 89.6708 55.3245 80.0141L70.6254 30.4809C72.218 25.3685 77.6786 21.165 82.7978 21.165C87.917 21.165 90.8179 25.3117 89.2253 30.4809L83.1391 53.373" stroke="#272742" stroke-miterlimit="10" stroke-linecap="round"/>
<path d="M42.1851 23.7783H44.3466C46.053 23.7783 47.475 22.3582 47.475 20.6541C47.475 18.9499 46.053 17.5298 44.3466 17.5298C44.2897 17.5298 44.1759 17.5298 44.119 17.5298C43.4934 15.6553 41.7301 14.292 39.6255 14.292C37.8053 14.292 36.2127 15.3145 35.4163 16.7914C34.9044 16.5074 34.3356 16.3369 33.7099 16.3369C31.6622 16.3369 30.0127 17.9843 30.0127 20.0292C30.0127 22.0742 31.6622 23.7215 33.7099 23.7215L42.1851 23.7783Z" fill="#89FFB8" stroke="#272742" stroke-miterlimit="10"/>
<path d="M33.4821 20.2568C32.4013 20.2568 31.4912 20.8817 31.0931 21.8474C30.9224 21.7905 30.6949 21.7337 30.4674 21.7337C29.4435 21.7337 28.5903 22.5858 28.5903 23.6083C28.5903 24.6308 29.4435 25.4828 30.4674 25.4828C30.9793 25.4828 32.8564 25.4828 33.4821 25.4828C34.9041 25.4828 36.0985 24.2899 36.0985 22.8698C36.0985 21.4497 34.9609 20.2568 33.4821 20.2568Z" fill="#E5E8F0" stroke="#272742" stroke-miterlimit="10"/>
<path d="M100.715 38.6039C101.283 36.7294 103.047 35.4229 105.038 35.4229H180.916C183.76 35.4229 185.751 38.1495 184.898 40.8761L167.663 96.6577C167.322 97.6802 166.412 98.3619 165.331 98.3619H82.2285L100.715 38.6039Z" fill="#272742"/>
<path d="M77.5074 44.9657C78.19 42.7503 80.2377 41.2734 82.5129 41.2734H170.905C174.261 41.2734 176.536 44.3977 175.569 47.6355L154.808 114.551H55.9497L77.5074 44.9657Z" fill="white" stroke="#272742" stroke-miterlimit="10" stroke-linecap="round"/>
<path d="M1.02911 122.121L1.02988 122.119L3.81407 115.083C3.91105 114.862 4.07745 114.767 4.26219 114.767H154.87L152.303 122.459L152.299 122.469L152.296 122.479C152.251 122.638 152.068 122.798 151.81 122.798H1.53193C1.38047 122.798 1.22823 122.73 1.06895 122.531C0.980036 122.42 0.965409 122.28 1.02911 122.121Z" fill="white" stroke="#272742"/>
<path d="M143.716 117.676C143.716 117.335 143.432 116.994 143.034 116.994C142.635 116.994 142.351 117.278 142.351 117.676C142.351 118.017 142.635 118.357 143.034 118.357C143.432 118.357 143.716 118.017 143.716 117.676Z" fill="#272742"/>
<path d="M142.864 120.175C142.864 119.834 142.579 119.493 142.181 119.493C141.783 119.493 141.499 119.777 141.499 120.175C141.499 120.516 141.783 120.856 142.181 120.856C142.579 120.856 142.864 120.516 142.864 120.175Z" fill="#272742"/>
<path d="M139.109 120.175C139.109 119.834 138.825 119.493 138.427 119.493C138.029 119.493 137.744 119.777 137.744 120.175C137.744 120.516 138.029 120.856 138.427 120.856C138.825 120.856 139.109 120.516 139.109 120.175Z" fill="#272742"/>
<path d="M135.298 120.175C135.298 119.834 135.013 119.493 134.615 119.493C134.217 119.493 133.933 119.777 133.933 120.175C133.933 120.516 134.217 120.856 134.615 120.856C135.013 120.856 135.298 120.516 135.298 120.175Z" fill="#272742"/>
<path d="M66.3022 102.395H107.256C107.484 102.395 107.711 102.224 107.768 101.997L121.249 61.0412C121.362 60.7004 121.078 60.3027 120.737 60.3027H79.7829C79.5553 60.3027 79.3278 60.4731 79.2709 60.7004L65.7903 101.656C65.6196 102.054 65.904 102.395 66.3022 102.395Z" fill="#E5E8F0"/>
<path d="M99.5566 76.6496C102.478 74.1725 103.396 70.4584 101.607 68.3539C99.8178 66.2494 95.9991 66.5514 93.0775 69.0285C90.156 71.5056 89.238 75.2197 91.0271 77.3242C92.8163 79.4287 96.6351 79.1267 99.5566 76.6496Z" fill="#272742"/>
<path d="M101.966 93.9307C104.242 87.0006 100.487 81.377 93.548 81.377C86.6086 81.377 79.1004 87.0006 76.8252 93.9307H101.966Z" fill="#272742"/>
<path d="M84.1054 47.6931C84.7337 47.6931 85.243 47.1844 85.243 46.557C85.243 45.9295 84.7337 45.4209 84.1054 45.4209C83.4771 45.4209 82.9678 45.9295 82.9678 46.557C82.9678 47.1844 83.4771 47.6931 84.1054 47.6931Z" fill="#272742"/>
<path d="M88.8266 47.6931C89.4548 47.6931 89.9642 47.1844 89.9642 46.557C89.9642 45.9295 89.4548 45.4209 88.8266 45.4209C88.1983 45.4209 87.689 45.9295 87.689 46.557C87.689 47.1844 88.1983 47.6931 88.8266 47.6931Z" fill="#272742"/>
<path d="M93.4906 47.6931C94.1189 47.6931 94.6283 47.1844 94.6283 46.557C94.6283 45.9295 94.1189 45.4209 93.4906 45.4209C92.8624 45.4209 92.353 45.9295 92.353 46.557C92.353 47.1844 92.8624 47.6931 93.4906 47.6931Z" fill="#272742"/>
<path d="M117.949 94.8398H131.999" stroke="#272742" stroke-miterlimit="10" stroke-linecap="round" stroke-linejoin="round"/>
<path d="M116.755 99.3271H145.536" stroke="#272742" stroke-miterlimit="10" stroke-linecap="round" stroke-linejoin="round"/>
<path d="M137.972 90.296H119.656C119.258 90.296 118.974 89.8983 119.087 89.5575L120.054 86.6037C120.111 86.3765 120.339 86.2061 120.623 86.2061H138.939C139.337 86.2061 139.621 86.6037 139.507 86.9445L138.54 89.8983C138.427 90.1255 138.199 90.296 137.972 90.296Z" fill="#9C4FFF"/>
<path d="M75.7446 50.874H174.432" stroke="#272742" stroke-miterlimit="10" stroke-linecap="round"/>
</svg>
