<svg width="160" height="24" viewBox="0 0 160 24" fill="none" xmlns="http://www.w3.org/2000/svg">
<path d="M19.9062 23.0625L19.875 9.9375L13.4375 20.75H11.1562L4.75 10.2188V23.0625H0V1.1875H4.1875L12.375 14.7813L20.4375 1.1875H24.5937L24.6562 23.0625H19.9062Z" fill="black"/>
<path d="M44.2524 18.375H34.0962L32.1587 23.0625H26.9712L36.7212 1.1875H41.7212L51.5024 23.0625H46.1899L44.2524 18.375ZM42.6587 14.5313L39.1899 6.15625L35.7212 14.5313H42.6587Z" fill="black"/>
<path d="M73.8345 1.1875V23.0625H69.6782L58.772 9.78125V23.0625H53.772V1.1875H57.9595L68.8345 14.4688V1.1875H73.8345Z" fill="black"/>
<path d="M93.4162 18.375H83.26L81.3225 23.0625H76.135L85.885 1.1875H90.885L100.666 23.0625H95.3537L93.4162 18.375ZM91.8225 14.5313L88.3537 6.15625L84.885 14.5313H91.8225Z" fill="black"/>
<path d="M111.467 22.875C111.738 22.875 112.019 22.8438 112.311 22.7812C112.602 22.7188 112.863 22.6042 113.092 22.4375C113.405 22.2083 113.634 21.9167 113.78 21.5625C113.925 21.1875 114.092 20.6458 114.28 19.9375L114.998 17.1875C115.227 16.3333 115.311 15.6979 115.248 15.2812C115.207 14.8646 114.977 14.5833 114.561 14.4375C114.165 14.2917 113.53 14.2083 112.655 14.1875L112.811 13.5625C113.29 13.5833 113.873 13.6042 114.561 13.625C115.248 13.625 115.957 13.6354 116.686 13.6563C117.436 13.6563 118.123 13.6563 118.748 13.6563C119.811 13.6563 120.79 13.6458 121.686 13.625C122.602 13.6042 123.342 13.5833 123.905 13.5625L123.748 14.1875C123.29 14.2083 122.925 14.2813 122.655 14.4063C122.405 14.5313 122.186 14.7812 121.998 15.1563C121.832 15.5313 121.644 16.1042 121.436 16.875L119.78 23.0625H119.155C119.175 22.3958 119.082 21.9375 118.873 21.6875C118.665 21.4167 118.352 21.2812 117.936 21.2812C117.352 21.2812 116.738 21.4479 116.092 21.7812C115.467 22.0938 114.884 22.3646 114.342 22.5938C113.571 22.9479 112.863 23.1875 112.217 23.3125C111.592 23.4375 110.967 23.5 110.342 23.5C107.53 23.5 105.311 22.875 103.686 21.625C102.082 20.375 101.28 18.6146 101.28 16.3438C101.28 14.9271 101.519 13.4792 101.998 12C102.498 10.5208 103.207 9.09375 104.123 7.71875C105.061 6.34375 106.175 5.11458 107.467 4.03125C108.78 2.94792 110.248 2.09375 111.873 1.46875C113.498 0.822917 115.259 0.5 117.155 0.5C118.509 0.5 119.55 0.697917 120.28 1.09375C121.03 1.48958 121.696 1.96875 122.28 2.53125C122.592 2.84375 122.884 2.89583 123.155 2.6875C123.425 2.47917 123.727 1.89583 124.061 0.937502H124.748C124.436 1.75 124.113 2.73958 123.78 3.90625C123.446 5.05208 123.102 6.45833 122.748 8.125H122.061C122.102 7.70833 122.134 7.3125 122.155 6.9375C122.196 6.54167 122.217 6.15625 122.217 5.78125C122.217 5.34375 122.186 4.94792 122.123 4.59375C122.082 4.23958 121.967 3.875 121.78 3.5C121.384 2.70833 120.78 2.10417 119.967 1.6875C119.175 1.27083 118.175 1.0625 116.967 1.0625C115.759 1.0625 114.655 1.4375 113.655 2.1875C112.675 2.91667 111.8 3.89583 111.03 5.125C110.28 6.33333 109.655 7.66667 109.155 9.125C108.655 10.5625 108.269 12.0104 107.998 13.4688C107.748 14.9063 107.623 16.2083 107.623 17.375C107.623 19.25 107.946 20.6354 108.592 21.5312C109.238 22.4271 110.196 22.875 111.467 22.875Z" fill="#9C4FFF"/>
<path d="M126.709 1.1875H131.771V23.0625H126.709V1.1875Z" fill="black"/>
<path d="M147.557 23.4375C145.286 23.4375 143.234 22.9479 141.4 21.9688C139.588 20.9896 138.161 19.6458 137.119 17.9375C136.098 16.2083 135.588 14.2708 135.588 12.125C135.588 9.97917 136.098 8.05208 137.119 6.34375C138.161 4.61458 139.588 3.26042 141.4 2.28125C143.234 1.30208 145.286 0.812502 147.557 0.812502C149.827 0.812502 151.869 1.30208 153.682 2.28125C155.494 3.26042 156.921 4.61458 157.963 6.34375C159.005 8.05208 159.525 9.97917 159.525 12.125C159.525 14.2708 159.005 16.2083 157.963 17.9375C156.921 19.6458 155.494 20.9896 153.682 21.9688C151.869 22.9479 149.827 23.4375 147.557 23.4375ZM147.557 19.125C148.848 19.125 150.015 18.8333 151.057 18.25C152.098 17.6458 152.911 16.8125 153.494 15.75C154.098 14.6875 154.4 13.4792 154.4 12.125C154.4 10.7708 154.098 9.5625 153.494 8.5C152.911 7.4375 152.098 6.61458 151.057 6.03125C150.015 5.42708 148.848 5.125 147.557 5.125C146.265 5.125 145.098 5.42708 144.057 6.03125C143.015 6.61458 142.192 7.4375 141.588 8.5C141.005 9.5625 140.713 10.7708 140.713 12.125C140.713 13.4792 141.005 14.6875 141.588 15.75C142.192 16.8125 143.015 17.6458 144.057 18.25C145.098 18.8333 146.265 19.125 147.557 19.125Z" fill="black"/>
</svg>
