<svg width="159" height="23" viewBox="0 0 159 23" fill="none" xmlns="http://www.w3.org/2000/svg">
<g opacity="0.4">
<path d="M19.9237 22.5625L19.8926 9.4375L13.4852 20.25H11.2146L4.83819 9.71875V22.5625H0.110352V0.6875H4.27831L12.4276 14.2813L20.4525 0.6875H24.5894L24.6516 22.5625H19.9237Z" fill="white"/>
<path d="M44.1563 17.875H34.0475L32.119 22.5625H26.9557L36.6602 0.6875H41.6369L51.3725 22.5625H46.0848L44.1563 17.875ZM42.57 14.0313L39.1175 5.65625L35.6649 14.0313H42.57Z" fill="white"/>
<path d="M73.6003 0.6875V22.5625H69.4635L58.6081 9.28125V22.5625H53.6315V0.6875H57.7994L68.6237 13.9688V0.6875H73.6003Z" fill="white"/>
<path d="M93.0908 17.875H82.9819L81.0535 22.5625H75.8902L85.5947 0.6875H90.5713L100.307 22.5625H95.0192L93.0908 17.875ZM91.5045 14.0313L88.0519 5.65625L84.5993 14.0313H91.5045Z" fill="white"/>
<path d="M111.057 22.375C111.327 22.375 111.607 22.3438 111.897 22.2812C112.187 22.2188 112.447 22.1042 112.675 21.9375C112.986 21.7083 113.214 21.4167 113.359 21.0625C113.504 20.6875 113.67 20.1458 113.857 19.4375L114.572 16.6875C114.8 15.8333 114.883 15.1979 114.821 14.7812C114.779 14.3646 114.551 14.0833 114.137 13.9375C113.743 13.7917 113.11 13.7083 112.239 13.6875L112.395 13.0625C112.872 13.0833 113.452 13.1042 114.137 13.125C114.821 13.125 115.526 13.1354 116.252 13.1563C116.998 13.1563 117.683 13.1563 118.305 13.1563C119.362 13.1563 120.337 13.1458 121.228 13.125C122.141 13.1042 122.877 13.0833 123.437 13.0625L123.281 13.6875C122.825 13.7083 122.462 13.7813 122.193 13.9063C121.944 14.0313 121.726 14.2813 121.539 14.6563C121.374 15.0313 121.187 15.6042 120.98 16.375L119.331 22.5625H118.709C118.73 21.8958 118.636 21.4375 118.429 21.1875C118.222 20.9167 117.911 20.7812 117.496 20.7812C116.915 20.7812 116.304 20.9479 115.661 21.2812C115.039 21.5937 114.458 21.8646 113.919 22.0938C113.152 22.4479 112.447 22.6875 111.804 22.8125C111.182 22.9375 110.56 23 109.938 23C107.138 23 104.93 22.375 103.312 21.125C101.716 19.875 100.917 18.1146 100.917 15.8438C100.917 14.4271 101.156 12.9792 101.633 11.5C102.13 10.0208 102.835 8.59375 103.748 7.21875C104.681 5.84375 105.79 4.61458 107.076 3.53125C108.382 2.44792 109.844 1.59375 111.462 0.96875C113.079 0.322917 114.831 0 116.718 0C118.066 0 119.103 0.197917 119.829 0.593752C120.575 0.989585 121.239 1.46875 121.819 2.03125C122.13 2.34375 122.421 2.39583 122.69 2.1875C122.96 1.97917 123.261 1.39583 123.592 0.437502H124.277C123.966 1.25 123.644 2.23958 123.312 3.40625C122.981 4.55208 122.638 5.95833 122.286 7.625H121.602C121.643 7.20833 121.674 6.8125 121.695 6.4375C121.736 6.04167 121.757 5.65625 121.757 5.28125C121.757 4.84375 121.726 4.44792 121.664 4.09375C121.622 3.73958 121.508 3.375 121.322 3C120.928 2.20833 120.326 1.60417 119.518 1.1875C118.73 0.770834 117.734 0.5625 116.532 0.5625C115.329 0.5625 114.23 0.9375 113.235 1.6875C112.26 2.41667 111.389 3.39583 110.622 4.625C109.875 5.83333 109.253 7.16667 108.756 8.625C108.258 10.0625 107.874 11.5104 107.605 12.9688C107.356 14.4063 107.232 15.7083 107.232 16.875C107.232 18.75 107.553 20.1354 108.196 21.0312C108.839 21.9271 109.792 22.375 111.057 22.375Z" fill="white"/>
<path d="M126.228 0.6875H131.267V22.5625H126.228V0.6875Z" fill="white"/>
<path d="M146.979 22.9375C144.718 22.9375 142.676 22.4479 140.851 21.4688C139.047 20.4896 137.627 19.1458 136.59 17.4375C135.574 15.7083 135.066 13.7708 135.066 11.625C135.066 9.47917 135.574 7.55208 136.59 5.84375C137.627 4.11458 139.047 2.76042 140.851 1.78125C142.676 0.802085 144.718 0.312502 146.979 0.312502C149.239 0.312502 151.271 0.802085 153.075 1.78125C154.879 2.76042 156.299 4.11458 157.336 5.84375C158.373 7.55208 158.891 9.47917 158.891 11.625C158.891 13.7708 158.373 15.7083 157.336 17.4375C156.299 19.1458 154.879 20.4896 153.075 21.4688C151.271 22.4479 149.239 22.9375 146.979 22.9375ZM146.979 18.625C148.264 18.625 149.425 18.3333 150.462 17.75C151.499 17.1458 152.308 16.3125 152.888 15.25C153.49 14.1875 153.79 12.9792 153.79 11.625C153.79 10.2708 153.49 9.0625 152.888 8C152.308 6.9375 151.499 6.11458 150.462 5.53125C149.425 4.92708 148.264 4.625 146.979 4.625C145.693 4.625 144.532 4.92708 143.495 5.53125C142.458 6.11458 141.639 6.9375 141.038 8C140.457 9.0625 140.167 10.2708 140.167 11.625C140.167 12.9792 140.457 14.1875 141.038 15.25C141.639 16.3125 142.458 17.1458 143.495 17.75C144.532 18.3333 145.693 18.625 146.979 18.625Z" fill="white"/>
</g>
</svg>
