<svg width="173" height="94" viewBox="0 0 173 94" fill="none" xmlns="http://www.w3.org/2000/svg">
<path d="M44.7266 33.7042L41.5308 32.2292C42.1014 31.9456 42.7292 31.7754 43.357 31.7754H45.4114L44.7266 33.7042Z" fill="white" stroke="#272742" stroke-width="0.8838" stroke-miterlimit="10"/>
<path d="M133.982 21.2815L131.071 30.7552H82.3345C80.8508 30.7552 79.8235 29.337 80.223 27.9188L83.4759 17.3672H131.071C133.126 17.3672 134.61 19.3527 133.982 21.2815Z" fill="#272742"/>
<path d="M105.733 93.0432H22.1273C20.1869 93.0432 18.8173 91.1711 19.3879 89.3558L40.2181 22.1886C40.5605 20.9973 41.7018 20.2031 42.9574 20.2031H126.506C128.446 20.2031 129.816 22.0752 129.245 23.8905L108.415 91.0577C108.073 92.249 106.989 93.0432 105.733 93.0432Z" fill="white" stroke="#272742" stroke-width="0.8838" stroke-miterlimit="10"/>
<path d="M78.5686 71.9409L83.9331 56.7943C83.9901 56.6808 84.1043 56.5674 84.2184 56.5674C87.6425 56.7376 90.553 58.0423 92.4934 60.3115C97.2872 65.9277 94.8903 75.912 87.186 82.4358C79.4817 88.9596 69.2093 89.7538 64.3585 84.1944C60.649 79.883 61.1055 72.8486 65.4428 66.6651C65.4998 66.5517 65.671 66.495 65.8422 66.5517L78.112 72.1111C78.3403 72.1679 78.5115 72.1111 78.5686 71.9409Z" fill="#272742" stroke="#272742" stroke-width="0.8838" stroke-miterlimit="10"/>
<path d="M77.0844 68.8773L62.1895 61.8997C63.502 60.0843 65.0429 58.4392 66.812 56.9075C71.7199 52.7096 77.7692 50.3837 83.2478 50.4971L77.0844 68.8773Z" fill="#9C4FFF"/>
<path d="M147.394 19.4092H171.363L154.756 73.245H93.749" stroke="#272742" stroke-miterlimit="10" stroke-linecap="round" stroke-dasharray="8 4"/>
<path d="M62.1124 40.6411C73.9477 30.5372 77.4662 15.3139 69.9713 6.63879C62.4763 -2.0363 46.8061 -0.878041 34.9707 9.22583C23.1354 19.3297 19.6169 34.5531 27.1118 43.2281C34.6068 51.9032 50.2771 50.745 62.1124 40.6411Z" fill="#E5E8F0"/>
<path d="M35.276 31.4598C33.8502 31.4598 32.734 31.0403 31.9271 30.2012C31.1345 29.3621 30.9066 28.3133 31.2432 27.0547H34.28C34.2559 27.5419 34.409 27.9412 34.7394 28.2524C35.084 28.5637 35.5486 28.7193 36.1331 28.7193C36.8745 28.7193 37.5175 28.5096 38.0622 28.09C38.6254 27.657 39.0064 27.1224 39.2054 26.4864C39.4086 25.8368 39.3548 25.3022 39.044 24.8827C38.7475 24.4631 38.2571 24.2534 37.5728 24.2534C36.9882 24.2534 36.4469 24.3887 35.9488 24.6594C35.4507 24.93 35.0441 25.2954 34.7291 25.7556L32.3764 25.0045L36.6461 16.8237H44.0455L43.201 19.5235H38.0685L36.6466 22.2234C37.2899 21.8986 38.0393 21.7362 38.8948 21.7362C40.3205 21.7362 41.3171 22.1963 41.8847 23.1166C42.4665 24.0368 42.5268 25.2345 42.0654 26.7096C41.6167 28.1442 40.765 29.2945 39.5104 30.1606C38.27 31.0267 36.8585 31.4598 35.276 31.4598Z" fill="#272742"/>
<path d="M48.1986 31.4598C46.5305 31.4598 45.3361 30.9252 44.6155 29.8561C43.8949 28.787 43.7949 27.4201 44.3156 25.7556L45.4077 22.264C45.9241 20.613 46.877 19.2529 48.2665 18.1838C49.6559 17.1146 51.1846 16.5801 52.8527 16.5801C54.5065 16.5801 55.6938 17.1146 56.4144 18.1838C57.135 19.2529 57.2371 20.613 56.7207 22.264L55.6286 25.7556C55.1079 27.4201 54.1529 28.787 52.7635 29.8561C51.374 30.9252 49.8524 31.4598 48.1986 31.4598ZM47.3145 27.9276C47.6484 28.4554 48.2288 28.7193 49.0557 28.7193C49.8827 28.7193 50.621 28.4554 51.2709 27.9276C51.9349 27.3998 52.4109 26.6758 52.6987 25.7556L53.7909 22.264C54.0787 21.3438 54.0535 20.6265 53.7154 20.1122C53.3957 19.5844 52.8225 19.3205 51.9955 19.3205C51.1686 19.3205 50.4231 19.5844 49.7591 20.1122C49.0992 20.6265 48.6254 21.3438 48.3375 22.264L47.2454 25.7556C46.9576 26.6758 46.9806 27.3998 47.3145 27.9276Z" fill="#272742"/>
<path d="M57.2322 26.5676L57.9877 24.1519H61.217L62.1757 21.0866H64.7206L63.7619 24.1519H66.9697L66.2141 26.5676H63.0063L62.0475 29.6328H59.5026L60.4614 26.5676H57.2322Z" fill="#272742"/>
<path d="M77.0273 37.8457H90.9521" stroke="#272742" stroke-miterlimit="10" stroke-linecap="round" stroke-linejoin="round"/>
<path d="M75.8286 42.2715H104.363" stroke="#272742" stroke-miterlimit="10" stroke-linecap="round" stroke-linejoin="round"/>
<path d="M97.0013 33.3637H78.511C78.2256 33.3637 78.0545 33.08 78.1115 32.8531L79.1958 29.6196C79.2529 29.4494 79.4241 29.3359 79.5953 29.3359H98.0856C98.3709 29.3359 98.5421 29.6196 98.4851 29.8465L97.4008 33.0801C97.2866 33.2502 97.1725 33.3637 97.0013 33.3637Z" fill="#89FFB8"/>
<path d="M39.4184 82.2645H7.11749C5.17715 82.2645 3.80749 80.3925 4.37818 78.5771L8.43007 65.5295C8.77248 64.3382 9.91385 63.5439 11.1694 63.5439H43.4703C45.4107 63.5439 46.7803 65.416 46.2096 67.2313L42.1577 80.279C41.7582 81.4136 40.6739 82.2645 39.4184 82.2645Z" fill="#272742"/>
<path d="M37.3652 79.8251H5.06426C3.12392 79.8251 1.75427 77.953 2.32496 76.1377L6.37684 63.09C6.71926 61.8987 7.86063 61.1045 9.11615 61.1045H41.4171C43.3574 61.1045 44.7271 62.9766 44.1564 64.7919L40.1045 77.8396C39.705 79.0309 38.6207 79.8251 37.3652 79.8251Z" fill="white" stroke="#272742" stroke-width="0.8838" stroke-miterlimit="10"/>
<path d="M146.651 22.8133C148.542 22.8133 150.075 21.2894 150.075 19.4096C150.075 17.5298 148.542 16.0059 146.651 16.0059C144.76 16.0059 143.227 17.5298 143.227 19.4096C143.227 21.2894 144.76 22.8133 146.651 22.8133Z" fill="white" stroke="#272742" stroke-linejoin="round"/>
<path d="M0.897461 55.6022C2.32418 50.8937 7.40331 47.0361 12.14 47.0361C16.8767 47.0361 19.559 50.8937 18.1322 55.6022L14.1945 68.4797C12.7678 73.1882 15.45 77.0458 20.1867 77.0458C24.9234 77.0458 29.9455 73.1882 31.4293 68.4797" stroke="#272742" stroke-miterlimit="10" stroke-linecap="round"/>
<path d="M12.5963 48.341C13.3212 48.341 13.9089 47.7568 13.9089 47.0362C13.9089 46.3156 13.3212 45.7314 12.5963 45.7314C11.8713 45.7314 11.2837 46.3156 11.2837 47.0362C11.2837 47.7568 11.8713 48.341 12.5963 48.341Z" fill="#272742"/>
<path d="M18.5889 77.7258C19.3139 77.7258 19.9015 77.1416 19.9015 76.421C19.9015 75.7004 19.3139 75.1162 18.5889 75.1162C17.864 75.1162 17.2764 75.7004 17.2764 76.421C17.2764 77.1416 17.864 77.7258 18.5889 77.7258Z" fill="#272742"/>
<path d="M31.3721 70.8061C32.6643 70.8061 33.7119 69.7647 33.7119 68.4802C33.7119 67.1956 32.6643 66.1543 31.3721 66.1543C30.0798 66.1543 29.0322 67.1956 29.0322 68.4802C29.0322 69.7647 30.0798 70.8061 31.3721 70.8061Z" fill="#272742"/>
</svg>
