<svg width="163" height="112" viewBox="0 0 163 112" fill="none" xmlns="http://www.w3.org/2000/svg">
<path d="M125.677 91.2427H45.1915C43.3713 91.2427 42.0062 89.4739 42.575 87.7051L64.0758 17.6382C64.4171 16.4971 65.4978 15.6982 66.6923 15.6982H147.178C148.998 15.6982 150.363 17.467 149.795 19.2358L128.237 89.3027C127.953 90.501 126.872 91.2427 125.677 91.2427Z" fill="#E5E8F0"/>
<path d="M9.18582 97.1768H78.5231C79.4901 97.1768 80.4002 96.6632 80.9121 95.8644L117.316 39.3202C118.51 37.4373 117.202 34.9268 114.927 34.9268H10.7216C9.18582 34.9268 7.93445 36.182 7.87757 37.7226L6.3418 94.2668C6.3418 95.8644 7.59317 97.1768 9.18582 97.1768Z" fill="#272742" stroke="#272742" stroke-miterlimit="10"/>
<path d="M3.95282 91.585H73.2901C74.2571 91.585 75.1672 91.0715 75.6791 90.2726L112.083 33.7284C113.277 31.8455 111.969 29.335 109.694 29.335H5.48859C3.95282 29.335 2.70145 30.5902 2.64457 32.1308L1.1088 88.675C1.05192 90.2727 2.30329 91.585 3.95282 91.585Z" fill="white" stroke="#272742" stroke-miterlimit="10" stroke-linecap="round"/>
<path d="M35.6316 39.4788C36.9509 38.3599 37.3793 36.6921 36.5883 35.7536C35.7973 34.8152 34.0866 34.9615 32.7673 36.0804C31.4479 37.1994 31.0196 38.8672 31.8106 39.8056C32.6015 40.7441 34.3123 40.5978 35.6316 39.4788Z" fill="white" stroke="#666666" stroke-miterlimit="10"/>
<path d="M79.1448 39.4808C80.4641 38.3619 80.8924 36.694 80.1015 35.7556C79.3105 34.8171 77.5998 34.9635 76.2805 36.0824C74.9611 37.2013 74.5328 38.8692 75.3238 39.8076C76.1147 40.746 77.8254 40.5997 79.1448 39.4808Z" fill="white" stroke="#666666" stroke-miterlimit="10"/>
<path d="M34.9526 35.4404C34.9526 35.4404 46.9544 0.977539 67.8864 0.977539C89.6147 0.977539 78.6937 34.7557 78.4662 35.4404" stroke="#666666" stroke-miterlimit="10"/>
<path d="M14.7026 61.915H81.0253" stroke="#272742" stroke-miterlimit="10" stroke-linecap="round"/>
<path d="M129.943 25.2837H112.424C111.287 25.2837 110.547 24.1996 110.888 23.1155L116.065 7.25346C116.292 6.56877 116.918 6.1123 117.6 6.1123H135.063C136.2 6.1123 136.94 7.1964 136.598 8.2805L131.422 24.1425C131.309 24.8272 130.626 25.2837 129.943 25.2837Z" fill="white" stroke="#272742" stroke-miterlimit="10" stroke-linecap="round"/>
<path d="M129.091 10.5055C129.091 10.5055 128.124 9.4785 126.076 9.82084C124.142 10.1632 121.355 11.6467 120.047 15.7548C118.682 19.9201 120.73 21.4606 122.322 21.6889C124.199 21.9741 125.735 20.89 125.735 20.89" stroke="#272742" stroke-miterlimit="10" stroke-linecap="round" stroke-linejoin="round"/>
<path d="M118.454 14.0996H126.588" stroke="#272742" stroke-miterlimit="10" stroke-linecap="round" stroke-linejoin="round"/>
<path d="M117.431 17.3525H125.508" stroke="#272742" stroke-miterlimit="10" stroke-linecap="round" stroke-linejoin="round"/>
<path d="M91.8897 105.279H80.2861L70.4458 111.327L65.8385 105.279H54.6899C52.9835 105.279 52.0165 103.853 52.5853 102.141L58.6147 83.4263C59.1835 81.7145 61.0036 80.2881 62.7669 80.2881H99.9099C101.616 80.2881 102.583 81.7145 102.014 83.4263L95.9851 102.141C95.4163 103.853 93.5962 105.279 91.8897 105.279Z" fill="white" stroke="#272742" stroke-miterlimit="10"/>
<path d="M81.8793 86.3364C78.9216 86.3364 77.4427 88.4475 77.2151 88.6187C77.1014 88.4475 76.6463 86.2793 73.6886 86.2793C70.3326 86.2793 68.2849 89.5887 68.7968 93.0692C69.7069 98.5467 72.8922 100.43 73.2904 100.544C73.8023 100.43 78.9216 99.2314 83.4151 93.7539C86.2591 90.3875 85.1784 86.3364 81.8793 86.3364Z" fill="#89FFB8"/>
<path d="M148.575 67.986C156.392 61.3004 158.797 51.254 153.946 45.5466C149.095 39.8392 138.826 40.6321 131.009 47.3176C123.191 54.0031 120.786 64.0496 125.637 69.757C130.488 75.4645 140.758 74.6715 148.575 67.986Z" fill="#9C4FFF"/>
<path d="M145.882 65.2184C153.699 58.5329 156.104 48.4864 151.253 42.779C146.403 37.0716 136.133 37.8645 128.316 44.55C120.498 51.2356 118.093 61.282 122.944 66.9895C127.795 72.6969 138.065 71.9039 145.882 65.2184Z" fill="white" stroke="#666666" stroke-miterlimit="10" stroke-linecap="round" stroke-linejoin="round"/>
<path d="M132.104 61.5723L130.739 63.9116L132.104 61.5723Z" fill="#272742"/>
<path d="M132.104 61.5723L130.739 63.9116" stroke="#272742" stroke-miterlimit="10" stroke-linecap="round" stroke-linejoin="round"/>
<path d="M141.489 45.3682L140.408 47.194L141.489 45.3682Z" fill="#272742"/>
<path d="M141.489 45.3682L140.408 47.194" stroke="#272742" stroke-miterlimit="10" stroke-linecap="round" stroke-linejoin="round"/>
<path d="M142.285 51.2453C142.285 51.2453 144.219 47.4795 140.635 47.2513C136.768 47.023 135.061 49.3054 134.435 50.4465C133.639 51.9871 133.355 53.4135 136.028 54.0982C138.701 54.84 139.441 55.6958 138.815 57.6928C138.133 59.861 135.402 61.7439 132.331 61.5157C128.691 61.2875 129.373 58.4916 130.34 56.9511" stroke="#272742" stroke-miterlimit="10" stroke-linecap="round" stroke-linejoin="round"/>
</svg>
