<svg width="651" height="422" viewBox="0 0 651 422" fill="none" xmlns="http://www.w3.org/2000/svg">
<g clip-path="url(#clip0_44_2280)">
<path d="M99.87 98.2799C81.81 104.15 71.87 123.47 77.73 141.52C83.6 159.58 102.92 169.53 120.97 163.66C139.03 157.79 148.97 138.47 143.11 120.42C137.35 102.29 117.94 92.4199 99.87 98.2799Z" fill="#A7FABC"/>
<path d="M474.9 253.62H194.8C191.46 253.62 189.63 250.91 190.7 247.58L255.6 45.9599C256.67 42.6199 260.25 39.9199 263.59 39.9199H543.69C547.03 39.9199 548.86 42.6299 547.79 45.9599L482.9 247.57C481.82 250.91 478.24 253.62 474.9 253.62Z" fill="#272740"/>
<path d="M469.68 244.75H189.58C186.24 244.75 184.41 242.04 185.48 238.71L250.37 37.0996C251.44 33.7596 255.02 31.0596 258.36 31.0596H538.46C541.8 31.0596 543.63 33.7696 542.56 37.0996L477.67 238.7C476.59 242.04 473.02 244.75 469.68 244.75Z" fill="white" stroke="#272742" stroke-miterlimit="10"/>
<path d="M344.29 154.561L343.08 158.361H339.09" stroke="#808080" stroke-miterlimit="10" stroke-linecap="round"/>
<path d="M330.69 158.36H284.48" stroke="#808080" stroke-miterlimit="10" stroke-linecap="round" stroke-dasharray="8.4 8.4"/>
<path d="M280.28 158.361H276.29L277.5 154.561" stroke="#808080" stroke-miterlimit="10" stroke-linecap="round"/>
<path d="M280.18 146.101L294.94 99.6006" stroke="#808080" stroke-miterlimit="10" stroke-linecap="round" stroke-dasharray="8.87 8.87"/>
<path d="M296.28 95.3703L297.49 91.5703H301.48" stroke="#808080" stroke-miterlimit="10" stroke-linecap="round"/>
<path d="M309.88 91.5703H356.09" stroke="#808080" stroke-miterlimit="10" stroke-linecap="round" stroke-dasharray="8.4 8.4"/>
<path d="M360.29 91.5703H364.28L363.08 95.3703" stroke="#808080" stroke-miterlimit="10" stroke-linecap="round"/>
<path d="M360.39 103.83L345.63 150.33" stroke="#808080" stroke-miterlimit="10" stroke-linecap="round" stroke-dasharray="8.87 8.87"/>
<path d="M282.56 108.34L291.05 83.6602H315.74" stroke="#FFD94E" stroke-miterlimit="10" stroke-linecap="round"/>
<path d="M372.57 108.34L381.59 83.6602H356.9" stroke="#FFD94E" stroke-miterlimit="10" stroke-linecap="round"/>
<path d="M360.27 141.59L351.77 166.27H327.09" stroke="#FFD94E" stroke-miterlimit="10" stroke-linecap="round"/>
<path d="M270.26 141.59L261.24 166.27H285.92" stroke="#FFD94E" stroke-miterlimit="10" stroke-linecap="round"/>
<path d="M607.43 95.6301C610.263 95.6301 612.56 93.3333 612.56 90.5001C612.56 87.6669 610.263 85.3701 607.43 85.3701C604.597 85.3701 602.3 87.6669 602.3 90.5001C602.3 93.3333 604.597 95.6301 607.43 95.6301Z" fill="white" stroke="#9C4FFF" stroke-miterlimit="10" stroke-linecap="round"/>
<path d="M50.6402 227.36C53.4955 227.36 55.8102 225.045 55.8102 222.19C55.8102 219.334 53.4955 217.02 50.6402 217.02C47.7849 217.02 45.4702 219.334 45.4702 222.19C45.4702 225.045 47.7849 227.36 50.6402 227.36Z" fill="#272742" stroke="#272742" stroke-miterlimit="10"/>
<path d="M274.41 127.75C274.96 127.27 277.49 124.95 279.11 123.2C281.7 119.9 284.6 113.04 284.64 107.99C284.69 106.12 284.68 103.79 283.39 102.58C283.07 102.54 282.87 102.5 282.6 102.34C282.6 102.34 282.18 100.44 281.71 99.7598C281.42 99.1998 280.84 98.7698 280.25 98.8898C279.66 99.0098 279.17 99.5398 279.06 100.09C278.9 99.5998 278.33 97.9598 277.86 97.7598C277.39 97.5698 276.7 97.5498 276.43 97.9498C276.19 98.3098 275.93 98.6598 275.68 99.0198C274.26 98.4098 273.91 99.6998 273.47 100.56C272.11 104.4 269.69 111.38 267.13 114.56C265.99 115.98 264.49 117.36 262.1 118.66C259.77 120.13 258.35 122.26 257.51 123.35C258.25 127.77 264.16 131.82 268.01 135.18C270.56 132.87 271.96 129.92 274.41 127.75Z" fill="white"/>
<path d="M282.5 102.41C285.18 102.77 285.04 106.39 284.36 110.94C283.67 115.56 282.47 121.55 278.96 125.18C275.12 129.14 269.55 133.56 268 135.16" fill="white"/>
<path d="M279.29 118.24C282.34 110.85 283.04 99.78 280.81 98.97C279.45 98.58 279.06 100.08 279.06 100.08" fill="white"/>
<path d="M273.65 112.69C275.99 108.05 276.38 98.8501 274.57 98.8301C272.49 98.8101 272.6 105.58 268.38 112.79C267.7 113.89 267.07 114.72 266.47 115.38" stroke="#272740" stroke-miterlimit="10" stroke-linecap="round" stroke-linejoin="round"/>
<path d="M272.25 112.89C272.25 112.89 273.31 111.27 274.38 106.71C275.45 102.15 275.14 100.01 275.69 98.9604C276.24 97.9104 277.42 97.3004 278.24 98.1304C279.75 99.6804 278.94 109.99 276.63 115.57" fill="white"/>
<path d="M272.25 112.89C272.25 112.89 273.31 111.27 274.38 106.71C275.45 102.15 275.14 100.01 275.69 98.9604C276.24 97.9104 277.42 97.3004 278.24 98.1304C279.75 99.6804 278.94 109.99 276.63 115.57" stroke="#272740" stroke-miterlimit="10" stroke-linecap="round" stroke-linejoin="round"/>
<path d="M279.29 118.24C282.34 110.85 283.04 99.78 280.81 98.97C279.5 98.48 278.91 99.39 278.66 100.08C278.34 100.99 278.39 104.37 277.26 109C276.13 113.63 275.13 115.43 275.13 115.43" fill="white"/>
<path d="M279.29 118.24C282.34 110.85 283.04 99.78 280.81 98.97C279.5 98.48 278.91 99.39 278.66 100.08C278.34 100.99 278.39 104.37 277.26 109C276.13 113.63 275.13 115.43 275.13 115.43" stroke="#272740" stroke-miterlimit="10" stroke-linecap="round" stroke-linejoin="round"/>
<path d="M278.47 118.24C278.47 118.24 280.06 114.89 280.83 110.62C281.57 106.49 281.13 102.72 282.12 102.41C283.55 101.96 284.63 106.19 284.36 110.94C284.09 115.69 282.47 121.55 278.96 125.18C275.12 129.14 269.55 133.56 268 135.16" fill="white"/>
<path d="M278.47 118.24C278.47 118.24 280.06 114.89 280.83 110.62C281.57 106.49 281.13 102.72 282.12 102.41C283.55 101.96 284.63 106.19 284.36 110.94C284.09 115.69 282.47 121.55 278.96 125.18C275.12 129.14 269.55 133.56 268 135.16" stroke="#272740" stroke-miterlimit="10" stroke-linecap="round" stroke-linejoin="round"/>
<path d="M246.65 121.29L302.92 102.95C304.55 102.42 305.44 100.66 304.91 99.0303L286.57 42.7603C286.04 41.1303 284.28 40.2403 282.65 40.7703L226.38 59.1103C224.75 59.6403 223.86 61.4003 224.39 63.0303L242.73 119.3C243.26 120.93 245.02 121.82 246.65 121.29Z" fill="#FFD94E" stroke="#272742" stroke-miterlimit="10"/>
<path d="M266.06 134.08L272.26 121.87C274.6 117.23 273.36 115.59 271.55 115.57C269.47 115.55 270.71 114.58 268.45 115.57C267.77 116.67 267.29 116.25 266.36 115.23C266.07 115.55 265.56 115.39 265.47 114.98C265.3 114.13 265.37 113.27 265.78 111.71C266.37 109.46 267.69 107.31 266.61 106.68C265.11 105.79 262.24 110.16 261.25 112.46C260.12 115.09 259.77 118.02 259.47 119.18C259.17 120.34 257.51 123.36 257.51 123.36L230.18 145.39" fill="white"/>
<path d="M279.83 51.1797L249.48 110.88" stroke="#272742" stroke-miterlimit="10" stroke-linecap="round" stroke-linejoin="round"/>
<path d="M234.81 65.8496L294.5 96.2096" stroke="#272742" stroke-miterlimit="10" stroke-linecap="round" stroke-linejoin="round"/>
<path d="M611.16 24.18H289.88L296.54 5.02C297.5 2.25 300.52 0 303.28 0H614.57C617.33 0 618.79 2.25 617.82 5.03L611.16 24.18Z" fill="#272740"/>
<path d="M295.75 63.6005C302.69 61.9005 324.76 54.2605 337.54 68.6405C346.94 79.2205 341.32 98.9405 332.79 108.44" stroke="#FFD94E" stroke-miterlimit="10" stroke-linecap="round"/>
<path d="M331.75 103.231L332.75 103.181L333 108.111L337.89 107.501L338.01 108.501L332.05 109.231L331.75 103.231Z" fill="#FFD94E"/>
<path d="M467.83 178.18H490.72" stroke="#272742" stroke-miterlimit="10" stroke-linecap="round"/>
<path d="M193.99 189.33H216.89" stroke="#272742" stroke-miterlimit="10" stroke-linecap="round"/>
<path d="M469.22 102.77H397.35C396.36 102.77 395.92 102 396.14 101.12L397.79 96.0699C398.12 95.1899 399.11 94.4199 399.99 94.4199H471.86C472.85 94.4199 473.29 95.1899 473.07 96.0699L471.42 101.12C471.09 102 470.1 102.77 469.22 102.77Z" fill="#272740"/>
<path d="M0.5 225.67C15.71 214.67 33.04 206.64 51.36 202.52C94.84 192.74 142.74 205.26 175.87 235.07C194.15 251.52 207.74 272.41 223.78 291.04C239.82 309.67 259.7 326.76 283.85 331.37C320.11 338.28 356.19 314.86 377.96 285.06C399.73 255.25 411.19 219.37 427.56 186.29C443.93 153.21 458.9 143.98 493.88 132.21C512.94 125.8 533.51 126.13 553.61 126.27C573.72 126.41 594.38 126.19 613.08 118.79C631.78 111.39 648.33 95.1704 650.24 75.1504" stroke="#C9C9C9" stroke-linecap="round" stroke-linejoin="round" stroke-dasharray="7.98 7.98"/>
<path d="M313 199.04H237.18C236.35 199.04 235.98 198.39 236.16 197.65L239.59 187.26C239.87 186.52 240.7 185.87 241.44 185.87H317.26C318.09 185.87 318.46 186.52 318.28 187.26L314.85 197.65C314.57 198.4 313.74 199.04 313 199.04Z" stroke="#272742" stroke-miterlimit="10" stroke-linecap="round"/>
<path d="M301.44 185.88L297.18 199.04" stroke="#272742" stroke-miterlimit="10" stroke-linecap="round"/>
<path d="M241.84 192.46H292.3" stroke="#272742" stroke-miterlimit="10" stroke-linecap="round"/>
<path d="M311.97 190.83L306.56 194.28L304.16 190.83" stroke="#272742" stroke-miterlimit="10" stroke-linecap="round"/>
<path d="M542.46 96.5502H511.23C509.95 96.5502 509.25 95.5102 509.66 94.2402L519.71 63.0102C520.12 61.7302 521.49 60.7002 522.77 60.7002H554C555.28 60.7002 555.98 61.7402 555.57 63.0102L545.52 94.2402C545.11 95.5102 543.74 96.5502 542.46 96.5502Z" fill="#272742"/>
<path d="M540.13 93.5502H508.9C507.62 93.5502 506.92 92.5102 507.33 91.2402L517.38 60.0102C517.79 58.7302 519.16 57.7002 520.44 57.7002H551.67C552.95 57.7002 553.65 58.7402 553.24 60.0102L543.19 91.2402C542.78 92.5202 541.41 93.5502 540.13 93.5502Z" fill="white" stroke="#272742" stroke-miterlimit="10"/>
<path d="M537.27 88.3399H515.13C514.22 88.3399 513.73 87.6099 514.02 86.6999L521.15 64.5599C521.44 63.6499 522.41 62.9199 523.32 62.9199H545.46C546.37 62.9199 546.86 63.6499 546.57 64.5599L539.44 86.6999C539.14 87.5999 538.17 88.3399 537.27 88.3399Z" fill="#272740"/>
<path d="M526.72 72.5604L531.79 81.9304L547.38 67.6904" stroke="white" stroke-miterlimit="10" stroke-linecap="round" stroke-linejoin="round"/>
<path d="M433.05 62.2102L433.1 62.0002C433.3 61.1902 433.41 60.3802 433.44 59.6002L433.45 59.4002L433.66 59.2602L436.04 57.7402C436.01 57.1802 435.93 56.6302 435.82 56.1102L433.31 56.6802L433.08 56.7302L433.02 56.5602C432.8 55.8802 432.49 55.2602 432.1 54.6902L432 54.5402L432.16 54.3402L433.87 52.1502C433.54 51.7702 433.17 51.4102 432.77 51.1002L430.41 52.6702L430.2 52.8102L430.05 52.7102C429.46 52.3302 428.8 52.0302 428.09 51.8102L427.91 51.7502L427.97 51.5402L428.62 49.1902C428.06 49.0702 427.49 48.9902 426.9 48.9502L425.26 51.1502L425.11 51.3502H424.89C424.06 51.3602 423.2 51.4502 422.33 51.6202L422.1 51.6602L422.05 51.4802L421.49 49.5102C420.92 49.6602 420.34 49.8402 419.77 50.0502C419.69 50.0802 419.61 50.1102 419.53 50.1402L418.94 52.4802L418.89 52.6902L418.66 52.7902C417.78 53.1802 416.92 53.6402 416.09 54.1702L415.87 54.3102L415.72 54.2102L414.08 53.0602C413.48 53.4902 412.9 53.9402 412.34 54.4202L412.96 56.3602L413.02 56.5302L412.83 56.7102C412.11 57.3902 411.44 58.1302 410.84 58.8902L410.69 59.0902L410.48 59.0802L408.14 59.0202C407.73 59.6002 407.36 60.2002 407.01 60.7902L408.7 61.8802L408.85 61.9802L408.75 62.1902C408.35 63.0102 408.03 63.8402 407.79 64.6602L407.73 64.8702L407.5 64.9602L405 66.0402C404.88 66.6402 404.79 67.2302 404.75 67.8202L407.12 67.8102H407.34V68.0102C407.34 68.1102 407.35 68.2202 407.35 68.3202C407.38 68.9802 407.48 69.6102 407.64 70.2102L407.69 70.3902L407.5 70.5602L405.39 72.4702C405.58 72.9602 405.81 73.4202 406.07 73.8502L408.57 72.7502L408.8 72.6502L408.91 72.7902C409.33 73.3302 409.83 73.8102 410.4 74.2102L410.55 74.3202L410.44 74.5302L409.22 76.8702C409.68 77.1302 410.17 77.3502 410.67 77.5402L412.74 75.5902L412.93 75.4102L413.12 75.4602C413.85 75.6502 414.64 75.7602 415.45 75.7802L415.66 75.7902V75.9902L415.61 78.2202C416.23 78.1902 416.86 78.1202 417.5 78.0202L418.66 75.6702L418.76 75.4602L418.99 75.4102C419.63 75.2602 420.28 75.0602 420.93 74.8302C421.16 74.7502 421.4 74.6502 421.63 74.5602L421.86 74.4702L421.96 74.6202L423.09 76.2302C423.73 75.9202 424.37 75.5802 424.99 75.2102L424.96 73.0002V72.8002L425.17 72.6602C425.99 72.1102 426.78 71.4902 427.51 70.8302L427.7 70.6602L427.88 70.7202L429.93 71.3402C430.45 70.8202 430.94 70.2802 431.4 69.7202L430.21 68.1602L430.1 68.0202L430.25 67.8202C430.83 67.0502 431.34 66.2402 431.77 65.4302L431.88 65.2202L432.11 65.1702L434.61 64.6602C434.88 64.0502 435.12 63.4402 435.32 62.8302L433.23 62.2702L433.05 62.2102ZM426.95 63.5902C425.61 67.1602 421.63 70.0502 418.06 70.0502C414.49 70.0502 412.69 67.1602 414.03 63.5902C415.37 60.0202 419.35 57.1302 422.92 57.1302C426.48 57.1302 428.29 60.0202 426.95 63.5902Z" stroke="#272742" stroke-miterlimit="10" stroke-linecap="round"/>
<path d="M456.97 50.0101L457 49.8701C457.13 49.3201 457.21 48.7801 457.23 48.2501L457.24 48.1101L457.38 48.0201L458.98 46.9901C458.96 46.6101 458.91 46.2401 458.83 45.8901L457.14 46.2701L456.99 46.3101L456.95 46.1901C456.8 45.7301 456.59 45.3101 456.33 44.9301L456.26 44.8301L456.37 44.7001L457.52 43.2301C457.3 42.9701 457.05 42.7301 456.78 42.5201L455.19 43.5801L455.05 43.6801L454.95 43.6101C454.55 43.3601 454.11 43.1501 453.63 43.0001L453.51 42.9601L453.55 42.8201L453.99 41.2401C453.62 41.1601 453.23 41.1101 452.83 41.0801L451.72 42.5601L451.62 42.6901H451.47C450.91 42.7001 450.33 42.7601 449.75 42.8701L449.6 42.9001L449.57 42.7801L449.2 41.4501C448.82 41.5501 448.43 41.6701 448.04 41.8201C447.99 41.8401 447.93 41.8601 447.88 41.8801L447.48 43.4601L447.44 43.6001L447.29 43.6701C446.7 43.9301 446.12 44.2501 445.56 44.6001L445.41 44.6901L445.31 44.6201L444.21 43.8501C443.81 44.1401 443.42 44.4401 443.04 44.7701L443.46 46.0801L443.5 46.2001L443.38 46.3201C442.9 46.7801 442.45 47.2701 442.04 47.7901L441.94 47.9201H441.8L440.22 47.8801C439.94 48.2701 439.69 48.6701 439.46 49.0701L440.6 49.8101L440.7 49.8801L440.63 50.0201C440.36 50.5701 440.14 51.1301 439.99 51.6901L439.95 51.8301L439.8 51.8901L438.11 52.6001C438.03 53.0001 437.97 53.4001 437.94 53.8001H439.53H439.67V53.9301C439.67 54.0001 439.67 54.0701 439.68 54.1401C439.7 54.5801 439.77 55.0101 439.87 55.4101L439.9 55.5301L439.77 55.6501L438.35 56.9401C438.48 57.2701 438.63 57.5801 438.81 57.8701L440.5 57.1301L440.65 57.0601L440.72 57.1501C441 57.5101 441.34 57.8301 441.72 58.1101L441.82 58.1801L441.75 58.3201L440.93 59.9001C441.24 60.0701 441.57 60.2201 441.91 60.3501L443.3 59.0401L443.43 58.9201L443.56 58.9501C444.05 59.0801 444.58 59.1501 445.13 59.1701H445.27V59.3101L445.23 60.8101C445.65 60.7901 446.07 60.7401 446.51 60.6701L447.29 59.0901L447.36 58.9501L447.51 58.9101C447.94 58.8101 448.38 58.6801 448.81 58.5201C448.97 58.4601 449.12 58.4001 449.28 58.3401L449.43 58.2801L449.5 58.3801L450.26 59.4601C450.69 59.2501 451.12 59.0201 451.54 58.7701L451.53 57.2801V57.1501L451.67 57.0501C452.22 56.6801 452.75 56.2601 453.25 55.8201L453.38 55.7001L453.5 55.7401L454.88 56.1601C455.23 55.8101 455.56 55.4501 455.87 55.0701L455.07 54.0201L455 53.9201L455.1 53.7901C455.49 53.2701 455.83 52.7301 456.12 52.1801L456.19 52.0401L456.34 52.0101L458.02 51.6701C458.2 51.2601 458.36 50.8501 458.5 50.4401L457.09 50.0601L456.97 50.0101ZM452.86 50.9401C451.96 53.3401 449.28 55.2901 446.87 55.2901C444.47 55.2901 443.25 53.3401 444.15 50.9401C445.05 48.5401 447.73 46.5901 450.14 46.5901C452.55 46.5901 453.76 48.5401 452.86 50.9401Z" stroke="#272742" stroke-miterlimit="10" stroke-linecap="round"/>
<path d="M399.02 58.8101C404.64 49.7801 415.31 43.0801 425.03 43.0801C428.32 43.0801 431.13 43.8501 433.38 45.2101" stroke="#272742" stroke-miterlimit="10" stroke-linecap="round"/>
<path d="M425.02 45.4303C425.02 45.1503 425.25 44.9303 425.53 44.9403L433.18 45.0803L430.07 38.0903C429.96 37.8403 430.07 37.5403 430.32 37.4303C430.57 37.3203 430.87 37.4303 430.98 37.6803L434.4 45.3903C434.47 45.5503 434.45 45.7303 434.36 45.8703C434.27 46.0103 434.1 46.1003 433.93 46.0903L425.5 45.9303C425.4 45.9303 425.31 45.9003 425.23 45.8503C425.11 45.7703 425.02 45.6103 425.02 45.4303Z" fill="#272742"/>
<path d="M303.48 217.84H249.68C249.25 217.84 249.02 217.49 249.17 217.06L251.3 210.95C251.45 210.52 251.92 210.17 252.35 210.17H306.14C306.57 210.17 307.04 209.82 307.19 209.39L308.39 205.95C308.64 205.23 309.65 204.9 309.93 205.44L314.33 213.99C314.48 214.28 314.33 214.72 313.97 215.01L303.81 223.25C303.16 223.78 302.39 223.46 302.63 222.75L304.01 218.6C304.13 218.19 303.9 217.84 303.48 217.84Z" fill="#272742" stroke="#272742" stroke-miterlimit="10" stroke-linecap="round"/>
<path d="M259.84 224.86H213.99C213.56 224.86 213.33 224.51 213.48 224.08L215.61 217.97C215.76 217.54 216.23 217.19 216.66 217.19H262.49C262.92 217.19 263.39 216.84 263.54 216.41L264.74 212.97C264.99 212.25 266 211.92 266.28 212.46L270.68 221.01C270.83 221.3 270.68 221.74 270.32 222.03L260.16 230.27C259.51 230.8 258.74 230.48 258.98 229.77L260.36 225.62C260.49 225.2 260.26 224.86 259.84 224.86Z" fill="white" stroke="#272742" stroke-miterlimit="10"/>
<path d="M572.803 14.5821C574.685 12.9761 575.263 10.5638 574.095 9.19424C572.926 7.82464 570.453 8.01629 568.571 9.62232C566.688 11.2283 566.11 13.6406 567.279 15.0102C568.447 16.3798 570.92 16.1881 572.803 14.5821Z" fill="white"/>
<path d="M584.924 14.586C586.806 12.98 587.385 10.5677 586.216 9.19811C585.047 7.82851 582.574 8.0202 580.692 9.62622C578.81 11.2323 578.232 13.6445 579.4 15.0141C580.569 16.3837 583.042 16.192 584.924 14.586Z" fill="white"/>
<path d="M392.5 110.52H490.55" stroke="#272742" stroke-miterlimit="10" stroke-linecap="round"/>
<path d="M386.76 125.21H472.87" stroke="#272742" stroke-miterlimit="10" stroke-linecap="round"/>
<path d="M389.15 118.03H458.98" stroke="#272742" stroke-miterlimit="10" stroke-linecap="round"/>
<path d="M597.053 14.5831C598.935 12.977 599.514 10.5648 598.345 9.19522C597.176 7.82562 594.703 8.01727 592.821 9.62329C590.939 11.2293 590.36 13.6415 591.529 15.0111C592.698 16.3807 595.171 16.1891 597.053 14.5831Z" fill="white"/>
<path d="M411.2 297.73H341.36C338.97 297.73 337.66 295.8 338.43 293.41L384.8 149.33C385.57 146.94 388.12 145.01 390.51 145.01H460.35C462.74 145.01 464.05 146.94 463.28 149.33L416.91 293.41C416.14 295.79 413.59 297.73 411.2 297.73Z" fill="white" stroke="#272742" stroke-miterlimit="10" stroke-linecap="round"/>
<path d="M421.33 193.49H395.45L403.67 167.62H429.54L421.33 193.49Z" fill="#9C4FFF"/>
<path d="M423.9 197.27H390.48L401.09 163.84H434.51L423.9 197.27Z" stroke="#9C4FFF" stroke-miterlimit="10" stroke-linecap="round"/>
<path d="M366.49 287.42H349.37L354.8 270.3H371.92L366.49 287.42Z" stroke="#9C4FFF" stroke-miterlimit="10" stroke-linecap="round"/>
<path d="M382.62 156.09H461.1" stroke="#272742" stroke-miterlimit="10" stroke-linecap="round"/>
<path d="M431.3 211.13H374.94C374.23 211.13 373.92 210.58 374.07 209.95L375.25 206.32C375.49 205.69 376.2 205.14 376.83 205.14H433.19C433.9 205.14 434.21 205.69 434.06 206.32L432.88 209.95C432.64 210.58 431.93 211.13 431.3 211.13Z" fill="white" stroke="#9C4FFF" stroke-miterlimit="10" stroke-linecap="round"/>
<path d="M424.75 171.609L400.25 189.509" stroke="white" stroke-miterlimit="10" stroke-linecap="round" stroke-linejoin="round"/>
<path d="M406.75 171.47L418.24 189.64" stroke="white" stroke-miterlimit="10" stroke-linecap="round" stroke-linejoin="round"/>
<path d="M371.95 216.8H415.95" stroke="#9C4FFF" stroke-miterlimit="10" stroke-linecap="round"/>
<path d="M368.61 227.34H407.26" stroke="#9C4FFF" stroke-miterlimit="10" stroke-linecap="round"/>
<path d="M370.45 222.189H398.09" stroke="#9C4FFF" stroke-miterlimit="10" stroke-linecap="round"/>
<path d="M377.77 281.52H394.74" stroke="#9C4FFF" stroke-miterlimit="10" stroke-linecap="round"/>
<path d="M379.61 276.359H407.26" stroke="#9C4FFF" stroke-miterlimit="10" stroke-linecap="round"/>
<path d="M409.71 260.25H325.97C323.69 260.25 322.09 258.02 322.81 255.86L331.96 228.61C332.42 227.25 333.69 226.34 335.12 226.34H418.86C421.14 226.34 422.74 228.57 422.02 230.73L412.87 257.98C412.41 259.33 411.14 260.25 409.71 260.25Z" fill="white" stroke="#272742" stroke-miterlimit="10" stroke-linecap="round"/>
<path d="M362.36 240.47H338.57C338.13 240.47 337.91 240.11 338.06 239.74L339.37 235.73C339.52 235.29 339.95 235 340.39 235H364.18C364.62 235 364.84 235.36 364.69 235.73L363.38 239.74C363.23 240.1 362.8 240.47 362.36 240.47Z" fill="#272742"/>
<path d="M404.1 240.47H366.66C366.15 240.47 365.86 240.03 366 239.52L367.17 235.87C367.32 235.36 367.9 234.92 368.41 234.92H405.85C406.36 234.92 406.65 235.36 406.51 235.87L405.34 239.52C405.2 240.03 404.61 240.47 404.1 240.47Z" fill="#272742"/>
<path d="M383.81 249.949H335.5C334.84 249.949 334.41 249.509 334.62 248.999L336.15 245.349C336.37 244.839 337.1 244.399 337.76 244.399H386.07C386.73 244.399 387.16 244.839 386.95 245.349L385.42 248.999C385.27 249.519 384.54 249.949 383.81 249.949Z" stroke="black" stroke-miterlimit="10"/>
<path d="M395.11 147.91L390.83 150.65L392.34 153.18" stroke="#9C4FFF" stroke-miterlimit="10" stroke-linecap="round"/>
<path d="M505.15 190.55H481.28L492.78 155.82H527.51L519.61 179.69C513.95 183.94 510.79 186.31 505.15 190.55Z" fill="#272742"/>
<path d="M502.93 186.76H479.06L490.56 152.03H525.29L517.39 175.9C511.74 180.15 508.57 182.53 502.93 186.76Z" fill="white" stroke="#272742" stroke-miterlimit="10" stroke-linecap="round"/>
<path d="M517.38 175.91H506.01L502.42 186.76" stroke="#272742" stroke-miterlimit="10" stroke-linecap="round"/>
<path d="M135.7 415.21H112.71C111.45 415.21 110.31 414.61 109.59 413.57C108.87 412.53 108.71 411.25 109.16 410.05C109.18 409.99 111.13 404.26 113.12 399.29C115.21 394.06 118.82 383.16 119.67 379.51C120.39 376.4 121.19 370.44 121.41 368.79L142.03 368.24C141.25 370.4 138.94 377.03 138.51 380.5C137.97 384.86 138.2 390.04 138.43 395.06C138.47 396 138.51 396.94 138.55 397.87C138.83 404.94 139.5 411.3 139.5 411.32C139.53 412.35 139.14 413.32 138.42 414.06C137.69 414.79 136.73 415.2 135.7 415.2V415.21Z" fill="white"/>
<path d="M138.03 380.44C137.48 384.85 137.71 390.05 137.94 395.09C137.98 396.03 138.02 396.97 138.06 397.9C138.33 404.67 138.95 410.8 139.01 411.38C139.02 412.26 138.69 413.09 138.07 413.72C137.44 414.36 136.6 414.71 135.71 414.71H112.72C111.62 414.71 110.64 414.19 110.01 413.29C109.38 412.39 109.24 411.28 109.63 410.25C109.66 410.16 111.61 404.44 113.59 399.48C115.68 394.24 119.31 383.29 120.16 379.63C120.83 376.72 121.57 371.36 121.85 369.28L141.32 368.76C140.38 371.42 138.42 377.24 138.03 380.44ZM120.98 368.3C120.98 368.3 120.03 375.83 119.19 379.4C118.35 382.97 114.74 393.9 112.66 399.1C110.64 404.14 108.69 409.89 108.69 409.89C107.63 412.7 109.71 415.7 112.71 415.7H135.7C138.11 415.7 140.05 413.72 140 411.31C140 411.31 139.33 404.98 139.05 397.85C138.82 391.97 138.37 385.69 139.01 380.56C139.52 376.48 142.75 367.72 142.75 367.72L120.98 368.3Z" fill="#272740"/>
<path d="M188.37 415.2H160.14C159.29 415.2 158.59 414.53 158.55 413.77L159.81 405.45L182.93 399.04L220.93 409.75C220.98 410.45 221 412.18 220.05 413.44C219.44 414.25 218.51 414.73 217.3 414.88C214.73 415.2 199.49 415.2 188.37 415.2Z" fill="white"/>
<path d="M220.44 410.14C220.46 410.9 220.36 412.19 219.64 413.15C219.1 413.86 218.32 414.27 217.23 414.4C214.69 414.71 199.47 414.71 188.36 414.71H169.69H160.13C159.57 414.71 159.11 414.29 159.05 413.74L160.25 405.85L182.92 399.56L220.44 410.14ZM159.36 405.05L158.05 413.69C158.1 414.82 159.02 415.7 160.14 415.7C161.84 415.7 165.44 415.7 169.7 415.7C175.73 415.7 183.1 415.7 188.37 415.7C200.49 415.7 214.8 415.69 217.36 415.38C222.26 414.78 221.39 409.36 221.39 409.36L182.92 398.52L159.36 405.05Z" fill="#272740"/>
<path d="M173.51 407.09L160.83 397.04L163.19 361.05L181.98 360.89C182.02 363.92 182.35 379.17 185.06 385.25C187.92 391.66 192.75 396.07 194.03 397.16L190.4 404.55L173.51 407.09Z" fill="white"/>
<path d="M184.62 385.47C187.33 391.55 191.79 395.86 193.42 397.3L190.08 404.11L173.66 406.59L161.36 396.84L163.67 361.57L181.5 361.41C181.56 365.35 181.98 379.58 184.62 385.47ZM162.74 360.58L160.33 397.29L173.38 407.63L190.74 405.01L194.66 397.04C194.66 397.04 188.76 392.3 185.53 385.06C182.58 378.46 182.49 360.4 182.49 360.4L162.74 360.58Z" fill="#272740"/>
<path d="M180.59 397.56C168.33 399.54 160.52 395.66 160.52 395.66L158.49 412.13C158.49 412.13 221.23 412.27 221.23 412.11C221.23 411.95 222.58 408.91 220.6 406.88C216.36 402.54 205.55 404.32 194.15 395.77C190.14 392.76 186.94 396.55 180.59 397.56Z" fill="#272740"/>
<path d="M115.82 212.1H190.08C190.08 212.1 197.44 281.55 197.44 292.19C197.44 305.05 187.14 370.02 187.14 370.02H154.72L154.34 320.07L146.4 369.96L116.03 370.02L115.82 212.1Z" fill="#272740"/>
<path d="M183.65 152.75L188.08 192.39L190.81 220.37H185.66H114.66L111.83 188.67L124.47 124.94L144.66 102.69V99.8899V88.1699C144.66 88.1699 160.63 97.1399 160.64 97.1399V103.48C160.64 103.48 160.03 104.85 162.93 106.52C166.11 108.35 172.29 111.59 183.79 114.3C192.67 116.4 219.82 139.69 228.5 146.76C235.96 141.16 243.32 134.51 250.46 128.51C252.94 126.43 255.43 125.1 257.35 122.49C259.27 119.88 264.39 141.77 263.87 141.46C256.35 150.42 248.92 158.89 241.4 167.85C241.4 167.85 232.79 179.17 224.25 175.52C216.83 172.36 183.65 152.75 183.65 152.75Z" fill="white"/>
<path d="M162.05 231.12C162.05 231.12 164.04 231.12 165.23 228.77C166.33 226.6 166.66 218.46 166.66 218.46" stroke="white" stroke-miterlimit="10" stroke-linecap="round"/>
<path d="M267.99 135.17C264.41 140.19 241.39 171.59 232 175.37C229.92 176.21 228.17 176.29 226.36 176.07C224.01 175.78 221.74 175 219.63 173.91L183.64 152.76" stroke="#272740" stroke-miterlimit="10" stroke-linecap="round" stroke-linejoin="round"/>
<path d="M140.39 110.57C140.39 110.57 130.25 112.34 123.3 125.03C114.54 141.02 114.65 220.37 114.65 220.37H190.8C190.8 220.37 187.84 187.31 183.65 152.75" stroke="#272740" stroke-miterlimit="10" stroke-linecap="round" stroke-linejoin="round"/>
<path d="M144.66 86.8604V102.68" stroke="#272740" stroke-miterlimit="10" stroke-linecap="round" stroke-linejoin="round"/>
<path d="M266.46 115.37C266.17 115.69 265.65 115.52 265.57 115.1C265.41 114.26 265.47 113.41 265.88 111.85C266.47 109.6 267.79 107.45 266.71 106.82C265.21 105.93 262.34 110.3 261.35 112.6C260.22 115.23 259.87 118.16 259.57 119.32C259.42 119.9 258.87 120.77 258.37 121.48C257.83 122.24 257.19 122.92 256.48 123.51L228.49 146.77C228.49 146.77 195.47 119.6 189.9 116.92C178.54 111.45 164.73 109.08 161.06 105.05C160.8 104.67 160.67 104.23 160.67 103.77V92.4199" stroke="#272740" stroke-miterlimit="10" stroke-linecap="round" stroke-linejoin="round"/>
<path d="M169.04 79.7596C169.04 79.7596 171.94 78.8496 171.7 77.3696C171.64 77.0096 170.43 76.0096 169.82 75.1396C169.11 74.1296 169.01 73.2496 169.01 73.2496C169.01 73.2496 167.15 65.3596 165.6 61.5796C163.05 57.0896 160.53 57.2896 154.86 58.5096C149.19 59.7396 143.59 62.1396 140.88 66.9596C136.2 75.2796 143.91 87.2096 149.45 92.1196C154.99 97.0296 161.81 96.9096 165.57 94.2096C169.18 91.5996 169.04 79.7596 169.04 79.7596Z" fill="white" stroke="#272740" stroke-miterlimit="10" stroke-linecap="round" stroke-linejoin="round"/>
<path d="M163.55 83.7598C164.31 84.7598 165.44 85.5198 166.72 85.8498" stroke="#272740" stroke-miterlimit="10" stroke-linecap="round"/>
<path d="M130.83 62.6195C135.82 72.9295 140.99 84.7895 148.11 91.2295C148.05 87.6995 149.58 79.8495 149.58 79.8495L154.26 79.0995C155.35 78.9195 156.09 77.8995 155.92 76.8095L154.41 67.4295C154.41 67.4295 164.46 63.7795 166.37 59.9295C168.28 56.0795 164.79 47.0195 164.79 47.0195C153.9 51.8095 139.31 58.7195 130.83 62.6195Z" fill="#272740"/>
<path d="M151.96 77.4502L152.93 80.3302L152.83 82.8802L150.86 83.2002L151.96 77.4502Z" fill="white"/>
<path d="M151.96 77.4501C151.25 75.7801 150.82 74.5701 149.46 73.9201C148.01 73.2301 146.55 73.4501 145.6 74.6101C144.45 76.0301 144.71 77.8801 145.34 79.0201C146.41 80.9501 149.71 82.9201 152.22 83.0901" fill="white"/>
<path d="M152.41 77.2901C151.7 75.6201 150.82 74.5701 149.46 73.9201C148.01 73.2301 146.55 73.4501 145.6 74.6101C144.45 76.0301 144.71 77.8801 145.34 79.0201C146.41 80.9601 147.01 81.2901 148.65 82.0301" stroke="#272740" stroke-miterlimit="10" stroke-linecap="round" stroke-linejoin="round"/>
<path d="M148.11 77.4004C149.08 78.3404 149.89 78.9404 150.86 79.8704" stroke="#272740" stroke-miterlimit="10" stroke-linecap="round" stroke-linejoin="round"/>
<path d="M130.63 143.53C126.9 164.37 124.43 211.82 123.42 242.02L107.93 247.38C107.93 247.38 95.4699 202.78 97.4299 186.24C99.4199 169.41 104.74 129.03 111.11 122.39C114.1 119.27 125.94 114.85 139.15 107.51C143.7 104.98 144.66 102.68 144.66 102.68" fill="white"/>
<path d="M130.63 143.53C126.9 164.37 124.43 211.82 123.42 242.02L107.93 247.38C107.93 247.38 95.4699 202.78 97.4299 186.24C99.4199 169.41 104.74 129.03 111.11 122.39C114.1 119.27 125.94 114.85 139.15 107.51C143.7 104.98 144.66 102.68 144.66 102.68" stroke="#272740" stroke-miterlimit="10" stroke-linecap="round" stroke-linejoin="round"/>
<path d="M153.38 96.85C157.03 99.38 160.99 98.8 160.99 98.8L161.02 95.92C161.02 95.92 160.4 95.99 159.32 96.06C158.24 96.13 156.15 96.06 151.9 93.91C149.8 92.74 147.36 90.5 147.36 90.5C147.36 90.5 149.71 94.65 153.38 96.85Z" fill="#272740"/>
<path d="M152.72 336.25L159.59 238.33" stroke="white" stroke-miterlimit="10" stroke-linecap="round"/>
<path d="M164.53 73.85C164.33 72.58 163.7 71.62 163.12 71.72C162.55 71.81 162.25 72.92 162.45 74.19C162.65 75.46 163.29 76.42 163.86 76.32C164.44 76.22 164.73 75.12 164.53 73.85Z" fill="#272740"/>
<path d="M125.51 248.56C125.73 249.36 126.43 251.73 126.54 252.56C126.66 253.43 126.99 254.61 127.3 255.41C129.13 260.61 128.24 266.36 123.97 271.84C122.79 273.35 121.72 274.85 120.38 276.16C119.95 276.57 119.52 276.99 118.98 277.26C118.44 277.53 117.76 277.62 117.23 277.37C116.91 277.21 116.63 276.94 116.27 276.93C115.87 276.92 115.56 277.23 115.22 277.42C114.59 277.77 113.71 277.65 113.23 277.17C112.75 276.69 112.71 275.88 113.14 275.34C112.69 275.71 112.05 275.86 111.48 275.75C110.91 275.63 110.25 275.21 110.24 274.67C110.22 274.17 110.21 273.68 110.2 273.18C108.47 272.88 108.94 271.43 109.06 270.34C110.43 266.08 111.3 261.73 110.85 257.11C110.65 255.04 110.01 252.15 108.79 249.18C107.48 246.19 106.47 242.77 106.45 240.63C111.67 239.92 117.75 240.4 123.5 239.62C123.63 243.62 124.53 244.93 125.51 248.56Z" fill="white"/>
<path d="M116.31 276.87C118.26 279.14 121.31 275.65 125.7 269.41C131.78 260.75 123.74 247.37 123.51 239.11" stroke="#272740" stroke-miterlimit="10" stroke-linecap="round" stroke-linejoin="round"/>
<path d="M105.87 239.62C107.83 248.88 110.44 251.62 110.92 259.56C111.42 267.82 107.57 271.75 109.56 273.03C111.29 274.13 115.53 266.67 116.22 260.81" stroke="#272740" stroke-miterlimit="10" stroke-linecap="round" stroke-linejoin="round"/>
<path d="M124.69 261.2C122.98 270.13 116.57 278.26 113.95 277.65C111.91 277.18 114.08 274.29 114.08 274.29" stroke="#272740" stroke-miterlimit="10" stroke-linecap="round" stroke-linejoin="round"/>
<path d="M110.16 273.24C109.9 275.39 110.94 275.59 111.53 275.69C114.1 276.1 119.48 267.52 120.77 260.78" stroke="#272740" stroke-miterlimit="10" stroke-linecap="round" stroke-linejoin="round"/>
<path d="M125.36 203.52H185.82" stroke="#272740" stroke-miterlimit="10" stroke-linecap="round" stroke-linejoin="round"/>
<path d="M138.81 397.44C138.81 397.44 137.98 398.56 135.69 398.4C133.28 398.24 131.45 394.64 126.21 394.64C121.1 394.64 118.89 398.32 116.65 398.53C114.83 398.7 113.32 397.57 113.32 397.57L109.66 408.79L108.75 412.2L139.87 412.45L138.81 397.44Z" fill="#272740"/>
<path d="M144.66 102.68C144.66 102.68 150.93 113.88 157.64 114.29C164.42 114.7 160.78 104.4 160.78 104.4" stroke="#272740" stroke-miterlimit="10" stroke-linecap="round" stroke-linejoin="round"/>
<path d="M166.36 215.05V203.52" stroke="#272740" stroke-miterlimit="10" stroke-linecap="round" stroke-linejoin="round"/>
<path d="M176.78 215.05V203.52" stroke="#272740" stroke-miterlimit="10" stroke-linecap="round" stroke-linejoin="round"/>
<path d="M155.89 215.05V203.52" stroke="#272740" stroke-miterlimit="10" stroke-linecap="round" stroke-linejoin="round"/>
<path d="M145.41 215.05V203.52" stroke="#272740" stroke-miterlimit="10" stroke-linecap="round" stroke-linejoin="round"/>
<path d="M134.94 215.05V203.52" stroke="#272740" stroke-miterlimit="10" stroke-linecap="round" stroke-linejoin="round"/>
<path d="M436.15 333.66C443.015 333.66 448.58 328.095 448.58 321.23C448.58 314.365 443.015 308.8 436.15 308.8C429.285 308.8 423.72 314.365 423.72 321.23C423.72 328.095 429.285 333.66 436.15 333.66Z" fill="white" stroke="#272742" stroke-miterlimit="10"/>
<path d="M415.68 303.75C419.281 303.75 422.2 300.831 422.2 297.23C422.2 293.629 419.281 290.71 415.68 290.71C412.079 290.71 409.16 293.629 409.16 297.23C409.16 300.831 412.079 303.75 415.68 303.75Z" fill="#FFD94E"/>
</g>
<defs>
<clipPath id="clip0_44_2280">
<rect width="650.74" height="421.51" fill="white"/>
</clipPath>
</defs>
</svg>
