<svg width="20" height="17" viewBox="0 0 20 17" fill="none" xmlns="http://www.w3.org/2000/svg">
<path opacity="0.4" d="M20 2.0922C19.2483 2.4183 18.4534 2.63387 17.64 2.7322C18.4982 2.21952 19.1413 1.41298 19.45 0.462202C18.6436 0.942265 17.7608 1.2805 16.84 1.4622C16.2245 0.794774 15.405 0.350498 14.5098 0.199053C13.6147 0.0476084 12.6945 0.19756 11.8938 0.625391C11.093 1.05322 10.4569 1.73473 10.0852 2.56304C9.71355 3.39134 9.62729 4.31959 9.84 5.2022C8.20943 5.11973 6.61444 4.69516 5.15865 3.95606C3.70287 3.21697 2.41885 2.17989 1.39 0.912202C1.02914 1.54237 0.839519 2.25602 0.84 2.9822C0.83872 3.65658 1.00422 4.32082 1.32176 4.91577C1.63929 5.51071 2.09902 6.01791 2.66 6.3922C2.00798 6.37446 1.36989 6.1995 0.8 5.8822V5.9322C0.804887 6.87709 1.13599 7.79129 1.73731 8.52017C2.33864 9.24904 3.17326 9.74784 4.1 9.9322C3.74326 10.0408 3.37287 10.098 3 10.1022C2.74189 10.0992 2.48442 10.0758 2.23 10.0322C2.49391 10.845 3.00462 11.5553 3.69107 12.0644C4.37753 12.5734 5.20558 12.8558 6.06 12.8722C4.6172 14.0075 2.83588 14.6271 1 14.6322C0.665735 14.6333 0.331736 14.6133 0 14.5722C1.87443 15.7825 4.05881 16.4249 6.29 16.4222C7.82969 16.4382 9.35714 16.1472 10.7831 15.5663C12.2091 14.9853 13.505 14.1261 14.5952 13.0387C15.6854 11.9513 16.548 10.6576 17.1326 9.23311C17.7172 7.80862 18.012 6.28193 18 4.7422C18 4.5722 18 4.3922 18 4.2122C18.7847 3.62701 19.4615 2.90963 20 2.0922Z" fill="white"/>
</svg>
