<svg width="23" height="16" viewBox="0 0 23 16" fill="none" xmlns="http://www.w3.org/2000/svg">
<path opacity="0.4" d="M22.3897 5.7095C22.4391 4.27815 22.1261 2.85751 21.4797 1.5795C21.0411 1.05509 20.4324 0.701206 19.7597 0.579496C16.9772 0.327021 14.1832 0.22354 11.3897 0.269496C8.60632 0.221454 5.82238 0.321596 3.04968 0.569496C2.5015 0.669213 1.99419 0.926338 1.58968 1.3095C0.689675 2.1395 0.589675 3.5595 0.489675 4.7595C0.344587 6.91706 0.344587 9.08193 0.489675 11.2395C0.518605 11.9149 0.619169 12.5853 0.789675 13.2395C0.91025 13.7446 1.1542 14.2118 1.49968 14.5995C1.90694 15.003 2.42606 15.2747 2.98968 15.3795C5.14559 15.6456 7.31789 15.7559 9.48968 15.7095C12.9897 15.7595 16.0597 15.7095 19.6897 15.4295C20.2671 15.3311 20.8009 15.059 21.2197 14.6495C21.4996 14.3694 21.7088 14.0266 21.8297 13.6495C22.1873 12.5521 22.363 11.4036 22.3497 10.2495C22.3897 9.6895 22.3897 6.3095 22.3897 5.7095ZM9.12967 10.8495V4.6595L15.0497 7.7695C13.3897 8.6895 11.1997 9.7295 9.12967 10.8495Z" fill="white"/>
</svg>
